<svg width="250" height="250" viewBox="0 0 250 250" fill="none" xmlns="http://www.w3.org/2000/svg">
<path d="M224.95 199.245H208.39V199.37H224.95V199.245Z" fill="#EBEBEB"/>
<path d="M165.61 200.605H161.265V200.73H165.61V200.605Z" fill="#EBEBEB"/>
<path d="M207.89 194.605H198.295V194.73H207.89V194.605Z" fill="#EBEBEB"/>
<path d="M47.825 195.445H26.23V195.57H47.825V195.445Z" fill="#EBEBEB"/>
<path d="M55.445 195.445H52.28V195.57H55.445V195.445Z" fill="#EBEBEB"/>
<path d="M112.575 197.555H65.7351V197.68H112.575V197.555Z" fill="#EBEBEB"/>
<path d="M119.2 168.9H22.6499C21.8927 168.9 21.1665 168.599 20.6311 168.064C20.0957 167.528 19.7949 166.802 19.7949 166.045V30.33C19.8015 29.5771 20.1052 28.8574 20.6399 28.3274C21.1746 27.7973 21.897 27.5 22.6499 27.5H119.2C119.575 27.5 119.946 27.5738 120.292 27.7173C120.639 27.8608 120.954 28.0711 121.219 28.3362C121.484 28.6013 121.694 28.9161 121.838 29.2624C121.981 29.6088 122.055 29.9801 122.055 30.355V166.045C122.055 166.42 121.981 166.791 121.838 167.138C121.694 167.484 121.484 167.799 121.219 168.064C120.954 168.329 120.639 168.539 120.292 168.683C119.946 168.826 119.575 168.9 119.2 168.9ZM22.6499 27.6C21.9263 27.6013 21.2327 27.8894 20.721 28.4011C20.2093 28.9127 19.9212 29.6064 19.9199 30.33V166.045C19.9212 166.769 20.2093 167.462 20.721 167.974C21.2327 168.486 21.9263 168.774 22.6499 168.775H119.2C119.924 168.774 120.617 168.486 121.129 167.974C121.641 167.462 121.929 166.769 121.93 166.045V30.33C121.929 29.6064 121.641 28.9127 121.129 28.4011C120.617 27.8894 119.924 27.6013 119.2 27.6H22.6499Z" fill="#EBEBEB"/>
<path d="M227.35 168.9H130.8C130.043 168.9 129.317 168.599 128.781 168.064C128.246 167.528 127.945 166.802 127.945 166.045V30.33C127.952 29.5771 128.255 28.8574 128.79 28.3274C129.325 27.7973 130.047 27.5 130.8 27.5H227.35C228.107 27.5 228.833 27.8008 229.369 28.3362C229.904 28.8716 230.205 29.5978 230.205 30.355V166.045C230.205 166.802 229.904 167.528 229.369 168.064C228.833 168.599 228.107 168.9 227.35 168.9ZM130.8 27.6C130.076 27.6013 129.383 27.8894 128.871 28.4011C128.359 28.9127 128.071 29.6064 128.07 30.33V166.045C128.071 166.769 128.359 167.462 128.871 167.974C129.383 168.486 130.076 168.774 130.8 168.775H227.35C228.074 168.774 228.767 168.486 229.279 167.974C229.791 167.462 230.079 166.769 230.08 166.045V30.33C230.079 29.6064 229.791 28.9127 229.279 28.4011C228.767 27.8894 228.074 27.6013 227.35 27.6H130.8Z" fill="#EBEBEB"/>
<path d="M250 191.2H0V191.325H250V191.2Z" fill="#EBEBEB"/>
<path d="M80.0199 57.775H23.8899V191.005H80.0199V57.775Z" fill="#E6E6E6"/>
<path d="M77.635 60.19H26.28V191.005H77.635V60.19Z" fill="#F0F0F0"/>
<path d="M74.025 77.445H30.165V125.355H74.025V77.445Z" fill="#FAFAFA"/>
<path d="M74.025 139.84H30.165V187.75H74.025V139.84Z" fill="#E6E6E6"/>
<path d="M38.805 63.66H65.385C67.6722 63.6666 69.8634 64.5798 71.4783 66.1994C73.0932 67.819 74 70.0128 74 72.3V74.965H30.165V72.3C30.165 70.0085 31.0753 67.8109 32.6956 66.1906C34.316 64.5703 36.5136 63.66 38.805 63.66Z" fill="#FAFAFA"/>
<path d="M33.91 127.51H30.165V137.27H33.91V127.51Z" fill="#E6E6E6"/>
<path d="M33.91 137.27H34.645V127.51H33.91V137.27Z" fill="#E0E0E0"/>
<path d="M32.67 131.345C32.67 131.658 32.5772 131.963 32.4034 132.223C32.2295 132.483 31.9825 132.686 31.6935 132.805C31.4045 132.925 31.0865 132.956 30.7799 132.894C30.4733 132.833 30.1918 132.682 29.971 132.46C29.7502 132.239 29.6002 131.957 29.5398 131.65C29.4794 131.343 29.5114 131.026 29.6317 130.737C29.7521 130.448 29.9554 130.202 30.2159 130.029C30.4763 129.856 30.7823 129.764 31.095 129.765C31.5132 129.766 31.9138 129.933 32.209 130.23C32.5042 130.526 32.67 130.927 32.67 131.345Z" fill="#E0E0E0"/>
<path d="M32.3751 134.075H31.5601V136.05H32.3751V134.075Z" fill="#E0E0E0"/>
<path d="M31.9051 131.345C31.9051 131.782 31.7754 132.21 31.5323 132.573C31.2892 132.937 30.9438 133.22 30.5397 133.387C30.1356 133.554 29.691 133.598 29.2621 133.512C28.8333 133.427 28.4395 133.216 28.1306 132.906C27.8218 132.596 27.6117 132.202 27.527 131.773C27.4423 131.344 27.4867 130.9 27.6548 130.496C27.8228 130.092 28.1068 129.747 28.4709 129.505C28.835 129.263 29.2628 129.134 29.7001 129.135C29.9903 129.134 30.2777 129.191 30.5459 129.302C30.814 129.413 31.0576 129.576 31.2625 129.781C31.4675 129.987 31.6298 130.23 31.74 130.499C31.8503 130.767 31.9064 131.055 31.9051 131.345Z" fill="#F5F5F5"/>
<path d="M45.5949 63.66H43.0849L40.6799 74.965H43.1899L45.5949 63.66Z" fill="#F5F5F5"/>
<path d="M73.5001 68.815C73.0836 67.7295 72.4372 66.747 71.6051 65.935L69.6851 74.965H72.1851L73.5001 68.815Z" fill="#F5F5F5"/>
<path d="M68.285 64C67.5417 63.779 66.7704 63.6662 65.995 63.665H56.74L54.335 74.97H65.95L68.285 64Z" fill="#F5F5F5"/>
<path d="M42.665 77.445H40.155L30.165 124.45V125.355H32.48L42.665 77.445Z" fill="#F5F5F5"/>
<path d="M65.425 77.445H53.81L43.625 125.355H55.24L65.425 77.445Z" fill="#F5F5F5"/>
<path d="M71.65 77.445H69.14L58.96 125.355H61.465L71.65 77.445Z" fill="#F5F5F5"/>
<path d="M211.275 36.78H210.785V51.315H211.275V36.78Z" fill="#E6E6E6"/>
<path d="M226.56 59.395L211.03 50.01L195.495 59.395H226.56Z" fill="#E6E6E6"/>
<path d="M209.955 59.395L211.03 50.01L204.045 59.395H209.955Z" fill="#FAFAFA"/>
<path d="M212.1 146.985H198.14C197.775 146.985 197.48 147.28 197.48 147.645V150.425C197.48 150.789 197.775 151.085 198.14 151.085H212.1C212.464 151.085 212.76 150.789 212.76 150.425V147.645C212.76 147.28 212.464 146.985 212.1 146.985Z" fill="#F5F5F5"/>
<path d="M212.1 157.155H198.14C197.775 157.155 197.48 157.45 197.48 157.815V160.595C197.48 160.96 197.775 161.255 198.14 161.255H212.1C212.464 161.255 212.76 160.96 212.76 160.595V157.815C212.76 157.45 212.464 157.155 212.1 157.155Z" fill="#F5F5F5"/>
<path d="M223.425 152.065H209.465C209.1 152.065 208.805 152.36 208.805 152.725V155.505C208.805 155.87 209.1 156.165 209.465 156.165H223.425C223.789 156.165 224.085 155.87 224.085 155.505V152.725C224.085 152.36 223.789 152.065 223.425 152.065Z" fill="#F0F0F0"/>
<path d="M187.175 112.855H201.63C201.995 112.855 202.29 112.559 202.29 112.195V109.28C202.29 108.915 201.995 108.62 201.63 108.62H187.175C186.811 108.62 186.515 108.915 186.515 109.28V112.195C186.515 112.559 186.811 112.855 187.175 112.855Z" fill="#F5F5F5"/>
<path d="M191.995 107.61H206.45C206.815 107.61 207.11 107.314 207.11 106.95V104.035C207.11 103.67 206.815 103.375 206.45 103.375H191.995C191.631 103.375 191.335 103.67 191.335 104.035V106.95C191.335 107.314 191.631 107.61 191.995 107.61Z" fill="#F5F5F5"/>
<path d="M175.48 107.61H189.935C190.299 107.61 190.595 107.314 190.595 106.95V104.035C190.595 103.67 190.299 103.375 189.935 103.375H175.48C175.115 103.375 174.82 103.67 174.82 104.035V106.95C174.82 107.314 175.115 107.61 175.48 107.61Z" fill="#F0F0F0"/>
<path d="M125 211.855C178.541 211.855 221.945 209.321 221.945 206.195C221.945 203.069 178.541 200.535 125 200.535C71.4587 200.535 28.0549 203.069 28.0549 206.195C28.0549 209.321 71.4587 211.855 125 211.855Z" fill="#F5F5F5"/>
<path d="M115.485 36.705H113.97V74.64H115.485V36.705Z" fill="#263238"/>
<path d="M117.005 36.705H116.245V74.64H117.005V36.705Z" fill="#263238"/>
<path d="M119.285 36.705H118.525V74.64H119.285V36.705Z" fill="#263238"/>
<path d="M123.83 36.705H122.315V74.64H123.83V36.705Z" fill="#263238"/>
<path d="M126.11 36.705H125.35V74.64H126.11V36.705Z" fill="#263238"/>
<path d="M129.145 36.705H126.87V74.64H129.145V36.705Z" fill="#263238"/>
<path d="M131.42 36.705H130.66V74.64H131.42V36.705Z" fill="#263238"/>
<path d="M132.94 36.705H132.18V74.64H132.94V36.705Z" fill="#263238"/>
<path d="M136.73 36.705H135.215V74.64H136.73V36.705Z" fill="#263238"/>
<path d="M140.52 36.705H139.005V74.64H140.52V36.705Z" fill="#263238"/>
<path d="M143.56 36.705H141.285V74.64H143.56V36.705Z" fill="#263238"/>
<path d="M145.835 36.705H145.075V74.64H145.835V36.705Z" fill="#263238"/>
<path d="M148.865 36.705H147.35V74.64H148.865V36.705Z" fill="#263238"/>
<path d="M152.66 36.705H150.385V74.64H152.66V36.705Z" fill="#263238"/>
<path d="M154.18 36.705H153.42V74.64H154.18V36.705Z" fill="#263238"/>
<path d="M157.97 36.705H155.695V74.64H157.97V36.705Z" fill="#263238"/>
<path d="M160.245 36.705H158.73V74.64H160.245V36.705Z" fill="#263238"/>
<path d="M163.285 36.705H161.01V74.64H163.285V36.705Z" fill="#263238"/>
<path d="M164.805 36.705H164.045V74.64H164.805V36.705Z" fill="#263238"/>
<path d="M167.835 36.705H167.075V74.64H167.835V36.705Z" fill="#263238"/>
<path d="M170.11 36.705H168.595V74.64H170.11V36.705Z" fill="#263238"/>
<path d="M173.905 36.705H172.39V74.64H173.905V36.705Z" fill="#263238"/>
<path d="M176.94 36.705H176.18V74.64H176.94V36.705Z" fill="#263238"/>
<path d="M179.975 36.705H179.215V74.64H179.975V36.705Z" fill="#263238"/>
<path d="M182.25 36.705H180.735V74.64H182.25V36.705Z" fill="#263238"/>
<path d="M186.8 36.705H184.525V74.64H186.8V36.705Z" fill="#263238"/>
<path d="M188.32 36.705H187.56V74.64H188.32V36.705Z" fill="#263238"/>
<path d="M190.595 36.705H189.08V74.64H190.595V36.705Z" fill="#263238"/>
<path d="M144.765 80.19C144.765 80.905 144.225 81.525 143.085 81.525C142.513 81.5337 141.954 81.3584 141.49 81.025L141.83 80.41C142.186 80.6862 142.625 80.8342 143.075 80.83C143.64 80.83 143.97 80.58 143.97 80.185C143.97 79.79 143.69 79.555 143.05 79.555H142.66V79.015L143.625 77.87H141.695V77.205H144.59V77.735L143.56 78.96C143.72 78.9613 143.878 78.9942 144.025 79.0568C144.173 79.1194 144.306 79.2104 144.418 79.3247C144.53 79.439 144.618 79.5743 144.678 79.7228C144.737 79.8712 144.767 80.03 144.765 80.19Z" fill="#263238"/>
<path d="M148.36 80.5H146.235L145.815 81.5H145L146.91 77.25H147.685L149.605 81.5H148.78L148.36 80.5ZM148.1 79.88L147.3 78L146.5 79.86L148.1 79.88Z" fill="#263238"/>
<path d="M152.935 80.16C152.935 80.905 152.395 81.525 151.255 81.525C150.683 81.5344 150.124 81.3591 149.66 81.025L149.995 80.41C150.352 80.6873 150.793 80.8354 151.245 80.83C151.805 80.83 152.14 80.58 152.14 80.18C152.14 79.78 151.88 79.52 151 79.52H150L150.22 77.205H152.72V77.87H150.895L150.805 78.87H151.21C152.43 78.86 152.935 79.405 152.935 80.16Z" fill="#263238"/>
<path d="M156.785 80.145C156.781 80.3403 156.737 80.5326 156.655 80.7099C156.573 80.8872 156.455 81.0457 156.309 81.1753C156.163 81.3049 155.992 81.4029 155.806 81.4631C155.62 81.5233 155.424 81.5444 155.23 81.525C154.07 81.525 153.39 80.78 153.39 79.415C153.39 77.96 154.24 77.155 155.475 77.155C155.865 77.1441 156.25 77.2392 156.59 77.43L156.3 78.025C156.055 77.8798 155.774 77.8086 155.49 77.82C154.69 77.82 154.185 78.32 154.185 79.28C154.331 79.1293 154.508 79.012 154.704 78.9361C154.9 78.8601 155.11 78.8274 155.32 78.84C155.503 78.8213 155.689 78.8409 155.865 78.8977C156.04 78.9545 156.202 79.0473 156.34 79.17C156.477 79.2928 156.588 79.4428 156.665 79.6107C156.742 79.7785 156.782 79.9605 156.785 80.145ZM156.02 80.185C156.02 79.74 155.685 79.46 155.17 79.46C155.065 79.4475 154.958 79.4569 154.857 79.4874C154.755 79.518 154.662 79.5691 154.581 79.6376C154.5 79.7061 154.434 79.7905 154.388 79.8856C154.341 79.9806 154.315 80.0843 154.31 80.19C154.31 80.59 154.625 80.905 155.19 80.905C155.291 80.9154 155.394 80.9046 155.491 80.8733C155.588 80.842 155.677 80.7909 155.753 80.7232C155.829 80.6555 155.891 80.5727 155.933 80.48C155.976 80.3874 155.998 80.2869 156 80.185H156.02Z" fill="#263238"/>
<path d="M160.37 77.215V77.745L158.72 81.465H157.875L159.47 77.885H157.805V78.605H157.07V77.215H160.37Z" fill="#263238"/>
<path d="M164.935 80.31C164.935 81.04 164.365 81.465 163.27 81.465H161.16V77.215H163.16C164.16 77.215 164.725 77.65 164.725 78.32C164.733 78.5117 164.686 78.7018 164.59 78.8676C164.493 79.0334 164.351 79.1679 164.18 79.255C164.406 79.3201 164.604 79.4597 164.741 79.6512C164.878 79.8427 164.946 80.0748 164.935 80.31ZM161.935 77.81V79H163.05C163.595 79 163.905 78.81 163.905 78.42C163.905 78.03 163.595 77.83 163.05 77.83L161.935 77.81ZM164.125 80.205C164.125 79.785 163.805 79.595 163.21 79.595H161.95V80.82H163.225C163.82 80.845 164.14 80.655 164.14 80.23L164.125 80.205Z" fill="#263238"/>
<path d="M118.73 204.51L114.62 204.275L114.01 194.695L118.115 194.935L118.73 204.51Z" fill="#CE7A63"/>
<path d="M119.24 202.065H114.24C114.159 202.065 114.08 202.093 114.016 202.144C113.953 202.195 113.908 202.266 113.89 202.345L113.04 206C113.019 206.089 113.019 206.181 113.04 206.269C113.06 206.358 113.101 206.441 113.158 206.511C113.216 206.582 113.289 206.638 113.371 206.676C113.454 206.714 113.544 206.732 113.635 206.73C115.25 206.73 116.425 206.61 118.46 206.61C119.71 206.61 123.46 206.74 125.205 206.74C126.95 206.74 127.175 205.035 126.47 204.88C123.305 204.185 120.925 203.23 119.92 202.315C119.733 202.15 119.49 202.06 119.24 202.065Z" fill="#263238"/>
<path opacity="0.2" d="M118.115 194.94L114.005 194.7L114.325 199.635L118.435 199.675L118.115 194.94Z" fill="black"/>
<path d="M119.5 202.635C119.481 202.63 119.464 202.62 119.45 202.606C119.437 202.592 119.428 202.574 119.425 202.555C119.423 202.535 119.427 202.515 119.435 202.498C119.444 202.48 119.458 202.465 119.475 202.455C119.625 202.365 120.975 201.55 121.41 201.78C121.46 201.808 121.501 201.848 121.531 201.897C121.56 201.947 121.575 202.003 121.575 202.06C121.581 202.153 121.566 202.247 121.531 202.334C121.495 202.421 121.44 202.498 121.37 202.56C121.135 202.714 120.855 202.786 120.575 202.765C120.213 202.763 119.852 202.719 119.5 202.635ZM119.785 202.5C120.264 202.66 120.785 202.633 121.245 202.425C121.295 202.382 121.334 202.327 121.357 202.265C121.381 202.203 121.388 202.136 121.38 202.07C121.381 202.047 121.376 202.024 121.366 202.004C121.355 201.984 121.339 201.967 121.32 201.955C121.281 201.937 121.238 201.929 121.195 201.93C120.699 202.029 120.227 202.223 119.805 202.5H119.785Z" fill="#4628F1"/>
<path d="M119.5 202.62C119.485 202.61 119.473 202.597 119.465 202.581C119.457 202.565 119.454 202.548 119.455 202.53C119.455 202.48 119.57 201.295 120.055 200.905C120.111 200.856 120.178 200.82 120.249 200.799C120.321 200.777 120.396 200.771 120.47 200.78C120.542 200.781 120.612 200.807 120.668 200.853C120.723 200.9 120.761 200.964 120.775 201.035C120.86 201.495 120.025 202.395 119.6 202.625C119.585 202.63 119.569 202.63 119.555 202.625C119.536 202.629 119.517 202.627 119.5 202.62ZM120.175 201.055C119.883 201.425 119.709 201.875 119.675 202.345C120.105 202.025 120.635 201.345 120.585 201.07C120.585 201.045 120.585 200.99 120.445 200.975H120.4C120.314 200.973 120.231 201.001 120.165 201.055H120.175Z" fill="#4628F1"/>
<path d="M97.4298 204.855L93.4348 203.88L94.5598 194.35L98.5548 195.325L97.4298 204.855Z" fill="#CE7A63"/>
<path d="M97.9699 202.065H92.9699C92.8878 202.065 92.8082 202.093 92.7438 202.143C92.6794 202.194 92.634 202.265 92.6149 202.345L91.7499 206C91.7302 206.088 91.7309 206.18 91.7518 206.268C91.7727 206.357 91.8133 206.439 91.8705 206.509C91.9278 206.579 92.0002 206.636 92.0823 206.674C92.1645 206.712 92.2543 206.731 92.3449 206.73C93.9599 206.73 95.1399 206.61 97.1699 206.61C98.4199 206.61 102.17 206.74 103.915 206.74C105.66 206.74 105.885 205.035 105.18 204.88C102.015 204.185 99.6399 203.23 98.6349 202.315C98.4513 202.153 98.2147 202.064 97.9699 202.065Z" fill="#263238"/>
<path opacity="0.2" d="M98.5549 195.33L94.5599 194.355L93.9099 199.84H98.0349L98.5549 195.33Z" fill="black"/>
<path d="M98.2448 202.635C98.2265 202.63 98.2101 202.62 98.1976 202.606C98.1851 202.591 98.1772 202.574 98.1748 202.555C98.1718 202.536 98.1744 202.516 98.1824 202.498C98.1904 202.481 98.2034 202.465 98.2198 202.455C98.3698 202.365 99.7198 201.55 100.16 201.78C100.21 201.807 100.252 201.848 100.28 201.897C100.308 201.947 100.322 202.003 100.32 202.06C100.328 202.154 100.314 202.248 100.279 202.335C100.243 202.422 100.187 202.499 100.115 202.56C99.88 202.715 99.6002 202.787 99.3198 202.765C98.9577 202.763 98.5971 202.719 98.2448 202.635ZM98.5298 202.5C99.0085 202.66 99.5301 202.633 99.9898 202.425C100.04 202.382 100.079 202.327 100.102 202.265C100.126 202.203 100.133 202.136 100.125 202.07C100.125 201.995 100.095 201.97 100.065 201.955C100.026 201.937 99.9828 201.929 99.9398 201.93C99.4374 202.027 98.9585 202.221 98.5298 202.5Z" fill="#4628F1"/>
<path d="M98.215 202.62C98.2003 202.61 98.1887 202.597 98.1816 202.581C98.1745 202.565 98.1722 202.547 98.175 202.53C98.175 202.48 98.29 201.295 98.77 200.905C98.8266 200.856 98.8928 200.82 98.9643 200.799C99.0357 200.777 99.1109 200.771 99.185 200.78C99.2582 200.78 99.3293 200.805 99.3859 200.852C99.4424 200.898 99.481 200.963 99.495 201.035C99.575 201.495 98.745 202.395 98.315 202.625C98.3003 202.63 98.2846 202.63 98.27 202.625C98.2515 202.629 98.2325 202.627 98.215 202.62ZM98.89 201.055C98.5977 201.425 98.4234 201.875 98.39 202.345C98.815 202.025 99.345 201.345 99.295 201.07C99.295 201.045 99.295 200.99 99.155 200.975H99.11C99.0298 200.976 98.9524 201.005 98.89 201.055Z" fill="#4628F1"/>
<path d="M109.835 81.875C110.689 81.8671 111.515 82.1829 112.145 82.759C112.776 83.335 113.166 84.1286 113.235 84.98C113.315 85.91 113.39 86.775 113.435 87.12C113.64 88.905 115.285 96.225 115.6 98.005L116.04 100.44C116.075 100.61 120.225 100.24 120.225 100.24L121.83 102.12C121.495 102.512 121.138 102.884 120.76 103.235C120.386 103.596 119.986 103.93 119.565 104.235C119.121 104.567 118.65 104.86 118.155 105.11C117.575 105.411 116.95 105.619 116.305 105.725C115.894 105.783 115.476 105.783 115.065 105.725C114.566 105.649 114.086 105.479 113.65 105.225C113.213 104.965 112.828 104.626 112.515 104.225C112.142 103.73 111.86 103.173 111.68 102.58L111.615 102.365L111.57 102.195L111.375 101.5C111.24 101.035 111.12 100.57 111.005 100.1C110.545 98.23 108.77 89.65 108.505 87.735C108.37 86.78 108.245 85.815 108.165 84.85C108.125 84.35 108.09 83.85 108.06 83.385C108.03 82.92 108.015 82.425 108.01 81.855L109.835 81.875Z" fill="#4628F1"/>
<path opacity="0.6" d="M109.835 81.875C110.689 81.8671 111.515 82.1829 112.145 82.759C112.776 83.335 113.166 84.1286 113.235 84.98C113.315 85.91 113.39 86.775 113.435 87.12C113.64 88.905 115.285 96.225 115.6 98.005L116.04 100.44C116.075 100.61 120.225 100.24 120.225 100.24L121.83 102.12C121.495 102.512 121.138 102.884 120.76 103.235C120.386 103.596 119.986 103.93 119.565 104.235C119.121 104.567 118.65 104.86 118.155 105.11C117.575 105.411 116.95 105.619 116.305 105.725C115.894 105.783 115.476 105.783 115.065 105.725C114.566 105.649 114.086 105.479 113.65 105.225C113.213 104.965 112.828 104.626 112.515 104.225C112.142 103.73 111.86 103.173 111.68 102.58L111.615 102.365L111.57 102.195L111.375 101.5C111.24 101.035 111.12 100.57 111.005 100.1C110.545 98.23 108.77 89.65 108.505 87.735C108.37 86.78 108.245 85.815 108.165 84.85C108.125 84.35 108.09 83.85 108.06 83.385C108.03 82.92 108.015 82.425 108.01 81.855L109.835 81.875Z" fill="white"/>
<path d="M118.745 100.34C118.745 100.34 117.795 102.735 120.15 103.76L122.21 102.66L121 100L118.745 100.34Z" fill="#4628F1"/>
<path opacity="0.8" d="M118.745 100.34C118.745 100.34 117.795 102.735 120.15 103.76L122.21 102.66L121 100L118.745 100.34Z" fill="white"/>
<path d="M120.835 100.115L122.88 98.345L124.84 101.775C123.944 102.239 122.978 102.554 121.98 102.705C121.17 102.79 120.835 102.07 120.575 101.395C120.497 101.178 120.48 100.944 120.526 100.719C120.572 100.493 120.679 100.284 120.835 100.115Z" fill="#CE7A63"/>
<path d="M125.62 98.245L127.11 100.265L124.84 101.775L122.88 98.345L125.62 98.245Z" fill="#CE7A63"/>
<path opacity="0.1" d="M116.04 100.44L113.4 101.03C113.4 101.03 114.935 100.775 115.325 97.425C115.325 97.25 115.325 96.685 115.38 96.875C115.75 98.84 116.04 100.44 116.04 100.44Z" fill="black"/>
<path d="M128.39 87.78H115.905V100.265H128.39V87.78Z" fill="#263238"/>
<path opacity="0.7" d="M128.39 87.78H115.905V100.265H128.39V87.78Z" fill="white"/>
<path d="M128.39 100.27H133.955V87.785H128.39V100.27Z" fill="#263238"/>
<path opacity="0.6" d="M128.39 100.27H133.955V87.785H128.39V100.27Z" fill="white"/>
<path opacity="0.7" d="M121.79 96.075H116.51V99.565H121.79V96.075Z" fill="white"/>
<path d="M117.965 96.825H117.585V98.81H117.965V96.825Z" fill="#263238"/>
<path d="M118.45 96.825H118.26V98.81H118.45V96.825Z" fill="#263238"/>
<path d="M119.165 96.825H118.64V98.81H119.165V96.825Z" fill="#263238"/>
<path d="M119.605 96.825H119.415V98.81H119.605V96.825Z" fill="#263238"/>
<path d="M120.09 96.825H119.9V98.81H120.09V96.825Z" fill="#263238"/>
<path d="M120.715 96.825H120.335V98.81H120.715V96.825Z" fill="#263238"/>
<path d="M134.59 85.635H129.025V88.41H134.59V85.635Z" fill="#263238"/>
<path opacity="0.4" d="M134.59 85.635H129.025V88.41H134.59V85.635Z" fill="white"/>
<path d="M129.025 85.635H115.27V88.41H129.025V85.635Z" fill="#263238"/>
<path opacity="0.5" d="M129.025 85.635H115.27V88.41H129.025V85.635Z" fill="white"/>
<path d="M132.685 85.635H130.925V89.68H132.685V85.635Z" fill="#4628F1"/>
<path d="M132.685 96.22H130.925V100.265H132.685V96.22Z" fill="#4628F1"/>
<g opacity="0.3">
<path d="M132.685 85.635H130.925V89.68H132.685V85.635Z" fill="white"/>
<path d="M132.685 96.22H130.925V100.265H132.685V96.22Z" fill="white"/>
</g>
<path d="M99.4299 113.865L109 160.33L113.085 198.68L119.585 198.42C119.585 198.42 119.965 178.735 118.055 158.16C116.335 139.585 113.055 119.16 112.33 112.985L109.04 109.89L104.235 110.675L99.4299 113.865Z" fill="#263238"/>
<path d="M92.7098 113.965L94.5248 164.725L92.6648 198.56L100.09 198.92C100.09 198.92 102.515 182.815 103.75 163.61C104.99 144.245 105.04 123.15 105.34 116.525L102.455 111.58H97.7798L92.7098 113.965Z" fill="#263238"/>
<path d="M112.025 107.065C111.795 105.335 111.755 103.645 111.695 102.025C111.09 85.93 111.07 85.585 110.825 82.775C110.802 82.5299 110.708 82.2969 110.553 82.1056C110.398 81.9142 110.19 81.7731 109.955 81.7C100.095 78.385 96.0748 80.005 88.9998 81.785C88.7296 81.8678 88.4978 82.0441 88.3457 82.2823C88.1936 82.5205 88.1313 82.805 88.1698 83.085C88.6698 87.81 90.1698 99.37 90.5098 107.085C90.5598 108.215 90.5398 110.935 90.5098 112.44C90.5057 112.735 90.6073 113.022 90.7963 113.248C90.9852 113.475 91.2489 113.626 91.5398 113.675C94.0398 114.095 100.315 114.895 102.23 112.675C102.44 112.44 102.734 112.297 103.048 112.274C103.362 112.252 103.673 112.353 103.915 112.555C104.7 113.195 105.98 113.77 108.025 113.625C109.97 113.49 111.25 113.32 112.065 113.18C112.235 113.153 112.397 113.09 112.542 112.997C112.686 112.903 112.809 112.78 112.903 112.636C112.997 112.492 113.06 112.33 113.088 112.16C113.116 111.99 113.108 111.817 113.065 111.65C112.705 110.25 112.16 108.06 112.025 107.065Z" fill="#4628F1"/>
<path d="M103.32 80.335L100.6 82.125L98.06 82.235L96.56 80.93C96.6141 79.4061 96.5354 77.8803 96.325 76.37C96.2194 75.3414 95.9738 74.3321 95.595 73.37H95.855L98.355 73.42L101.14 73.475C101.14 73.475 101.03 74.51 101.03 75.79C101.027 76.4247 101.06 77.0591 101.13 77.69C101.184 78.2829 101.315 78.8662 101.52 79.425C101.935 80.41 103.26 80.33 103.32 80.335Z" fill="#CE7A63"/>
<path d="M103.75 80.07C103.75 80.415 103.39 89.24 102.66 101.775L95.335 80.165L95.695 80.09L99.84 82.145H101.095L103.435 80.01H103.47L103.75 80.07Z" fill="#4628F1"/>
<path opacity="0.5" d="M103.75 80.07C103.75 80.415 103.39 89.24 102.66 101.775L95.335 80.165L95.695 80.09L99.84 82.145H101.095L103.435 80.01H103.47L103.75 80.07Z" fill="white"/>
<path d="M96.2948 79.955L100.67 82.155L98.8348 84.585L95.3298 80.17L96.2948 79.955Z" fill="#4628F1"/>
<path d="M103.75 80.06V80.07L102.3 84.59L100.565 82.295L100.46 82.155L100.53 82.085L102.86 79.92L103.425 80.01L103.46 80.015L103.75 80.06Z" fill="#4628F1"/>
<g opacity="0.8">
<path d="M96.2948 79.955L100.67 82.155L98.8348 84.585L95.3298 80.17L96.2948 79.955Z" fill="white"/>
</g>
<g opacity="0.8">
<path d="M103.75 80.06V80.07L102.3 84.59L100.565 82.295L100.46 82.155L100.53 82.085L102.86 79.92L103.425 80.01L103.46 80.015L103.75 80.06Z" fill="white"/>
</g>
<path d="M101.17 85.935C101.176 86.0337 101.152 86.1318 101.102 86.217C101.052 86.3023 100.978 86.3708 100.889 86.4139C100.8 86.457 100.7 86.4729 100.602 86.4594C100.505 86.4459 100.413 86.4037 100.339 86.3381C100.265 86.2726 100.212 86.1866 100.187 86.091C100.162 85.9954 100.166 85.8946 100.198 85.8011C100.23 85.7077 100.289 85.6259 100.368 85.5661C100.447 85.5063 100.541 85.4711 100.64 85.465C100.705 85.4609 100.771 85.4699 100.834 85.4913C100.896 85.5128 100.953 85.5463 101.002 85.59C101.052 85.6336 101.092 85.6866 101.12 85.7458C101.149 85.805 101.166 85.8693 101.17 85.935Z" fill="white"/>
<path d="M102.05 92.54C102.05 92.6675 102.002 92.7904 101.914 92.8833C101.827 92.9763 101.707 93.0323 101.58 93.04C101.514 93.044 101.448 93.0351 101.386 93.0136C101.324 92.9922 101.267 92.9587 101.217 92.915C101.168 92.8714 101.128 92.8184 101.099 92.7592C101.071 92.7 101.054 92.6357 101.05 92.57C101.043 92.4381 101.089 92.309 101.177 92.2106C101.265 92.1123 101.388 92.0527 101.52 92.045C101.588 92.0409 101.656 92.0506 101.719 92.0736C101.783 92.0966 101.842 92.1324 101.891 92.1787C101.941 92.225 101.981 92.2809 102.008 92.343C102.035 92.4051 102.049 92.4721 102.05 92.54Z" fill="white"/>
<path opacity="0.2" d="M101.16 77.7C100.088 77.518 99.0533 77.1581 98.0998 76.635C97.5041 76.2964 96.9935 75.8263 96.607 75.2605C96.2206 74.6947 95.9684 74.0481 95.8698 73.37C95.8298 73.1337 95.8097 72.8946 95.8098 72.655L98.3848 73.42L100.825 74.145L101.06 75.79C101.056 76.428 101.089 77.0658 101.16 77.7Z" fill="black"/>
<path d="M94.0299 67.895C94.4249 71.57 94.5299 73.125 96.4599 74.925C99.3899 77.635 103.81 76.345 104.52 72.63C105.155 69.29 104.395 63.83 100.725 62.555C99.9172 62.2661 99.049 62.1883 98.2027 62.3292C97.3565 62.47 96.5602 62.8247 95.8895 63.3596C95.2189 63.8945 94.696 64.592 94.3705 65.3857C94.0451 66.1795 93.9278 67.0432 94.0299 67.895Z" fill="#CE7A63"/>
<path d="M100.045 68.74C100.095 69.035 100.29 69.24 100.48 69.24C100.67 69.24 100.795 68.94 100.75 68.645C100.705 68.35 100.51 68.145 100.315 68.145C100.12 68.145 99.9998 68.455 100.045 68.74Z" fill="#263238"/>
<path d="M103.395 68.23C103.44 68.53 103.635 68.73 103.83 68.73C104.025 68.73 104.145 68.43 104.1 68.135C104.055 67.84 103.855 67.635 103.665 67.635C103.475 67.635 103.35 67.93 103.395 68.23Z" fill="#263238"/>
<path d="M102.105 68.575C102.584 69.4295 103.151 70.2321 103.795 70.97C103.646 71.0836 103.474 71.1645 103.292 71.2076C103.109 71.2506 102.919 71.2549 102.735 71.22L102.105 68.575Z" fill="#BA4D3C"/>
<path d="M98.5399 68.135C98.5771 68.1385 98.6144 68.1295 98.646 68.1097C98.6777 68.0898 98.7019 68.06 98.7149 68.025C98.8507 67.7725 99.0371 67.5507 99.2625 67.3734C99.4879 67.1962 99.7474 67.0674 100.025 66.995C100.071 66.9843 100.111 66.9557 100.137 66.9154C100.162 66.8751 100.17 66.8264 100.16 66.78C100.148 66.7356 100.12 66.6975 100.081 66.6733C100.042 66.6491 99.9949 66.6408 99.9499 66.65C99.6158 66.7335 99.3035 66.8878 99.0343 67.1027C98.7651 67.3175 98.5454 67.5877 98.3899 67.895C98.3819 67.9167 98.3783 67.9397 98.3793 67.9628C98.3803 67.9858 98.3858 68.0085 98.3956 68.0294C98.4053 68.0503 98.4191 68.069 98.4362 68.0846C98.4532 68.1002 98.4732 68.1122 98.4949 68.12C98.501 68.1254 98.5081 68.1296 98.5158 68.1321C98.5236 68.1347 98.5318 68.1357 98.5399 68.135Z" fill="#263238"/>
<path d="M104.185 66.665C104.216 66.6678 104.248 66.6618 104.276 66.6477C104.304 66.6336 104.328 66.6119 104.345 66.585C104.358 66.5657 104.367 66.544 104.372 66.5211C104.376 66.4983 104.376 66.4748 104.371 66.452C104.367 66.4291 104.358 66.4075 104.344 66.3883C104.331 66.369 104.314 66.3526 104.295 66.34C104.063 66.1755 103.795 66.0707 103.513 66.035C103.231 65.9992 102.945 66.0336 102.68 66.135C102.639 66.1517 102.607 66.1834 102.589 66.2234C102.572 66.2635 102.57 66.3088 102.585 66.35C102.603 66.3911 102.637 66.4234 102.679 66.4402C102.721 66.457 102.768 66.4569 102.81 66.44C103.019 66.3683 103.242 66.3472 103.461 66.3785C103.681 66.4098 103.889 66.4925 104.07 66.62C104.102 66.6481 104.142 66.664 104.185 66.665Z" fill="#263238"/>
<path d="M101.935 72.535C101.572 72.5387 101.211 72.4693 100.876 72.331C100.54 72.1927 100.235 71.9884 99.9798 71.73C99.9633 71.7124 99.9541 71.6892 99.9541 71.665C99.9541 71.6409 99.9633 71.6176 99.9798 71.6C99.9882 71.5912 99.9983 71.5843 100.009 71.5795C100.021 71.5747 100.033 71.5723 100.045 71.5723C100.057 71.5723 100.069 71.5747 100.08 71.5795C100.091 71.5843 100.101 71.5912 100.11 71.6C100.39 71.8775 100.73 72.0868 101.103 72.2116C101.477 72.3365 101.874 72.3736 102.265 72.32C102.289 72.3183 102.313 72.3255 102.332 72.3402C102.352 72.3549 102.365 72.3762 102.37 72.4C102.371 72.4122 102.37 72.4246 102.366 72.4364C102.363 72.4481 102.357 72.459 102.349 72.4684C102.341 72.4778 102.331 72.4854 102.32 72.4909C102.309 72.4963 102.297 72.4994 102.285 72.5C102.169 72.5184 102.052 72.5301 101.935 72.535Z" fill="#263238"/>
<path d="M96.0249 74.5C95.2081 73.3407 94.7929 71.946 94.8425 70.5288C94.8922 69.1115 95.404 67.7493 96.2999 66.65C97.3499 65.265 96.3449 65.095 96.3449 65.095C104.235 64.855 103.845 62.325 102.8 60.735C102.504 60.2777 102.106 59.895 101.638 59.6166C101.169 59.3383 100.643 59.1717 100.1 59.13H100.06C99.6376 59.1118 99.2246 59.2578 98.9077 59.5375C98.5907 59.8172 98.3944 60.2087 98.3599 60.63V60.66C98.3599 60.66 91.5499 59.625 92.3599 67.905C92.6649 71.165 96.0249 74.5 96.0249 74.5Z" fill="#263238"/>
<path d="M93.1599 70.775C93.4218 71.4232 93.9283 71.9423 94.5699 72.22C95.4299 72.57 95.9749 71.83 95.8299 70.955C95.6949 70.17 95.0899 69.04 94.1849 69.04C93.8693 69.0517 93.571 69.1874 93.3548 69.4177C93.1385 69.648 93.0218 69.9542 93.0299 70.27C93.0351 70.4459 93.0795 70.6184 93.1599 70.775Z" fill="#CE7A63"/>
<path opacity="0.6" d="M109.945 90.69L110.085 93.385L105.635 93.615L105.495 90.92L107.47 90.815C107.33 90.72 107.34 90.515 107.33 90.315C107.33 89.985 107.405 89.735 107.665 89.72C107.925 89.705 108.025 89.98 108.045 90.31C108.045 90.525 108.1 90.695 107.97 90.81L109.945 90.69Z" fill="white"/>
<path d="M109.36 90.9488L106.064 91.1209C105.885 91.1303 105.747 91.2832 105.757 91.4624L105.835 92.9654C105.845 93.1446 105.997 93.2824 106.177 93.273L109.472 93.1009C109.651 93.0915 109.789 92.9386 109.78 92.7594L109.701 91.2564C109.692 91.0771 109.539 90.9394 109.36 90.9488Z" fill="white"/>
<path d="M107.85 90.08C107.85 90.1264 107.831 90.1709 107.799 90.2037C107.766 90.2365 107.721 90.255 107.675 90.255C107.628 90.255 107.584 90.2365 107.551 90.2037C107.518 90.1709 107.5 90.1264 107.5 90.08C107.498 90.0339 107.515 89.989 107.545 89.9545C107.576 89.9201 107.619 89.8988 107.665 89.895C107.689 89.8943 107.714 89.8986 107.736 89.9076C107.759 89.9167 107.78 89.9303 107.797 89.9476C107.815 89.9649 107.828 89.9856 107.837 90.0084C107.846 90.0311 107.851 90.0555 107.85 90.08Z" fill="#263238"/>
<path opacity="0.2" d="M90.2149 92.915L90.0099 100.53L88.9199 89.945L90.2149 92.915Z" fill="black"/>
<path d="M108.05 100.01L107.7 105.58L108.33 106.035L104.88 106.59L106.295 99.9L108.05 100.01Z" fill="white"/>
<path opacity="0.5" d="M106.295 99.9L108.05 100.01L107.99 100.97C107.348 101.042 106.701 101.069 106.055 101.05L106.295 99.9Z" fill="black"/>
<path d="M108.075 96.865C109.344 96.7126 110.623 96.6558 111.9 96.695L112.37 99.61C111.141 99.9297 109.891 100.164 108.63 100.31C105.795 100.765 103.37 100.365 103.22 99.415C103.07 98.465 105.24 97.325 108.075 96.865Z" fill="#263238"/>
<path d="M108.075 96.865C109.344 96.7126 110.623 96.6558 111.9 96.695L112.37 99.61C111.141 99.9297 109.891 100.164 108.63 100.31C105.795 100.765 103.37 100.365 103.22 99.415C103.07 98.465 105.24 97.325 108.075 96.865Z" fill="white"/>
<path d="M111.43 96.685C111.59 96.685 111.75 96.685 111.9 96.685L112.37 99.6C112.23 99.655 112.08 99.705 111.925 99.755L111.43 96.685Z" fill="#263238"/>
<path d="M102.38 102.46C102.38 102.46 104.645 101.855 105.665 101.56C108.525 100.745 108.635 102.135 108.705 102.61C108.795 103.055 108.748 103.518 108.569 103.936C108.391 104.354 108.089 104.707 107.705 104.95C106.815 105.52 102.405 104.845 102.405 104.845L102.38 102.46Z" fill="#CE7A63"/>
<path d="M99.46 102.45C100.565 102.112 101.72 101.963 102.875 102.01C102.875 102.01 102.125 103.925 103.245 105.345L99.79 105.795L99.46 102.45Z" fill="#4628F1"/>
<path opacity="0.8" d="M99.46 102.45C100.565 102.112 101.72 101.963 102.875 102.01C102.875 102.01 102.125 103.925 103.245 105.345L99.79 105.795L99.46 102.45Z" fill="white"/>
<path d="M89.0449 82C89.0449 82 84.1699 82 84.3349 98.25C84.4449 108.94 88.1649 106.995 92.9399 106.69L101.345 105.905C101.345 105.905 100.48 103.605 101.195 101.76C101.195 101.76 97.0549 102.575 90.2799 101.76C90.2799 101.76 89.3199 93.815 90.1549 92.2C90.1549 92.215 91.1949 85 89.0449 82Z" fill="#4628F1"/>
<path opacity="0.6" d="M89.0449 82C89.0449 82 84.1699 82 84.3349 98.25C84.4449 108.94 88.1649 106.995 92.9399 106.69L101.345 105.905C101.345 105.905 100.48 103.605 101.195 101.76C101.195 101.76 97.0549 102.575 90.2799 101.76C90.2799 101.76 89.3199 93.815 90.1549 92.2C90.1549 92.215 91.1949 85 89.0449 82Z" fill="white"/>
<path opacity="0.1" d="M106.635 149.725L105.34 127.1L104.035 138.41L106.635 149.725Z" fill="black"/>
<path d="M192.095 134.635H82.0498V206.89H192.095V134.635Z" fill="#4628F1"/>
<g opacity="0.4">
<path d="M192.095 134.635H82.0498V206.89H192.095V134.635Z" fill="white"/>
</g>
<path d="M192.61 134.03H81.2699C80.5823 134.03 80.0249 134.587 80.0249 135.275V138.97C80.0249 139.658 80.5823 140.215 81.2699 140.215H192.61C193.297 140.215 193.855 139.658 193.855 138.97V135.275C193.855 134.587 193.297 134.03 192.61 134.03Z" fill="#4628F1"/>
<path d="M139.28 124.21H163.865L165.625 104.14H141.035L139.28 124.21Z" fill="#4628F1"/>
<path opacity="0.2" d="M141.685 124.21H163.895L165.48 106.08H143.275L141.685 124.21Z" fill="black"/>
<path d="M149.995 126.87H157.24V119.535H149.975L149.995 126.87Z" fill="#263238"/>
<path d="M149.975 119.535H157.24V112.065H149.975V119.535Z" fill="#263238"/>
<path opacity="0.1" d="M149.975 119.535H157.24V112.065H149.975V119.535Z" fill="white"/>
<path opacity="0.2" d="M156.36 112.065H151C150.595 112.065 150.265 112.205 150.265 112.38C150.265 112.555 150.595 112.695 151 112.695H156.36C156.76 112.695 157.09 112.555 157.09 112.38C157.09 112.205 156.76 112.065 156.36 112.065Z" fill="white"/>
<path d="M134.32 133.88H167.355V126.87H141.285L134.32 130.46V133.88Z" fill="#4628F1"/>
<path opacity="0.2" d="M141.285 133.875H167.36V126.865H141.285V133.875Z" fill="black"/>
<path d="M160.125 108.115H163.065L164.165 95.515H161.23L160.125 108.115Z" fill="#4628F1"/>
<path opacity="0.2" d="M160.125 108.115H163.065L164.165 95.515H161.23L160.125 108.115Z" fill="black"/>
<path d="M150.485 98.45L171.48 98.26L172.185 90.22L151.19 90.41L150.485 98.45Z" fill="#4628F1"/>
<path d="M151.89 96.935H170.165L170.675 91.115L152.38 91.315L151.89 96.935Z" fill="#263238"/>
<path d="M172.185 90.22L171.48 98.26L172.75 97.49L173.21 91.64L172.185 90.22Z" fill="#4628F1"/>
<g opacity="0.2">
<path d="M172.185 90.22L171.48 98.26L172.75 97.49L173.21 91.64L172.185 90.22Z" fill="black"/>
</g>
<path d="M83.8401 179.645C83.8401 179.645 101.565 157.145 82.3751 176.905C82.3751 176.905 86.0201 154.995 78.9151 177.775C78.9151 177.775 74.1151 156.595 75.8401 180.895C75.8401 180.895 67.0501 160.51 74.6401 185.675C74.6401 185.675 103.965 194.62 81.9401 185.56C81.9401 185.56 111.975 183.92 84.2751 182.9C84.2751 182.9 114.415 168.92 83.8401 179.645Z" fill="#4628F1"/>
<path opacity="0.1" d="M83.8401 179.645C83.8401 179.645 101.565 157.145 82.3751 176.905C82.3751 176.905 86.0201 154.995 78.9151 177.775C78.9151 177.775 74.1151 156.595 75.8401 180.895C75.8401 180.895 67.0501 160.51 74.6401 185.675C74.6401 185.675 103.965 194.62 81.9401 185.56C81.9401 185.56 111.975 183.92 84.2751 182.9C84.2751 182.9 114.415 168.92 83.8401 179.645Z" fill="black"/>
<path d="M68.6101 194.845C68.5922 194.85 68.5731 194.85 68.5551 194.845C68.5077 194.83 68.468 194.797 68.4446 194.753C68.4212 194.709 68.416 194.658 68.4301 194.61C69.9301 189.92 73.5651 186 76.3651 183.54C76.3824 183.522 76.403 183.508 76.4257 183.499C76.4485 183.489 76.4729 183.484 76.4976 183.484C76.5223 183.484 76.5468 183.489 76.5695 183.499C76.5923 183.508 76.6129 183.522 76.6301 183.54C76.6477 183.557 76.6616 183.577 76.6712 183.599C76.6807 183.622 76.6856 183.646 76.6856 183.67C76.6856 183.694 76.6807 183.718 76.6712 183.741C76.6616 183.763 76.6477 183.783 76.6301 183.8C73.8701 186.235 70.2701 190.095 68.8101 194.705C68.7986 194.748 68.7722 194.786 68.7356 194.811C68.699 194.837 68.6546 194.849 68.6101 194.845Z" fill="#263238"/>
<path d="M56.5 192.5H76.845C77.18 192.5 77.45 192.94 77.45 193.5C77.45 194.06 77.18 194.5 76.845 194.5H76.405L75 203C74.665 205 73.54 206.42 72.25 206.42H61.09C59.805 206.42 58.675 205.015 58.345 203L56.935 194.5H56.5C56.165 194.5 55.895 194.06 55.895 193.5C55.895 192.94 56.16 192.5 56.5 192.5Z" fill="#263238"/>
<path d="M72.2451 206.63H61.0901C59.7101 206.63 58.5051 205.155 58.1601 203.05L56.7751 194.675H56.5001C56.0551 194.675 55.7051 194.175 55.7051 193.505C55.7051 192.835 56.0551 192.335 56.5001 192.335H76.8451C77.2901 192.335 77.6401 192.835 77.6401 193.505C77.6401 194.175 77.2901 194.675 76.8451 194.675H76.5651L75.1851 203.05C74.8301 205.155 73.6251 206.63 72.2451 206.63ZM56.5001 192.71C56.3051 192.71 56.0801 193.035 56.0801 193.505C56.0801 193.975 56.3051 194.3 56.5001 194.3H56.9401C56.9841 194.3 57.0266 194.316 57.0603 194.344C57.0941 194.373 57.117 194.412 57.1251 194.455L58.5301 203C58.8451 204.92 59.9001 206.265 61.0901 206.265H72.2451C73.4351 206.265 74.4901 204.92 74.8101 203L76.2151 194.465C76.2232 194.422 76.2461 194.383 76.2798 194.354C76.3136 194.326 76.3561 194.31 76.4001 194.31H76.8401C77.0401 194.31 77.2601 193.985 77.2601 193.515C77.2601 193.045 77.0401 192.72 76.8401 192.72L56.5001 192.71Z" fill="#263238"/>
<path d="M73.3401 173.26C73.3401 173.26 84.0351 141.1 70.6101 170.805C70.6101 170.805 65.8701 144.95 67.1101 173.16C67.1101 173.16 53.2651 151.51 64.9401 177.865C64.9401 177.865 46.9751 158.705 65.5251 183.67C65.5251 183.67 101.76 181.855 73.6051 180.615C73.6051 180.615 106.38 166.725 75.1401 176.715C75.1351 176.715 103.07 149.05 73.3401 173.26Z" fill="#4628F1"/>
<path d="M61.255 194.845H61.21C61.1863 194.839 61.164 194.829 61.1444 194.814C61.1248 194.8 61.1082 194.782 61.0957 194.761C61.0832 194.74 61.0749 194.717 61.0713 194.692C61.0678 194.668 61.069 194.644 61.075 194.62C63.65 184.175 70.835 173.975 70.91 173.87C70.924 173.85 70.9418 173.833 70.9625 173.819C70.9832 173.806 71.0064 173.797 71.0306 173.793C71.0548 173.789 71.0796 173.79 71.1035 173.795C71.1274 173.8 71.15 173.811 71.17 173.825C71.1904 173.839 71.2077 173.858 71.221 173.879C71.2342 173.9 71.2432 173.924 71.2474 173.948C71.2516 173.973 71.2509 173.998 71.2453 174.022C71.2397 174.047 71.2294 174.07 71.215 174.09C71.14 174.19 63.995 184.34 61.435 194.71C61.4248 194.75 61.4014 194.785 61.3687 194.809C61.336 194.834 61.2959 194.846 61.255 194.845Z" fill="#263238"/>
<path d="M55.5001 174.765C55.5001 174.765 30.2851 154.905 52.4301 176.41C52.4301 176.41 27.8801 172.325 53.4301 180.29C53.4301 180.29 29.6951 185.665 56.9301 183.73C56.9301 183.73 34.0901 193.58 62.2901 185.08C62.2901 185.08 72.3151 152.215 62.1601 176.9C62.1601 176.9 60.3251 143.235 59.1851 174.28C59.1451 174.28 43.5001 140.5 55.5001 174.765Z" fill="#4628F1"/>
<path opacity="0.3" d="M55.5001 174.765C55.5001 174.765 30.2851 154.905 52.4301 176.41C52.4301 176.41 27.8801 172.325 53.4301 180.29C53.4301 180.29 29.6951 185.665 56.9301 183.73C56.9301 183.73 34.0901 193.58 62.2901 185.08C62.2901 185.08 72.3151 152.215 62.1601 176.9C62.1601 176.9 60.3251 143.235 59.1851 174.28C59.1451 174.28 43.5001 140.5 55.5001 174.765Z" fill="white"/>
<path d="M67.39 196.29C67.3495 196.29 67.3103 196.276 67.2779 196.252C67.2455 196.228 67.2217 196.194 67.21 196.155C62.76 181.285 54.865 177.485 54.79 177.45C54.7453 177.428 54.7106 177.39 54.6929 177.344C54.6752 177.297 54.676 177.246 54.695 177.2C54.7166 177.155 54.7549 177.121 54.8017 177.104C54.8484 177.087 54.8998 177.089 54.945 177.11C55.025 177.145 63.065 181 67.57 196.045C67.5841 196.093 67.5789 196.144 67.5555 196.188C67.5322 196.232 67.4925 196.265 67.445 196.28L67.39 196.29Z" fill="#263238"/>
</svg>
