<svg width="250" height="250" viewBox="0 0 250 250" fill="none" xmlns="http://www.w3.org/2000/svg">
<path d="M224.95 199.245H208.39V199.37H224.95V199.245Z" fill="#EBEBEB"/>
<path d="M165.61 200.605H161.265V200.73H165.61V200.605Z" fill="#EBEBEB"/>
<path d="M207.89 194.605H198.295V194.73H207.89V194.605Z" fill="#EBEBEB"/>
<path d="M47.825 195.445H26.23V195.57H47.825V195.445Z" fill="#EBEBEB"/>
<path d="M55.445 195.445H52.28V195.57H55.445V195.445Z" fill="#EBEBEB"/>
<path d="M112.575 197.555H65.7351V197.68H112.575V197.555Z" fill="#EBEBEB"/>
<path d="M119.2 168.9H22.6499C21.8927 168.9 21.1665 168.599 20.6311 168.064C20.0957 167.528 19.7949 166.802 19.7949 166.045V30.33C19.8015 29.5771 20.1052 28.8574 20.6399 28.3274C21.1746 27.7973 21.897 27.5 22.6499 27.5H119.2C119.575 27.5 119.946 27.5738 120.292 27.7173C120.639 27.8608 120.954 28.0711 121.219 28.3362C121.484 28.6013 121.694 28.9161 121.838 29.2624C121.981 29.6088 122.055 29.9801 122.055 30.355V166.045C122.055 166.42 121.981 166.791 121.838 167.138C121.694 167.484 121.484 167.799 121.219 168.064C120.954 168.329 120.639 168.539 120.292 168.683C119.946 168.826 119.575 168.9 119.2 168.9ZM22.6499 27.6C21.9263 27.6013 21.2327 27.8894 20.721 28.4011C20.2093 28.9127 19.9212 29.6064 19.9199 30.33V166.045C19.9212 166.769 20.2093 167.462 20.721 167.974C21.2327 168.486 21.9263 168.774 22.6499 168.775H119.2C119.924 168.774 120.617 168.486 121.129 167.974C121.641 167.462 121.929 166.769 121.93 166.045V30.33C121.929 29.6064 121.641 28.9127 121.129 28.4011C120.617 27.8894 119.924 27.6013 119.2 27.6H22.6499Z" fill="#EBEBEB"/>
<path d="M227.35 168.9H130.8C130.043 168.9 129.317 168.599 128.781 168.064C128.246 167.528 127.945 166.802 127.945 166.045V30.33C127.952 29.5771 128.255 28.8574 128.79 28.3274C129.325 27.7973 130.047 27.5 130.8 27.5H227.35C228.107 27.5 228.833 27.8008 229.369 28.3362C229.904 28.8716 230.205 29.5978 230.205 30.355V166.045C230.205 166.802 229.904 167.528 229.369 168.064C228.833 168.599 228.107 168.9 227.35 168.9ZM130.8 27.6C130.076 27.6013 129.383 27.8894 128.871 28.4011C128.359 28.9127 128.071 29.6064 128.07 30.33V166.045C128.071 166.769 128.359 167.462 128.871 167.974C129.383 168.486 130.076 168.774 130.8 168.775H227.35C228.074 168.774 228.767 168.486 229.279 167.974C229.791 167.462 230.079 166.769 230.08 166.045V30.33C230.079 29.6064 229.791 28.9127 229.279 28.4011C228.767 27.8894 228.074 27.6013 227.35 27.6H130.8Z" fill="#EBEBEB"/>
<path d="M250 191.2H0V191.325H250V191.2Z" fill="#EBEBEB"/>
<path d="M59.6649 157.375C59.2449 152.545 54.3149 150.74 48.4699 151.25C42.6249 151.76 38.0899 154.395 38.4999 159.225L59.6649 157.375Z" fill="#F0F0F0"/>
<path d="M48.28 149.045C50.99 148.805 51.855 146.515 51.62 143.805C51.385 141.095 50.12 138.99 47.42 139.225C44.72 139.46 43.845 141.755 44.08 144.465C44.315 147.175 45.57 149.28 48.28 149.045Z" fill="#F0F0F0"/>
<path d="M170.05 54.5C170.097 55.0361 169.985 55.5741 169.726 56.0461C169.468 56.5182 169.075 56.9029 168.598 57.1517C168.121 57.4005 167.581 57.5021 167.046 57.4437C166.511 57.3854 166.005 57.1696 165.593 56.8238C165.18 56.478 164.88 56.0177 164.729 55.501C164.579 54.9844 164.585 54.4347 164.747 53.9215C164.909 53.4082 165.219 52.9546 165.639 52.6179C166.059 52.2812 166.569 52.0766 167.105 52.03C167.823 51.9676 168.536 52.1926 169.089 52.6557C169.641 53.1188 169.986 53.7822 170.05 54.5Z" fill="#F5F5F5"/>
<path d="M185.085 53.17C185.132 53.7049 185.018 54.2416 184.76 54.7122C184.501 55.1828 184.109 55.5662 183.632 55.8138C183.156 56.0615 182.617 56.1623 182.083 56.1035C181.549 56.0447 181.045 55.8289 180.634 55.4835C180.223 55.1381 179.923 54.6786 179.773 54.163C179.623 53.6474 179.63 53.0989 179.791 52.5869C179.953 52.0749 180.263 51.6223 180.682 51.2865C181.101 50.9506 181.61 50.7465 182.145 50.7C182.862 50.639 183.574 50.8647 184.125 51.3276C184.676 51.7906 185.022 52.4531 185.085 53.17Z" fill="#F5F5F5"/>
<path d="M200.125 51.855C200.172 52.391 200.06 52.9291 199.801 53.4011C199.543 53.8731 199.15 54.2579 198.673 54.5067C198.196 54.7554 197.656 54.8571 197.121 54.7987C196.586 54.7404 196.08 54.5246 195.668 54.1788C195.255 53.833 194.955 53.3726 194.804 52.856C194.654 52.3394 194.66 51.7896 194.822 51.2764C194.983 50.7632 195.294 50.3096 195.714 49.9729C196.134 49.6362 196.644 49.4316 197.18 49.385C197.898 49.3226 198.611 49.5476 199.163 50.0107C199.716 50.4738 200.061 51.1371 200.125 51.855Z" fill="#F5F5F5"/>
<path d="M171.39 69.81C171.437 70.3461 171.325 70.8841 171.066 71.3561C170.808 71.8282 170.415 72.2129 169.938 72.4617C169.461 72.7105 168.92 72.8121 168.385 72.7537C167.851 72.6954 167.345 72.4796 166.933 72.1338C166.52 71.788 166.22 71.3277 166.069 70.811C165.919 70.2944 165.925 69.7447 166.086 69.2315C166.248 68.7182 166.559 68.2646 166.979 67.9279C167.398 67.5912 167.909 67.3866 168.445 67.34C169.163 67.2776 169.876 67.5026 170.428 67.9657C170.981 68.4288 171.326 69.0921 171.39 69.81Z" fill="#F5F5F5"/>
<path d="M186.425 68.5C186.471 69.0349 186.358 69.5716 186.1 70.0422C185.841 70.5128 185.449 70.8962 184.972 71.1438C184.496 71.3915 183.957 71.4922 183.423 71.4335C182.889 71.3747 182.385 71.1589 181.974 70.8135C181.563 70.4681 181.263 70.0086 181.113 69.493C180.963 68.9774 180.969 68.4289 181.131 67.9169C181.293 67.4049 181.603 66.9523 182.022 66.6164C182.441 66.2806 182.95 66.0765 183.485 66.03C183.84 65.9991 184.198 66.0385 184.538 66.1459C184.878 66.2533 185.194 66.4267 185.467 66.656C185.74 66.8854 185.965 67.1663 186.129 67.4827C186.294 67.7991 186.394 68.1447 186.425 68.5Z" fill="#F5F5F5"/>
<path d="M201.465 67.18C201.512 67.716 201.4 68.2541 201.141 68.7261C200.883 69.1981 200.49 69.5829 200.013 69.8317C199.536 70.0805 198.996 70.1821 198.461 70.1237C197.926 70.0654 197.42 69.8496 197.008 69.5038C196.595 69.158 196.295 68.6976 196.144 68.181C195.994 67.6644 196 67.1147 196.162 66.6014C196.324 66.0882 196.634 65.6346 197.054 65.2979C197.474 64.9612 197.984 64.7566 198.52 64.71C199.238 64.6476 199.951 64.8726 200.504 65.3357C201.056 65.7988 201.402 66.4621 201.465 67.18Z" fill="#F5F5F5"/>
<path d="M172.73 85.14C172.776 85.6749 172.663 86.2116 172.405 86.6822C172.146 87.1528 171.754 87.5362 171.277 87.7838C170.801 88.0315 170.262 88.1323 169.728 88.0735C169.194 88.0147 168.69 87.7989 168.279 87.4535C167.867 87.1081 167.568 86.6486 167.418 86.133C167.268 85.6174 167.274 85.0689 167.436 84.5569C167.598 84.0449 167.908 83.5923 168.327 83.2565C168.746 82.9206 169.255 82.7165 169.79 82.67C170.145 82.6384 170.503 82.6773 170.844 82.7845C171.184 82.8917 171.5 83.065 171.773 83.2944C172.046 83.5239 172.271 83.8051 172.435 84.1218C172.6 84.4385 172.7 84.7845 172.73 85.14Z" fill="#F5F5F5"/>
<path d="M187.77 83.82C187.817 84.3561 187.705 84.8941 187.446 85.3662C187.188 85.8382 186.795 86.2229 186.318 86.4717C185.841 86.7205 185.301 86.8221 184.766 86.7637C184.231 86.7054 183.725 86.4897 183.313 86.1438C182.9 85.798 182.6 85.3377 182.449 84.821C182.299 84.3044 182.305 83.7547 182.467 83.2415C182.629 82.7282 182.939 82.2746 183.359 81.9379C183.779 81.6012 184.289 81.3966 184.825 81.35C185.543 81.2876 186.256 81.5126 186.808 81.9758C187.361 82.4389 187.706 83.1022 187.77 83.82Z" fill="#F5F5F5"/>
<path d="M202.805 82.5C202.852 83.0361 202.74 83.5741 202.481 84.0461C202.223 84.5182 201.83 84.9029 201.353 85.1517C200.876 85.4005 200.335 85.5021 199.801 85.4437C199.266 85.3854 198.76 85.1696 198.348 84.8238C197.935 84.478 197.635 84.0177 197.484 83.501C197.334 82.9844 197.34 82.4347 197.502 81.9215C197.663 81.4082 197.974 80.9546 198.394 80.6179C198.814 80.2812 199.324 80.0766 199.86 80.03C200.578 79.9676 201.291 80.1926 201.843 80.6557C202.396 81.1188 202.741 81.7822 202.805 82.5Z" fill="#F5F5F5"/>
<path d="M199.555 83.39L168.665 86.09L196.055 52.81L168 55.265C167.922 55.2725 167.843 55.2643 167.768 55.2409C167.693 55.2174 167.623 55.1792 167.563 55.1284C167.503 55.0776 167.453 55.0153 167.418 54.9452C167.382 54.875 167.361 54.7985 167.355 54.72C167.341 54.5629 167.39 54.4067 167.492 54.2857C167.593 54.1648 167.738 54.089 167.895 54.075L198.79 51.375L171.395 84.655L199.46 82.2C199.618 82.1875 199.775 82.2376 199.897 82.3395C200.018 82.4415 200.095 82.5871 200.11 82.745C200.116 82.8238 200.107 82.9031 200.082 82.9783C200.058 83.0534 200.018 83.123 199.967 83.1829C199.915 83.2428 199.852 83.292 199.782 83.3275C199.711 83.3631 199.634 83.3843 199.555 83.39Z" fill="#E6E6E6"/>
<path d="M200.03 142.805C199.982 142.659 199.893 142.531 199.773 142.436C199.653 142.341 199.508 142.283 199.355 142.27C198.012 142.208 196.74 141.646 195.79 140.695C194.555 139.45 193.83 137.565 193.71 135.325C193.699 135.123 193.61 134.933 193.464 134.793C193.317 134.654 193.122 134.576 192.92 134.575C192.811 134.576 192.702 134.598 192.602 134.642C192.502 134.685 192.411 134.749 192.336 134.828C192.261 134.907 192.202 135.001 192.164 135.104C192.126 135.207 192.11 135.316 192.115 135.425C192.255 138.055 193.145 140.305 194.66 141.82C195.846 143.008 197.42 143.731 199.095 143.855H199.21C199.341 143.865 199.473 143.842 199.594 143.789C199.715 143.736 199.82 143.654 199.901 143.55C199.982 143.446 200.037 143.323 200.059 143.194C200.082 143.064 200.072 142.93 200.03 142.805Z" fill="#F0F0F0"/>
<path d="M198.43 152.4C191.805 151.82 187.025 147.305 185.515 140.255C185.491 140.149 185.489 140.04 185.508 139.933C185.528 139.826 185.568 139.724 185.628 139.634C185.688 139.543 185.765 139.465 185.856 139.405C185.947 139.346 186.048 139.305 186.155 139.285C186.357 139.249 186.566 139.292 186.737 139.406C186.908 139.519 187.029 139.695 187.075 139.895C188.43 146.23 192.68 150.29 198.575 150.805C205.035 151.37 211.97 147.12 213.215 136.41C213.237 136.201 213.339 136.009 213.501 135.875C213.663 135.742 213.871 135.677 214.08 135.695C214.186 135.704 214.289 135.734 214.383 135.783C214.478 135.832 214.561 135.9 214.629 135.982C214.696 136.064 214.747 136.159 214.777 136.261C214.807 136.362 214.817 136.469 214.805 136.575C213.61 146.675 206.97 153.145 198.43 152.4Z" fill="#F0F0F0"/>
<path d="M185.93 133.23C185.824 133.221 185.721 133.191 185.627 133.142C185.533 133.093 185.449 133.025 185.382 132.943C185.314 132.861 185.264 132.766 185.233 132.664C185.203 132.563 185.193 132.456 185.205 132.35C186.395 122.25 193.035 115.775 201.57 116.525C209.07 117.18 214.095 122.78 214.88 131.215C214.888 131.321 214.875 131.427 214.842 131.528C214.808 131.629 214.755 131.722 214.685 131.802C214.616 131.882 214.53 131.948 214.435 131.994C214.34 132.041 214.236 132.069 214.13 132.075C213.921 132.085 213.717 132.013 213.56 131.875C213.404 131.737 213.307 131.543 213.29 131.335C212.565 123.735 208.08 118.7 201.435 118.12C195 117.555 188.035 121.8 186.795 132.5C186.786 132.605 186.757 132.707 186.709 132.8C186.66 132.893 186.594 132.976 186.514 133.044C186.433 133.112 186.341 133.163 186.24 133.195C186.14 133.227 186.035 133.239 185.93 133.23Z" fill="#F0F0F0"/>
<path d="M198.755 148.115C197.567 148.02 196.403 147.729 195.31 147.255C195.208 147.21 195.116 147.145 195.041 147.063C194.966 146.981 194.908 146.885 194.872 146.779C194.836 146.674 194.822 146.563 194.831 146.452C194.84 146.341 194.872 146.233 194.925 146.135C195.019 145.963 195.173 145.832 195.358 145.768C195.542 145.703 195.745 145.709 195.925 145.785C196.967 146.233 198.082 146.49 199.215 146.545C204.11 146.825 209.28 143.355 209.79 134.975C210.1 129.81 208.33 125.64 205.03 123.645C204.859 123.542 204.733 123.378 204.677 123.187C204.62 122.995 204.637 122.789 204.725 122.61C204.775 122.511 204.844 122.423 204.929 122.352C205.014 122.281 205.113 122.228 205.22 122.196C205.326 122.165 205.438 122.156 205.548 122.169C205.658 122.183 205.764 122.219 205.86 122.275C209.685 124.585 211.735 129.275 211.385 135.07C210.885 143.15 205.855 148.53 199.12 148.145L198.755 148.115Z" fill="#F0F0F0"/>
<path d="M191.635 143.13C191.543 143.192 191.439 143.235 191.33 143.255C191.221 143.276 191.108 143.274 191 143.249C190.892 143.224 190.79 143.177 190.7 143.111C190.611 143.045 190.536 142.961 190.48 142.865C188.998 140.109 188.347 136.983 188.605 133.865C189.075 126.13 193.71 120.865 200.005 120.775C200.116 120.773 200.226 120.793 200.329 120.836C200.431 120.878 200.524 120.941 200.601 121.021C200.678 121.101 200.737 121.196 200.776 121.3C200.815 121.403 200.831 121.514 200.825 121.625C200.813 121.825 200.726 122.013 200.581 122.152C200.437 122.291 200.245 122.37 200.045 122.375C195.375 122.465 190.685 125.995 190.205 133.96C189.962 136.775 190.543 139.599 191.875 142.09C191.975 142.263 192.006 142.467 191.962 142.662C191.917 142.857 191.8 143.028 191.635 143.14V143.13Z" fill="#F0F0F0"/>
<path d="M202.565 142.5C202.489 142.322 202.48 142.123 202.54 141.939C202.6 141.755 202.724 141.599 202.89 141.5C204.995 140.235 206.285 137.58 206.305 134.375C206.305 131.81 205.58 129.64 204.21 128.265C203.678 127.738 203.044 127.325 202.347 127.051C201.649 126.778 200.904 126.65 200.155 126.675C197.69 126.675 195.69 128.03 194.585 130.41C194.5 130.591 194.35 130.733 194.164 130.808C193.979 130.883 193.772 130.886 193.585 130.815C193.481 130.776 193.385 130.717 193.305 130.639C193.225 130.562 193.162 130.469 193.12 130.366C193.078 130.263 193.057 130.153 193.06 130.041C193.062 129.93 193.088 129.821 193.135 129.72C194.505 126.805 197.07 125.08 200.135 125.075C201.095 125.05 202.05 125.22 202.943 125.574C203.836 125.928 204.648 126.459 205.33 127.135C207.005 128.815 207.915 131.39 207.895 134.39C207.865 138.165 206.275 141.335 203.685 142.89C203.587 142.944 203.479 142.976 203.367 142.985C203.256 142.994 203.144 142.98 203.038 142.943C202.933 142.907 202.836 142.848 202.755 142.772C202.673 142.695 202.609 142.603 202.565 142.5Z" fill="#F0F0F0"/>
<path d="M196.805 136.595C196.698 136.639 196.583 136.658 196.468 136.653C196.353 136.648 196.24 136.618 196.137 136.566C196.035 136.513 195.945 136.439 195.874 136.348C195.803 136.257 195.752 136.152 195.725 136.04C195.67 135.825 195.63 135.6 195.595 135.37C195.14 132.37 196.75 129.775 199.335 129.31C199.937 129.179 200.561 129.191 201.158 129.345C201.754 129.498 202.306 129.79 202.77 130.195C202.857 130.272 202.925 130.368 202.97 130.476C203.015 130.583 203.035 130.699 203.029 130.816C203.023 130.932 202.99 131.045 202.934 131.147C202.878 131.249 202.8 131.337 202.705 131.405L202.655 131.44C202.505 131.544 202.324 131.594 202.142 131.58C201.96 131.566 201.788 131.49 201.655 131.365C201.375 131.128 201.043 130.96 200.686 130.873C200.33 130.786 199.958 130.784 199.6 130.865C197.63 131.22 196.88 133.27 197.16 135.11C197.19 135.29 197.22 135.465 197.265 135.61C197.313 135.798 197.292 135.998 197.204 136.171C197.117 136.345 196.97 136.481 196.79 136.555L196.805 136.595Z" fill="#F0F0F0"/>
<path d="M199.45 139.675C199.324 139.663 199.203 139.618 199.099 139.546C198.995 139.474 198.911 139.377 198.854 139.263C198.798 139.15 198.772 139.024 198.778 138.897C198.785 138.77 198.823 138.648 198.89 138.54L198.96 138.43C199.032 138.315 199.134 138.223 199.254 138.162C199.375 138.101 199.51 138.074 199.645 138.085C199.896 138.099 200.148 138.084 200.395 138.04C202.115 137.73 202.895 136.13 202.895 134.5C202.89 134.304 202.956 134.113 203.081 133.963C203.206 133.812 203.382 133.711 203.575 133.68C203.686 133.663 203.799 133.67 203.908 133.699C204.016 133.729 204.117 133.781 204.203 133.852C204.29 133.924 204.361 134.012 204.411 134.113C204.461 134.213 204.49 134.323 204.495 134.435C204.54 137.045 202.995 139.2 200.68 139.615C200.275 139.69 199.861 139.71 199.45 139.675Z" fill="#F0F0F0"/>
<path d="M199.805 136.72C199.401 136.686 199.018 136.526 198.71 136.264C198.401 136.001 198.183 135.648 198.085 135.255C198.057 135.144 198.055 135.028 198.081 134.916C198.107 134.805 198.159 134.701 198.232 134.613C198.306 134.526 198.4 134.457 198.505 134.413C198.611 134.369 198.726 134.351 198.84 134.36H199.025C199.165 134.375 199.298 134.43 199.407 134.519C199.516 134.607 199.597 134.726 199.64 134.86C199.657 134.93 199.696 134.992 199.751 135.039C199.805 135.085 199.873 135.114 199.945 135.12C200.33 135.155 200.395 134.62 200.405 134.49C200.428 134.295 200.391 134.098 200.3 133.925C200.162 133.758 200.091 133.546 200.1 133.33C200.113 133.171 200.172 133.02 200.272 132.895C200.371 132.77 200.505 132.678 200.657 132.63C200.809 132.583 200.972 132.581 201.125 132.627C201.278 132.672 201.414 132.762 201.515 132.885C201.905 133.378 202.085 134.005 202.015 134.63C201.885 135.945 200.96 136.82 199.805 136.72Z" fill="#F0F0F0"/>
<path d="M184.765 118.825C184.66 118.816 184.559 118.787 184.466 118.739C184.372 118.69 184.29 118.624 184.222 118.544C184.155 118.463 184.104 118.37 184.073 118.27C184.042 118.17 184.03 118.065 184.04 117.96L184.645 111.025L191.58 111.635C191.685 111.644 191.786 111.673 191.879 111.722C191.973 111.77 192.055 111.836 192.123 111.917C192.19 111.997 192.241 112.09 192.272 112.19C192.303 112.29 192.315 112.396 192.305 112.5C192.296 112.605 192.267 112.707 192.219 112.8C192.17 112.894 192.104 112.976 192.024 113.044C191.943 113.112 191.851 113.163 191.75 113.195C191.65 113.227 191.545 113.239 191.44 113.23L186.1 112.76L185.635 118.1C185.626 118.205 185.596 118.307 185.547 118.4C185.498 118.493 185.431 118.576 185.35 118.643C185.27 118.71 185.176 118.761 185.076 118.792C184.975 118.824 184.87 118.835 184.765 118.825Z" fill="#F0F0F0"/>
<path d="M217.73 121.71C217.625 121.701 217.524 121.672 217.431 121.623C217.337 121.575 217.255 121.509 217.187 121.428C217.12 121.348 217.069 121.255 217.038 121.155C217.007 121.055 216.995 120.949 217.005 120.845L217.47 115.505L212.13 115.04C212.025 115.031 211.923 115.001 211.83 114.952C211.737 114.903 211.654 114.836 211.587 114.755C211.52 114.675 211.469 114.581 211.438 114.481C211.406 114.38 211.395 114.275 211.405 114.17C211.414 114.065 211.443 113.964 211.491 113.871C211.54 113.777 211.606 113.695 211.686 113.627C211.767 113.56 211.86 113.509 211.96 113.478C212.06 113.447 212.165 113.435 212.27 113.445L219.205 114.05L218.6 121C218.577 121.209 218.473 121.4 218.31 121.533C218.148 121.666 217.939 121.73 217.73 121.71Z" fill="#F0F0F0"/>
<path d="M215.275 159L208.34 158.395C208.235 158.386 208.133 158.356 208.04 158.307C207.947 158.258 207.864 158.191 207.797 158.11C207.73 158.03 207.679 157.936 207.648 157.836C207.616 157.735 207.605 157.63 207.615 157.525C207.624 157.42 207.653 157.319 207.701 157.226C207.75 157.132 207.816 157.05 207.896 156.982C207.977 156.915 208.07 156.864 208.17 156.833C208.27 156.802 208.375 156.79 208.48 156.8L213.82 157.265L214.285 151.93C214.294 151.825 214.323 151.722 214.372 151.629C214.42 151.535 214.487 151.452 214.568 151.384C214.649 151.316 214.742 151.265 214.843 151.233C214.944 151.202 215.05 151.19 215.155 151.2C215.259 151.209 215.361 151.238 215.454 151.286C215.548 151.335 215.63 151.401 215.698 151.481C215.765 151.562 215.816 151.655 215.847 151.755C215.878 151.855 215.89 151.96 215.88 152.065L215.275 159Z" fill="#F0F0F0"/>
<path d="M187.65 156.57L180.715 155.96L181.32 149.03C181.34 148.819 181.443 148.624 181.606 148.487C181.768 148.35 181.978 148.283 182.19 148.3C182.295 148.309 182.397 148.339 182.49 148.388C182.583 148.437 182.666 148.504 182.733 148.585C182.8 148.665 182.851 148.759 182.882 148.859C182.914 148.96 182.925 149.065 182.915 149.17L182.45 154.5L187.785 154.97C187.89 154.979 187.992 155.008 188.085 155.056C188.179 155.105 188.262 155.171 188.329 155.251C188.397 155.332 188.448 155.424 188.48 155.525C188.512 155.625 188.524 155.73 188.515 155.835C188.497 156.047 188.396 156.243 188.234 156.381C188.072 156.519 187.862 156.587 187.65 156.57Z" fill="#F0F0F0"/>
<path d="M37.365 141.565C37.2347 141.575 37.1057 141.533 37.0057 141.449C36.9058 141.365 36.8427 141.245 36.83 141.115L36.46 136.855L40.72 136.48C40.8503 136.47 40.9792 136.512 41.0792 136.596C41.1792 136.68 41.2423 136.8 41.255 136.93C41.2634 137.059 41.2211 137.187 41.1372 137.286C41.0532 137.385 40.9341 137.447 40.805 137.46L37.525 137.75L37.81 141.03C37.8198 141.159 37.7789 141.288 37.6958 141.388C37.6127 141.487 37.4941 141.551 37.365 141.565Z" fill="#E0E0E0"/>
<path d="M57.6351 139.79C57.5055 139.8 57.3773 139.759 57.2774 139.676C57.1776 139.593 57.114 139.474 57.1001 139.345L56.8151 136.06L53.5301 136.35C53.3998 136.36 53.2708 136.318 53.1708 136.234C53.0708 136.15 53.0078 136.03 52.9951 135.9C52.9853 135.77 53.0269 135.641 53.111 135.541C53.1951 135.441 53.315 135.378 53.4451 135.365L57.7051 134.995L58.0801 139.255C58.0899 139.385 58.049 139.513 57.9659 139.613C57.8828 139.712 57.7642 139.776 57.6351 139.79Z" fill="#E0E0E0"/>
<path d="M59.735 158.145L55.47 158.52C55.3397 158.53 55.2108 158.488 55.1108 158.404C55.0108 158.32 54.9477 158.2 54.935 158.07C54.9252 157.94 54.9668 157.811 55.051 157.711C55.1351 157.611 55.255 157.548 55.385 157.535L58.665 157.25L58.38 153.97C58.3702 153.841 58.4111 153.712 58.4942 153.612C58.5772 153.513 58.6959 153.449 58.825 153.435C58.9545 153.425 59.0828 153.466 59.1826 153.549C59.2825 153.632 59.3461 153.751 59.36 153.88L59.735 158.145Z" fill="#E0E0E0"/>
<path d="M42.7451 159.63L38.5001 160L38.1251 155.735C38.1167 155.606 38.1589 155.478 38.2429 155.379C38.3268 155.28 38.446 155.218 38.5751 155.205C38.7038 155.197 38.8307 155.238 38.9295 155.321C39.0283 155.404 39.0912 155.522 39.1051 155.65L39.3951 158.935L42.6751 158.645C42.8054 158.635 42.9343 158.677 43.0343 158.761C43.1343 158.845 43.1974 158.965 43.2101 159.095C43.2148 159.161 43.2066 159.227 43.1858 159.289C43.1649 159.352 43.132 159.409 43.0888 159.459C43.0456 159.509 42.9929 159.55 42.934 159.579C42.875 159.608 42.8108 159.626 42.7451 159.63Z" fill="#E0E0E0"/>
<path d="M57.2901 70.5L41.0001 71.9L40.6651 68.085C40.6406 66.2642 41.3055 64.5015 42.5264 63.1505C43.7472 61.7995 45.4338 60.9601 47.2477 60.8007C49.0616 60.6412 50.8688 61.1736 52.3066 62.2909C53.7444 63.4082 54.7066 65.0279 55.0001 66.825L55.1901 69.045L57.5451 68.84L57.3501 66.62C57.2405 65.3678 56.8853 64.1495 56.3048 63.0347C55.7243 61.9198 54.9299 60.9302 53.9669 60.1223C53.004 59.3144 51.8914 58.7041 50.6926 58.3262C49.4938 57.9484 48.2323 57.8103 46.9801 57.92C44.4513 58.1414 42.114 59.3584 40.4824 61.3031C39.6746 62.2661 39.0643 63.3787 38.6864 64.5775C38.3085 65.7763 38.1705 67.0378 38.2801 68.29L38.6151 72.13C37.6875 72.3115 36.8598 72.8297 36.2913 73.5847C35.7227 74.3397 35.4534 75.2783 35.5351 76.22L36.7001 89.54C36.7417 90.0427 36.8821 90.5323 37.1134 90.9806C37.3447 91.4289 37.6623 91.827 38.0479 92.1523C38.4335 92.4775 38.8796 92.7233 39.3604 92.8757C39.8413 93.028 40.3476 93.0838 40.8501 93.04L59.1151 91.445C59.6178 91.4034 60.1074 91.263 60.5557 91.0317C61.004 90.8004 61.4022 90.4828 61.7274 90.0972C62.0526 89.7116 62.2985 89.2655 62.4508 88.7846C62.6031 88.3038 62.659 87.7975 62.6151 87.295L61.4501 73.975C61.4055 73.4735 61.2625 72.9858 61.0292 72.5397C60.7959 72.0935 60.4769 71.6978 60.0906 71.375C59.7042 71.0523 59.258 70.8088 58.7775 70.6587C58.2969 70.5086 57.7915 70.4546 57.2901 70.5ZM50.3601 80.765L50.7601 85.35C50.787 85.5345 50.776 85.7226 50.7277 85.9027C50.6794 86.0828 50.5948 86.2512 50.4791 86.3975C50.3634 86.5437 50.2191 86.6649 50.055 86.7534C49.8909 86.842 49.7104 86.8961 49.5247 86.9125C49.3389 86.9288 49.1517 86.9071 48.9747 86.8486C48.7976 86.7901 48.6343 86.696 48.4949 86.5722C48.3554 86.4484 48.2427 86.2974 48.1637 86.1285C48.0846 85.9596 48.0409 85.7764 48.0351 85.59L47.6351 81C47.2226 80.7467 46.9006 80.3697 46.7148 79.9227C46.5291 79.4757 46.4891 78.9815 46.6005 78.5104C46.712 78.0394 46.9692 77.6155 47.3356 77.2992C47.702 76.9828 48.1588 76.7901 48.6411 76.7486C49.1234 76.707 49.6065 76.8186 50.0216 77.0675C50.4367 77.3165 50.7627 77.6901 50.9532 78.1351C51.1437 78.5801 51.1889 79.0738 51.0824 79.546C50.9759 80.0182 50.7231 80.4448 50.3601 80.765Z" fill="#EBEBEB"/>
<path d="M85.22 78.195L83.575 75.5C82.7459 75.6181 81.9042 75.6181 81.075 75.5L79.425 78.185L79.11 78.1C78.0408 77.8183 77.0147 77.3928 76.06 76.835L75.78 76.675L76.475 73.755C76.4885 73.6984 76.5131 73.645 76.5473 73.5979C76.5816 73.5508 76.6249 73.511 76.6746 73.4808C76.7244 73.4506 76.7797 73.4305 76.8372 73.4218C76.8948 73.4131 76.9535 73.4159 77.01 73.43C77.1233 73.4573 77.2212 73.5284 77.2821 73.6278C77.3431 73.7272 77.3621 73.8466 77.335 73.96L76.785 76.235C77.4955 76.6221 78.2446 76.9338 79.02 77.165L80.63 74.535L80.925 74.585C81.859 74.7351 82.811 74.7351 83.745 74.585L84.035 74.535L85.645 77.165C86.421 76.9356 87.1703 76.6238 87.88 76.235L87.165 73.235L87.405 73.06C88.0563 72.5903 88.6401 72.0334 89.14 71.405C89.2095 71.3145 89.3114 71.2545 89.4243 71.2377C89.5372 71.2209 89.6522 71.2486 89.745 71.315C89.7936 71.3488 89.8349 71.3921 89.8662 71.4423C89.8975 71.4925 89.9182 71.5486 89.9271 71.6071C89.936 71.6656 89.9329 71.7253 89.9179 71.7825C89.9029 71.8398 89.8764 71.8934 89.84 71.94C89.3487 72.5605 88.7828 73.118 88.155 73.6L88.89 76.665L88.605 76.825C87.6516 77.3819 86.6273 77.8074 85.56 78.09L85.22 78.195ZM75.11 72.325C74.975 72.17 74.84 72.005 74.71 71.825L71.645 72.56L71.48 72.28C70.9264 71.3232 70.5011 70.2978 70.215 69.23L70.135 68.915L72.82 67.265C72.7019 66.4359 72.7019 65.5942 72.82 64.765L70.135 63.12L70.215 62.8C70.5011 61.7339 70.9264 60.7101 71.48 59.755L71.645 59.47L74.71 60.205C75.2218 59.5354 75.8203 58.9368 76.49 58.425L75.935 56.105C75.9079 55.9916 75.9269 55.8722 75.9879 55.7728C76.0488 55.6734 76.1467 55.6023 76.26 55.575C76.3158 55.5617 76.3737 55.5595 76.4304 55.5686C76.4871 55.5778 76.5414 55.598 76.5902 55.6282C76.639 55.6584 76.6813 55.698 76.7148 55.7447C76.7482 55.7913 76.7721 55.8441 76.785 55.9L77.48 58.79L77.24 58.96C76.4697 59.5143 75.7943 60.1897 75.24 60.96L75.065 61.2L72.065 60.485C71.6762 61.1947 71.3644 61.944 71.135 62.72L73.76 64.33L73.715 64.62C73.548 65.5526 73.548 66.5074 73.715 67.44L73.76 67.735L71.135 69.345C71.3653 70.1191 71.6771 70.8666 72.065 71.575L75.065 70.86L75.24 71.1C75.3954 71.3267 75.5623 71.5453 75.74 71.755C75.817 71.8359 75.86 71.9433 75.86 72.055C75.86 72.1667 75.817 72.2741 75.74 72.355C75.6974 72.3958 75.6469 72.4275 75.5916 72.4482C75.5364 72.4688 75.4775 72.478 75.4186 72.4752C75.3596 72.4724 75.3019 72.4577 75.2488 72.4318C75.1958 72.406 75.1486 72.3697 75.11 72.325ZM92.98 72.57L91.85 72.3C91.7367 72.2727 91.6388 72.2016 91.5779 72.1022C91.5169 72.0029 91.4979 71.8834 91.525 71.77C91.5523 71.6567 91.6234 71.5588 91.7228 71.4979C91.8221 71.437 91.9416 71.4179 92.055 71.445L92.555 71.56C92.9413 70.8515 93.2514 70.104 93.48 69.33L90.855 67.72L90.905 67.425C91.072 66.4924 91.072 65.5376 90.905 64.605L90.855 64.315L93.48 62.705C93.2523 61.9291 92.9422 61.1799 92.555 60.47L89.555 61.185L89.385 60.945C88.8294 60.1758 88.1542 59.5006 87.385 58.945L87.145 58.775L87.86 55.775C87.1502 55.3878 86.4009 55.0777 85.625 54.85L84 57.5L83.71 57.45C82.776 57.3 81.824 57.3 80.89 57.45L80.595 57.5L79 54.86L78.7 54.95C78.5932 54.9852 78.4769 54.9772 78.376 54.9277C78.275 54.8781 78.1975 54.791 78.16 54.685C78.1394 54.6302 78.1299 54.5719 78.132 54.5134C78.1342 54.4549 78.1481 54.3974 78.1727 54.3443C78.1974 54.2913 78.2324 54.2436 78.2758 54.2043C78.3191 54.1649 78.3698 54.1345 78.425 54.115C78.645 54.045 78.87 53.98 79.09 53.92L79.405 53.835L81.055 56.525C81.8838 56.4018 82.7262 56.4018 83.555 56.525L85.2 53.835L85.52 53.92C86.5866 54.2048 87.6106 54.6302 88.565 55.185L88.85 55.35L88.115 58.415C88.7857 58.9256 89.3844 59.5244 89.895 60.195L92.96 59.46L93.125 59.745C93.6807 60.699 94.1061 61.7231 94.39 62.79L94.475 63.11L91.785 64.755C91.9096 65.5837 91.9096 66.4263 91.785 67.255L94.475 68.905L94.39 69.22C94.1061 70.2885 93.6807 71.3143 93.125 72.27L92.98 72.57ZM82.19 70.3C81.1005 70.2569 80.0673 69.8047 79.2963 69.0337C78.5253 68.2627 78.0732 67.2295 78.03 66.14C78.0003 65.0684 78.3728 64.0245 79.0742 63.2139C79.7757 62.4032 80.7553 61.8846 81.82 61.76C81.8825 61.7522 81.9459 61.7578 82.006 61.7763C82.0662 61.7949 82.1217 61.826 82.169 61.8675C82.2162 61.9091 82.2541 61.9603 82.2802 62.0176C82.3062 62.0749 82.3198 62.1371 82.32 62.2C82.3195 62.3064 82.28 62.4088 82.2091 62.4881C82.1382 62.5673 82.0406 62.6178 81.935 62.63C81.1941 62.7145 80.5014 63.0399 79.9633 63.5562C79.4252 64.0726 79.0715 64.7512 78.9566 65.4881C78.8416 66.2249 78.9716 66.9791 79.3268 67.6348C79.682 68.2905 80.2426 68.8115 80.9225 69.1177C81.6025 69.424 82.3641 69.4985 83.0906 69.3299C83.817 69.1614 84.468 68.759 84.9436 68.1846C85.4191 67.6102 85.693 66.8955 85.7231 66.1504C85.7531 65.4053 85.5378 64.6709 85.11 64.06C85.0483 63.9735 85.0212 63.8669 85.0342 63.7614C85.0471 63.6559 85.0992 63.5591 85.18 63.49C85.2267 63.4486 85.2816 63.4175 85.3412 63.3989C85.4008 63.3804 85.4636 63.3747 85.5256 63.3822C85.5875 63.3898 85.6471 63.4105 85.7005 63.4428C85.7538 63.4752 85.7997 63.5186 85.835 63.57C86.2898 64.2207 86.5547 64.9851 86.6 65.7777C86.6454 66.5703 86.4694 67.3599 86.0917 68.0582C85.714 68.7565 85.1495 69.336 84.4614 69.7319C83.7732 70.1278 82.9885 70.3245 82.195 70.3H82.19Z" fill="#F0F0F0"/>
<path d="M54.1549 114.795L53.0899 113.06C52.5512 113.14 52.0036 113.14 51.4649 113.06L50.3999 114.795L50.1949 114.74C49.5047 114.558 48.8421 114.284 48.2249 113.925L48.0449 113.82L48.4949 111.93C48.5127 111.857 48.5583 111.795 48.6219 111.755C48.6855 111.716 48.762 111.703 48.8349 111.72C48.8714 111.729 48.9058 111.745 48.9361 111.767C48.9664 111.789 48.9921 111.817 49.0116 111.849C49.0311 111.881 49.0441 111.917 49.0498 111.954C49.0555 111.991 49.0539 112.029 49.0449 112.065L48.6949 113.535C49.1536 113.786 49.6381 113.987 50.1399 114.135L51.1799 112.44L51.3649 112.47C51.9691 112.57 52.5857 112.57 53.1899 112.47L53.3749 112.44L54.4199 114.135C54.919 113.984 55.4015 113.783 55.8599 113.535L55.3999 111.605L55.5549 111.49C55.9753 111.188 56.3521 110.83 56.6749 110.425C56.7188 110.366 56.7845 110.326 56.8575 110.315C56.9306 110.303 57.0051 110.321 57.0649 110.365C57.0956 110.387 57.1217 110.415 57.1416 110.447C57.1615 110.479 57.1749 110.514 57.1809 110.551C57.1869 110.589 57.1855 110.627 57.1768 110.663C57.168 110.7 57.1521 110.735 57.1299 110.765C56.8114 111.166 56.4454 111.527 56.0399 111.84L56.5399 113.84L56.3549 113.945C55.7382 114.305 55.0754 114.579 54.3849 114.76L54.1549 114.795ZM47.6249 111L47.3649 110.685L45.3649 111.155L45.2599 110.975C44.9077 110.355 44.6403 109.691 44.4649 109L44.4099 108.795L46.1449 107.73C46.0649 107.191 46.0649 106.644 46.1449 106.105L44.4099 105.04L44.4649 104.835C44.6461 104.144 44.9203 103.482 45.2799 102.865L45.3849 102.68L47.3849 103.18C47.7065 102.742 48.081 102.346 48.4999 102L48.1449 100.5C48.136 100.464 48.1344 100.426 48.1402 100.39C48.146 100.353 48.159 100.318 48.1786 100.286C48.1981 100.254 48.2238 100.227 48.2541 100.205C48.2843 100.184 48.3186 100.168 48.3549 100.16C48.4278 100.143 48.5043 100.156 48.5679 100.195C48.6315 100.235 48.6771 100.297 48.6949 100.37L49.1449 102.235L48.9849 102.35C48.4894 102.705 48.0554 103.139 47.6999 103.635L47.5849 103.79L45.6549 103.33C45.4066 103.788 45.2056 104.271 45.0549 104.77L46.7499 105.81L46.7199 106C46.6684 106.301 46.6416 106.605 46.6399 106.91C46.6416 107.217 46.6683 107.523 46.7199 107.825L46.7499 108.01L45.0549 109.05C45.2046 109.551 45.4057 110.035 45.6549 110.495L47.5849 110.03L47.6999 110.185C47.8032 110.333 47.9151 110.475 48.0349 110.61C48.0841 110.662 48.1116 110.731 48.1116 110.802C48.1116 110.874 48.0841 110.943 48.0349 110.995C48.0091 111.023 47.9776 111.046 47.9425 111.062C47.9074 111.078 47.8695 111.086 47.831 111.087C47.7925 111.087 47.7544 111.08 47.7189 111.065C47.6835 111.05 47.6515 111.028 47.6249 111ZM59.1699 111.155L58.4399 110.985C58.4034 110.976 58.369 110.96 58.3387 110.938C58.3084 110.916 58.2828 110.888 58.2633 110.856C58.2437 110.824 58.2308 110.788 58.225 110.751C58.2193 110.714 58.221 110.676 58.2299 110.64C58.2381 110.604 58.2535 110.569 58.2751 110.539C58.2968 110.509 58.3242 110.483 58.3559 110.464C58.3875 110.444 58.4227 110.431 58.4595 110.425C58.4962 110.419 58.5338 110.421 58.5699 110.43L58.8849 110.505C59.1362 110.046 59.3374 109.562 59.4849 109.06L57.7899 108.02L57.8199 107.835C57.8715 107.533 57.8983 107.227 57.8999 106.92C57.8982 106.615 57.8715 106.311 57.8199 106.01L57.7899 105.82L59.4849 104.78C59.3364 104.28 59.1353 103.797 58.8849 103.34L56.9549 103.8L56.8399 103.645C56.4845 103.149 56.0504 102.715 55.5549 102.36L55.3999 102.245L55.8599 100.315C55.4025 100.065 54.9198 99.8635 54.4199 99.715L53.3749 101.41L53.1899 101.38C52.5857 101.28 51.9691 101.28 51.3649 101.38L51.1799 101.41L50.1399 99.715L49.9449 99.775C49.8753 99.7973 49.7997 99.7915 49.7343 99.7588C49.6689 99.7261 49.6188 99.6691 49.5949 99.6C49.5814 99.5649 49.5752 99.5275 49.5765 99.4899C49.5778 99.4524 49.5866 99.4155 49.6025 99.3814C49.6184 99.3474 49.6409 99.3169 49.6688 99.2917C49.6967 99.2665 49.7294 99.2473 49.7649 99.235L50.1949 99.105L50.3999 99.055L51.4649 100.79C52.0036 100.71 52.5512 100.71 53.0899 100.79L54.1549 99.055L54.3599 99.105C55.0499 99.2901 55.7123 99.5659 56.3299 99.925L56.5149 100.03L56.0149 102.03C56.4454 102.363 56.8319 102.749 57.1649 103.18L59.1649 102.68L59.2699 102.865C59.6295 103.482 59.9037 104.144 60.0849 104.835L60.1399 105.04L58.4049 106.105C58.4849 106.644 58.4849 107.191 58.4049 107.73L60.1399 108.795L60.0849 109C59.9028 109.69 59.6287 110.353 59.2699 110.97L59.1699 111.155ZM52.1999 109.69C51.5205 109.643 50.8821 109.348 50.4066 108.861C49.931 108.373 49.6518 107.728 49.6221 107.047C49.5924 106.367 49.8144 105.699 50.2456 105.172C50.6769 104.645 51.2871 104.296 51.9599 104.19C52 104.186 52.0406 104.19 52.0789 104.202C52.1173 104.215 52.1527 104.235 52.1828 104.262C52.2129 104.289 52.2371 104.321 52.2538 104.358C52.2705 104.395 52.2794 104.435 52.2799 104.475C52.2803 104.544 52.255 104.611 52.2088 104.663C52.1626 104.715 52.0989 104.748 52.0299 104.755C51.6082 104.803 51.2094 104.972 50.8817 105.242C50.5539 105.512 50.3113 105.871 50.1829 106.275C50.0545 106.68 50.046 107.113 50.1582 107.523C50.2705 107.932 50.4988 108.3 50.8156 108.583C51.1324 108.865 51.5242 109.05 51.9437 109.115C52.3632 109.18 52.7925 109.122 53.1798 108.948C53.5672 108.775 53.896 108.493 54.1267 108.136C54.3574 107.78 54.4801 107.364 54.4799 106.94C54.4809 106.489 54.341 106.048 54.0799 105.68C54.0417 105.623 54.0253 105.555 54.0335 105.487C54.0418 105.419 54.0742 105.356 54.1249 105.31C54.155 105.283 54.1906 105.263 54.2292 105.25C54.2677 105.238 54.3085 105.234 54.3487 105.239C54.3889 105.244 54.4277 105.257 54.4624 105.278C54.4971 105.299 54.5269 105.327 54.5499 105.36C54.8423 105.781 55.0124 106.274 55.0411 106.786C55.0698 107.297 54.9561 107.807 54.7125 108.258C54.469 108.708 54.1052 109.083 53.6617 109.339C53.2181 109.596 52.7121 109.724 52.1999 109.71V109.69Z" fill="#E6E6E6"/>
<path d="M125 213.505C178.541 213.505 221.945 210.971 221.945 207.845C221.945 204.719 178.541 202.185 125 202.185C71.4587 202.185 28.0549 204.719 28.0549 207.845C28.0549 210.971 71.4587 213.505 125 213.505Z" fill="#F5F5F5"/>
<path d="M181.725 72.915H165.445L153.945 204.54H170.225C172.51 204.496 174.7 203.617 176.382 202.07C178.063 200.523 179.121 198.413 179.355 196.14L189.4 81.31C189.517 80.2401 189.404 79.1576 189.07 78.1347C188.735 77.1117 188.187 76.1717 187.46 75.3774C186.734 74.5831 185.847 73.9526 184.858 73.528C183.869 73.1034 182.801 72.8945 181.725 72.915Z" fill="#4628F1"/>
<path d="M178.405 72.9149H123.305C121.02 72.9577 118.83 73.8351 117.147 75.3815C115.464 76.9279 114.405 79.0366 114.17 81.3099L104.125 196.14C104.009 197.209 104.122 198.291 104.456 199.313C104.791 200.335 105.338 201.274 106.063 202.069C106.788 202.863 107.673 203.494 108.661 203.92C109.648 204.346 110.715 204.557 111.79 204.54H166.885C169.167 204.491 171.353 203.611 173.031 202.064C174.71 200.517 175.765 198.41 176 196.14L186.045 81.3099C186.161 80.243 186.05 79.1635 185.717 78.1431C185.385 77.1226 184.839 76.1844 184.117 75.3906C183.395 74.5969 182.512 73.9657 181.527 73.5389C180.542 73.1121 179.478 72.8994 178.405 72.9149Z" fill="#4628F1"/>
<path opacity="0.3" d="M178.405 72.9149H123.305C121.02 72.9577 118.83 73.8351 117.147 75.3815C115.464 76.9279 114.405 79.0366 114.17 81.3099L104.125 196.14C104.009 197.209 104.122 198.291 104.456 199.313C104.791 200.335 105.338 201.274 106.063 202.069C106.788 202.863 107.673 203.494 108.661 203.92C109.648 204.346 110.715 204.557 111.79 204.54H166.885C169.167 204.491 171.353 203.611 173.031 202.064C174.71 200.517 175.765 198.41 176 196.14L186.045 81.3099C186.161 80.243 186.05 79.1635 185.717 78.1431C185.385 77.1226 184.839 76.1844 184.117 75.3906C183.395 74.5969 182.512 73.9657 181.527 73.5389C180.542 73.1121 179.478 72.8994 178.405 72.9149Z" fill="white"/>
<path opacity="0.4" d="M178.17 75.605H163.64C163.207 75.6086 162.785 75.742 162.428 75.988C162.072 76.234 161.797 76.5813 161.64 76.985C161.067 78.4679 160.065 79.7465 158.762 80.6575C157.459 81.5686 155.915 82.0708 154.325 82.1H145.755C144.258 82.1302 142.797 81.6374 141.625 80.7065C140.452 79.7756 139.64 78.4648 139.33 77C139.247 76.6037 139.029 76.2488 138.712 75.9968C138.395 75.7447 138 75.6115 137.595 75.62H123.07C121.517 75.6475 120.028 76.2432 118.885 77.2945C117.741 78.3458 117.023 79.7797 116.865 81.325L106.815 196.155C106.735 196.882 106.81 197.618 107.037 198.314C107.263 199.009 107.635 199.648 108.128 200.189C108.621 200.729 109.224 201.158 109.896 201.447C110.568 201.736 111.294 201.879 112.025 201.865H167.125C168.679 201.836 170.168 201.24 171.311 200.187C172.454 199.135 173.173 197.701 173.33 196.155L183.375 81.325C183.457 80.5976 183.383 79.8611 183.157 79.1646C182.932 78.4682 182.56 77.8279 182.068 77.2865C181.575 76.745 180.973 76.315 180.3 76.025C179.628 75.7351 178.902 75.5919 178.17 75.605Z" fill="white"/>
<path d="M164.44 138H125.88C125.615 138.004 125.352 137.952 125.109 137.847C124.865 137.742 124.647 137.587 124.468 137.391C124.29 137.195 124.154 136.964 124.072 136.712C123.99 136.46 123.962 136.194 123.99 135.93L124.185 133.72C124.242 133.16 124.503 132.64 124.917 132.258C125.332 131.877 125.872 131.661 126.435 131.65H165C165.265 131.646 165.528 131.698 165.771 131.803C166.015 131.908 166.233 132.063 166.412 132.259C166.59 132.455 166.726 132.686 166.808 132.938C166.89 133.19 166.918 133.457 166.89 133.72L166.7 135.93C166.641 136.492 166.379 137.012 165.963 137.394C165.546 137.775 165.005 137.991 164.44 138Z" fill="white"/>
<path d="M163.61 147.5H125.045C124.78 147.504 124.517 147.452 124.274 147.347C124.031 147.242 123.813 147.087 123.635 146.891C123.456 146.695 123.322 146.464 123.24 146.212C123.158 145.96 123.131 145.693 123.16 145.43L123.35 143.22C123.408 142.66 123.669 142.141 124.084 141.76C124.498 141.378 125.037 141.162 125.6 141.15H164.165C164.43 141.146 164.693 141.198 164.936 141.303C165.18 141.408 165.398 141.563 165.577 141.759C165.755 141.955 165.891 142.186 165.973 142.438C166.055 142.69 166.083 142.957 166.055 143.22L165.86 145.43C165.802 145.99 165.541 146.509 165.126 146.891C164.712 147.272 164.173 147.488 163.61 147.5Z" fill="white"/>
<path opacity="0.1" d="M152.725 77.755C152.661 78.3772 152.372 78.9545 151.911 79.3775C151.45 79.8005 150.85 80.0398 150.225 80.05C149.931 80.0553 149.639 79.9979 149.369 79.8817C149.099 79.7655 148.857 79.593 148.659 79.3759C148.461 79.1588 148.311 78.9019 148.22 78.6224C148.129 78.3429 148.098 78.0472 148.13 77.755C148.194 77.1328 148.483 76.5555 148.944 76.1325C149.405 75.7095 150.005 75.4702 150.63 75.46C150.924 75.4547 151.216 75.5121 151.486 75.6283C151.756 75.7445 151.998 75.917 152.196 76.1341C152.394 76.3512 152.544 76.6081 152.635 76.8876C152.726 77.167 152.757 77.4627 152.725 77.755Z" fill="black"/>
<path opacity="0.1" d="M151.685 77.755C151.65 78.0947 151.492 78.4097 151.24 78.6409C150.989 78.872 150.662 79.0033 150.32 79.01C150.159 79.0131 150 78.9819 149.852 78.9184C149.704 78.8549 149.572 78.7606 149.463 78.6418C149.355 78.523 149.273 78.3825 149.224 78.2295C149.174 78.0766 149.157 77.9148 149.175 77.755C149.209 77.4149 149.367 77.0992 149.619 76.8679C149.871 76.6365 150.198 76.5056 150.54 76.5C150.701 76.4977 150.86 76.5295 151.007 76.5932C151.155 76.657 151.287 76.7513 151.395 76.8699C151.503 76.9885 151.585 77.1287 151.635 77.2813C151.685 77.4339 151.702 77.5953 151.685 77.755Z" fill="black"/>
<g opacity="0.8">
<path d="M171.385 81.5851C171.299 81.5863 171.213 81.5691 171.134 81.5348C171.055 81.5005 170.984 81.4497 170.926 81.3859C170.868 81.3221 170.824 81.2467 170.797 81.1647C170.77 81.0827 170.761 80.9959 170.77 80.9101L170.88 79.6801C170.898 79.4983 170.983 79.3296 171.118 79.2061C171.252 79.0826 171.427 79.0128 171.61 79.0101C171.696 79.0089 171.781 79.0259 171.86 79.06C171.939 79.094 172.009 79.1443 172.067 79.2075C172.125 79.2707 172.17 79.3455 172.197 79.427C172.224 79.5084 172.234 79.5946 172.225 79.6801L172.115 80.9101C172.097 81.0923 172.012 81.2616 171.878 81.3859C171.744 81.5102 171.568 81.5811 171.385 81.5851Z" fill="white"/>
<path d="M176.765 81.585C176.679 81.5862 176.593 81.5691 176.514 81.5348C176.435 81.5005 176.364 81.4497 176.306 81.3859C176.247 81.3221 176.204 81.2467 176.177 81.1647C176.15 81.0826 176.141 80.9958 176.15 80.91L176.405 78.025C176.423 77.8433 176.508 77.6746 176.642 77.5511C176.777 77.4276 176.952 77.3578 177.135 77.355C177.221 77.3539 177.306 77.3709 177.385 77.4049C177.464 77.439 177.534 77.4892 177.592 77.5525C177.65 77.6157 177.694 77.6905 177.722 77.7719C177.749 77.8534 177.758 77.9396 177.75 78.025L177.495 80.91C177.477 81.0923 177.392 81.2615 177.258 81.3859C177.123 81.5102 176.948 81.5811 176.765 81.585Z" fill="white"/>
<path d="M174.075 81.585C173.989 81.5862 173.903 81.5691 173.824 81.5348C173.745 81.5004 173.674 81.4497 173.616 81.3859C173.558 81.3221 173.514 81.2467 173.487 81.1646C173.46 81.0826 173.451 80.9958 173.46 80.91L173.64 78.855C173.658 78.6719 173.743 78.502 173.879 78.3775C174.014 78.2531 174.191 78.1828 174.375 78.18C174.461 78.1787 174.547 78.1958 174.626 78.2302C174.704 78.2646 174.775 78.3154 174.833 78.3793C174.891 78.4432 174.934 78.5187 174.96 78.6007C174.987 78.6828 174.995 78.7695 174.985 78.855L174.805 80.91C174.787 81.0922 174.702 81.2615 174.568 81.3858C174.433 81.5102 174.258 81.581 174.075 81.585Z" fill="white"/>
</g>
<g opacity="0.8">
<path d="M125.32 81.585H121.94C121.892 81.5861 121.843 81.5767 121.798 81.5575C121.754 81.5383 121.714 81.5097 121.681 81.4737C121.648 81.4376 121.624 81.395 121.609 81.3487C121.594 81.3023 121.589 81.2533 121.595 81.205L121.75 79.39C121.761 79.287 121.809 79.1915 121.886 79.1215C121.962 79.0515 122.062 79.0119 122.165 79.01H125.545C125.594 79.009 125.642 79.0184 125.687 79.0376C125.731 79.0568 125.772 79.0854 125.804 79.1214C125.837 79.1574 125.862 79.2 125.876 79.2464C125.891 79.2927 125.896 79.3417 125.89 79.39L125.73 81.205C125.721 81.3081 125.675 81.4041 125.599 81.4744C125.523 81.5447 125.424 81.5841 125.32 81.585Z" fill="white"/>
<path d="M126.885 81.09C126.836 81.091 126.788 81.0816 126.743 81.0624C126.698 81.0432 126.658 81.0147 126.625 80.9788C126.592 80.9429 126.567 80.9004 126.551 80.854C126.536 80.8077 126.53 80.7586 126.535 80.71L126.61 79.88C126.62 79.7766 126.668 79.6804 126.745 79.6102C126.821 79.5401 126.921 79.5008 127.025 79.5C127.074 79.499 127.122 79.5084 127.167 79.5276C127.212 79.5468 127.252 79.5754 127.284 79.6114C127.317 79.6474 127.342 79.69 127.356 79.7364C127.371 79.7827 127.376 79.8317 127.37 79.88L127.3 80.71C127.289 80.8131 127.241 80.9086 127.165 80.9785C127.088 81.0485 126.989 81.0882 126.885 81.09Z" fill="white"/>
</g>
<path d="M158.086 123.465C164.815 117.024 165.486 106.806 159.585 100.642C153.685 94.4787 143.447 94.7034 136.719 101.144C129.99 107.585 129.319 117.803 135.22 123.967C141.12 130.131 151.358 129.906 158.086 123.465Z" fill="white"/>
<path d="M147.46 111.69C143.22 111.69 139.635 113.305 139.33 116.81L138.99 120.705H154.355L154.695 116.81C155 113.305 151.705 111.69 147.46 111.69Z" fill="#4628F1"/>
<path d="M147.6 110.085C149.57 110.085 150.48 108.49 150.65 106.52C150.82 104.55 150.195 102.955 148.225 102.955C146.255 102.955 145.35 104.555 145.175 106.52C145 108.485 145.63 110.085 147.6 110.085Z" fill="#4628F1"/>
<path d="M162.68 134.69C161.635 134.69 160.75 135.09 160.68 135.955L160.595 136.92H164.39L164.475 135.955C164.545 135.09 163.73 134.69 162.68 134.69Z" fill="#4628F1"/>
<path d="M162.715 134.295C163.215 134.295 163.425 133.9 163.47 133.415C163.515 132.93 163.355 132.535 162.87 132.535C162.385 132.535 162.16 132.93 162.115 133.415C162.07 133.9 162.23 134.295 162.715 134.295Z" fill="#4628F1"/>
<path d="M151 157H136C135.593 157.007 135.19 156.928 134.816 156.767C134.442 156.607 134.107 156.368 133.833 156.068C133.559 155.767 133.351 155.412 133.225 155.025C133.099 154.639 133.056 154.229 133.1 153.825C133.189 152.965 133.59 152.168 134.226 151.583C134.862 150.998 135.691 150.666 136.555 150.65H151.555C151.962 150.643 152.365 150.723 152.738 150.884C153.111 151.045 153.446 151.284 153.721 151.584C153.995 151.884 154.202 152.239 154.329 152.626C154.455 153.012 154.498 153.421 154.455 153.825C154.367 154.685 153.967 155.483 153.33 156.068C152.694 156.654 151.865 156.985 151 157Z" fill="#4628F1"/>
<path d="M149.185 192.41H133.13C132.699 192.422 132.271 192.34 131.875 192.172C131.478 192.003 131.123 191.751 130.832 191.433C130.542 191.114 130.324 190.737 130.192 190.327C130.06 189.917 130.019 189.483 130.07 189.055L131.095 177.345C131.187 176.437 131.608 175.593 132.28 174.975C132.952 174.357 133.827 174.006 134.74 173.99H150.8C151.23 173.982 151.656 174.067 152.05 174.237C152.445 174.407 152.799 174.659 153.088 174.976C153.378 175.293 153.596 175.669 153.729 176.077C153.862 176.486 153.907 176.918 153.86 177.345L152.835 189.055C152.741 189.963 152.318 190.806 151.646 191.424C150.973 192.042 150.098 192.393 149.185 192.41Z" fill="#4628F1"/>
<g opacity="0.6">
<path d="M144.235 180.3C144.261 180.044 144.233 179.786 144.152 179.542C144.071 179.299 143.939 179.075 143.765 178.886C143.591 178.697 143.379 178.547 143.143 178.446C142.907 178.345 142.652 178.295 142.395 178.3C141.848 178.308 141.323 178.516 140.919 178.884C140.514 179.252 140.259 179.756 140.2 180.3C140.168 180.604 140.213 180.912 140.331 181.194C140.449 181.476 140.636 181.724 140.875 181.915L140.525 185.95C140.508 186.103 140.524 186.258 140.571 186.404C140.619 186.55 140.697 186.685 140.801 186.798C140.904 186.912 141.031 187.002 141.172 187.063C141.314 187.123 141.466 187.153 141.62 187.15C141.946 187.143 142.258 187.017 142.497 186.796C142.737 186.575 142.887 186.274 142.92 185.95L143.275 181.915C143.543 181.732 143.768 181.492 143.933 181.214C144.099 180.935 144.202 180.623 144.235 180.3Z" fill="white"/>
</g>
<path d="M150.94 176.43H148.87L149.37 170.635C149.457 169.831 149.373 169.017 149.121 168.248C148.87 167.479 148.458 166.772 147.913 166.175C147.368 165.577 146.702 165.102 145.959 164.781C145.216 164.461 144.414 164.302 143.605 164.315C141.886 164.349 140.238 165.01 138.973 166.174C137.708 167.338 136.912 168.925 136.735 170.635L136.235 176.43H134.165L134.665 170.635C134.898 168.365 135.954 166.259 137.633 164.714C139.312 163.17 141.499 162.293 143.78 162.25C144.854 162.232 145.919 162.442 146.905 162.867C147.891 163.292 148.776 163.922 149.5 164.715C150.224 165.508 150.771 166.446 151.104 167.467C151.438 168.487 151.551 169.567 151.435 170.635L150.94 176.43Z" fill="#4628F1"/>
<path d="M162.935 143.565L163 143C163.013 142.869 162.999 142.737 162.958 142.612C162.916 142.487 162.849 142.372 162.761 142.275C162.672 142.177 162.564 142.1 162.443 142.048C162.322 141.995 162.192 141.969 162.06 141.97C161.78 141.976 161.512 142.084 161.305 142.273C161.099 142.463 160.969 142.721 160.94 143L160.89 143.555C160.778 143.558 160.671 143.602 160.589 143.678C160.507 143.755 160.456 143.859 160.445 143.97L160.315 145.47C160.309 145.522 160.313 145.576 160.329 145.626C160.345 145.676 160.372 145.723 160.408 145.762C160.444 145.801 160.487 145.831 160.536 145.852C160.585 145.872 160.637 145.882 160.69 145.88H162.75C162.862 145.878 162.969 145.835 163.051 145.76C163.133 145.684 163.184 145.581 163.195 145.47L163.325 143.97C163.329 143.917 163.322 143.864 163.304 143.814C163.287 143.764 163.258 143.718 163.221 143.68C163.185 143.641 163.14 143.611 163.091 143.591C163.041 143.572 162.988 143.563 162.935 143.565ZM162 142.235C162.099 142.234 162.198 142.254 162.289 142.293C162.38 142.332 162.461 142.391 162.528 142.464C162.595 142.537 162.646 142.623 162.678 142.717C162.709 142.812 162.72 142.911 162.71 143.01L162.66 143.565H161.11L161.16 143.01C161.182 142.801 161.279 142.607 161.434 142.464C161.588 142.321 161.79 142.24 162 142.235Z" fill="#4628F1"/>
<path d="M131.925 144.16L131.205 144.01C131.185 144.006 131.166 143.997 131.15 143.985C131.134 143.972 131.12 143.956 131.111 143.938C131.102 143.92 131.097 143.9 131.097 143.879C131.097 143.859 131.101 143.838 131.11 143.82L131.41 143.11C131.422 143.079 131.424 143.045 131.413 143.014C131.403 142.982 131.382 142.955 131.354 142.938C131.326 142.921 131.292 142.914 131.259 142.919C131.227 142.924 131.197 142.94 131.175 142.965L130.63 143.525C130.617 143.542 130.6 143.555 130.581 143.564C130.562 143.574 130.541 143.578 130.52 143.578C130.499 143.578 130.478 143.574 130.459 143.564C130.44 143.555 130.423 143.542 130.41 143.525L129.965 142.965C129.87 142.845 129.665 142.965 129.7 143.11L129.875 143.82C129.88 143.841 129.881 143.862 129.877 143.883C129.874 143.904 129.866 143.924 129.854 143.942C129.842 143.96 129.827 143.975 129.809 143.987C129.791 143.999 129.771 144.006 129.75 144.01L129.005 144.16C128.845 144.19 128.825 144.415 128.98 144.445L129.7 144.595C129.72 144.599 129.739 144.607 129.755 144.62C129.772 144.632 129.785 144.649 129.793 144.667C129.802 144.686 129.806 144.706 129.806 144.726C129.805 144.747 129.8 144.767 129.79 144.785L129.5 145.5C129.488 145.531 129.486 145.565 129.497 145.596C129.507 145.628 129.528 145.655 129.556 145.672C129.584 145.689 129.618 145.696 129.651 145.691C129.683 145.686 129.713 145.67 129.735 145.645L130.28 145.085C130.294 145.07 130.311 145.058 130.33 145.05C130.349 145.041 130.369 145.037 130.39 145.037C130.411 145.037 130.431 145.041 130.45 145.05C130.469 145.058 130.486 145.07 130.5 145.085L130.945 145.645C131.04 145.765 131.245 145.645 131.205 145.5L131.03 144.79C131.023 144.748 131.032 144.704 131.056 144.669C131.081 144.633 131.118 144.608 131.16 144.6L131.905 144.45C132.06 144.415 132.08 144.19 131.925 144.16Z" fill="#263238"/>
<path d="M136.655 144.16L135.935 144.01C135.915 144.006 135.896 143.997 135.88 143.985C135.864 143.972 135.85 143.956 135.841 143.938C135.832 143.92 135.827 143.9 135.827 143.879C135.827 143.859 135.831 143.838 135.84 143.82L136.14 143.11C136.152 143.079 136.154 143.045 136.143 143.014C136.133 142.982 136.112 142.955 136.084 142.938C136.056 142.921 136.022 142.914 135.989 142.919C135.957 142.924 135.927 142.94 135.905 142.965L135.36 143.525C135.347 143.542 135.33 143.555 135.311 143.564C135.292 143.574 135.271 143.578 135.25 143.578C135.229 143.578 135.208 143.574 135.189 143.564C135.17 143.555 135.153 143.542 135.14 143.525L134.695 142.965C134.6 142.845 134.395 142.965 134.435 143.11L134.61 143.82C134.614 143.841 134.614 143.863 134.61 143.884C134.606 143.905 134.597 143.925 134.585 143.943C134.573 143.96 134.558 143.975 134.54 143.987C134.521 143.999 134.501 144.006 134.48 144.01L133.735 144.16C133.575 144.19 133.555 144.415 133.71 144.445L134.43 144.595C134.45 144.599 134.469 144.608 134.485 144.62C134.501 144.633 134.515 144.649 134.524 144.667C134.533 144.685 134.538 144.705 134.538 144.726C134.538 144.746 134.534 144.767 134.525 144.785L134.225 145.495C134.213 145.526 134.211 145.56 134.222 145.591C134.232 145.623 134.253 145.65 134.281 145.667C134.309 145.684 134.343 145.691 134.375 145.686C134.408 145.681 134.438 145.665 134.46 145.64L135.005 145.08C135.019 145.065 135.036 145.053 135.055 145.045C135.074 145.036 135.094 145.032 135.115 145.032C135.136 145.032 135.156 145.036 135.175 145.045C135.194 145.053 135.211 145.065 135.225 145.08L135.67 145.64C135.765 145.76 135.97 145.64 135.935 145.495L135.76 144.785C135.756 144.764 135.755 144.743 135.759 144.722C135.763 144.701 135.771 144.682 135.783 144.664C135.794 144.646 135.809 144.631 135.827 144.619C135.845 144.607 135.864 144.599 135.885 144.595L136.63 144.445C136.79 144.415 136.81 144.19 136.655 144.16Z" fill="#263238"/>
<path d="M141.385 144.16L140.67 144.01C140.65 144.007 140.63 143.999 140.613 143.987C140.596 143.974 140.583 143.958 140.573 143.94C140.564 143.921 140.559 143.9 140.56 143.88C140.56 143.859 140.565 143.838 140.575 143.82L140.875 143.11C140.894 143.078 140.9 143.04 140.891 143.004C140.882 142.968 140.859 142.937 140.828 142.918C140.796 142.898 140.758 142.893 140.721 142.901C140.685 142.91 140.654 142.933 140.635 142.965L140.095 143.525C140.081 143.542 140.064 143.555 140.045 143.564C140.025 143.574 140.004 143.579 139.983 143.579C139.961 143.579 139.94 143.574 139.92 143.564C139.901 143.555 139.884 143.542 139.87 143.525L139.425 142.965C139.33 142.845 139.125 142.965 139.165 143.11L139.34 143.82C139.344 143.841 139.345 143.862 139.341 143.883C139.337 143.904 139.329 143.923 139.317 143.941C139.306 143.959 139.291 143.974 139.273 143.986C139.256 143.998 139.236 144.006 139.215 144.01L138.47 144.16C138.31 144.19 138.29 144.415 138.445 144.445L139.16 144.595C139.18 144.599 139.199 144.608 139.215 144.62C139.231 144.633 139.245 144.649 139.254 144.667C139.263 144.685 139.268 144.705 139.268 144.726C139.268 144.746 139.264 144.767 139.255 144.785L138.955 145.495C138.936 145.527 138.93 145.565 138.939 145.601C138.948 145.637 138.971 145.668 139.003 145.688C139.034 145.707 139.073 145.713 139.109 145.704C139.145 145.695 139.176 145.672 139.195 145.64L139.735 145.08C139.749 145.065 139.766 145.053 139.785 145.045C139.804 145.036 139.824 145.032 139.845 145.032C139.866 145.032 139.886 145.036 139.905 145.045C139.924 145.053 139.941 145.065 139.955 145.08L140.405 145.64C140.5 145.76 140.705 145.64 140.665 145.495L140.49 144.785C140.483 144.743 140.491 144.7 140.515 144.665C140.538 144.63 140.574 144.605 140.615 144.595L141.36 144.445C141.5 144.415 141.54 144.19 141.385 144.16Z" fill="#263238"/>
<path d="M146.12 144.16L145.4 144.01C145.38 144.006 145.361 143.997 145.345 143.985C145.329 143.972 145.316 143.956 145.306 143.938C145.297 143.92 145.292 143.9 145.292 143.879C145.292 143.859 145.296 143.838 145.305 143.82L145.605 143.11C145.618 143.079 145.619 143.045 145.609 143.014C145.598 142.982 145.577 142.955 145.549 142.938C145.521 142.921 145.487 142.914 145.455 142.919C145.422 142.924 145.392 142.94 145.37 142.965L144.825 143.525C144.812 143.542 144.795 143.555 144.776 143.564C144.757 143.574 144.736 143.578 144.715 143.578C144.694 143.578 144.673 143.574 144.654 143.564C144.635 143.555 144.618 143.542 144.605 143.525L144.16 142.965C144.065 142.845 143.86 142.965 143.895 143.11L144.07 143.82C144.075 143.841 144.076 143.862 144.072 143.883C144.069 143.904 144.061 143.924 144.049 143.942C144.037 143.96 144.022 143.975 144.004 143.987C143.986 143.999 143.966 144.006 143.945 144.01L143.2 144.16C143.04 144.19 143.02 144.415 143.2 144.445L143.92 144.595C143.94 144.599 143.959 144.607 143.975 144.62C143.992 144.632 144.005 144.649 144.013 144.667C144.022 144.686 144.027 144.706 144.026 144.726C144.025 144.747 144.02 144.767 144.01 144.785L143.715 145.495C143.703 145.526 143.701 145.56 143.712 145.591C143.722 145.623 143.743 145.65 143.771 145.667C143.799 145.684 143.833 145.691 143.866 145.686C143.898 145.681 143.928 145.665 143.95 145.64L144.495 145.08C144.509 145.065 144.526 145.053 144.545 145.045C144.564 145.036 144.584 145.032 144.605 145.032C144.626 145.032 144.646 145.036 144.665 145.045C144.684 145.053 144.701 145.065 144.715 145.08L145.16 145.64C145.255 145.76 145.46 145.64 145.42 145.495L145.245 144.785C145.238 144.743 145.247 144.699 145.272 144.664C145.296 144.628 145.333 144.603 145.375 144.595L146.12 144.445C146.255 144.415 146.275 144.19 146.12 144.16Z" fill="#263238"/>
<path d="M150.85 144.16L150.13 144.01C150.11 144.006 150.091 143.997 150.075 143.985C150.059 143.972 150.045 143.956 150.036 143.938C150.027 143.92 150.022 143.9 150.022 143.879C150.022 143.859 150.026 143.838 150.035 143.82L150.335 143.11C150.348 143.079 150.349 143.045 150.338 143.014C150.328 142.982 150.307 142.955 150.279 142.938C150.251 142.921 150.217 142.914 150.185 142.919C150.152 142.924 150.122 142.94 150.1 142.965L149.555 143.525C149.542 143.542 149.525 143.555 149.506 143.564C149.487 143.574 149.466 143.578 149.445 143.578C149.424 143.578 149.403 143.574 149.384 143.564C149.365 143.555 149.348 143.542 149.335 143.525L148.89 142.965C148.795 142.845 148.59 142.965 148.63 143.11L148.805 143.82C148.809 143.841 148.809 143.863 148.805 143.884C148.801 143.905 148.793 143.925 148.78 143.943C148.768 143.96 148.753 143.975 148.735 143.987C148.716 143.999 148.696 144.006 148.675 144.01L147.93 144.16C147.77 144.19 147.75 144.415 147.905 144.445L148.625 144.595C148.645 144.599 148.664 144.608 148.68 144.62C148.696 144.633 148.71 144.649 148.719 144.667C148.728 144.685 148.733 144.705 148.733 144.726C148.733 144.746 148.729 144.767 148.72 144.785L148.42 145.495C148.408 145.526 148.406 145.56 148.417 145.591C148.427 145.623 148.448 145.65 148.476 145.667C148.504 145.684 148.538 145.691 148.571 145.686C148.603 145.681 148.633 145.665 148.655 145.64L149.2 145.08C149.214 145.065 149.231 145.053 149.25 145.045C149.269 145.036 149.289 145.032 149.31 145.032C149.331 145.032 149.351 145.036 149.37 145.045C149.389 145.053 149.406 145.065 149.42 145.08L149.865 145.64C149.96 145.76 150.165 145.64 150.13 145.495L149.955 144.785C149.951 144.764 149.95 144.743 149.954 144.722C149.958 144.701 149.966 144.682 149.978 144.664C149.99 144.646 150.005 144.631 150.022 144.619C150.04 144.607 150.059 144.599 150.08 144.595L150.825 144.445C151 144.415 151 144.19 150.85 144.16Z" fill="#263238"/>
<path d="M155.58 144.16L154.86 144.01C154.84 144.006 154.821 143.998 154.805 143.985C154.789 143.973 154.776 143.956 154.767 143.938C154.758 143.919 154.754 143.899 154.754 143.879C154.755 143.858 154.76 143.838 154.77 143.82L155.07 143.11C155.08 143.094 155.086 143.077 155.089 143.059C155.092 143.04 155.091 143.022 155.086 143.004C155.082 142.986 155.074 142.969 155.063 142.954C155.052 142.94 155.038 142.927 155.023 142.918C155.007 142.908 154.989 142.902 154.971 142.899C154.953 142.896 154.934 142.897 154.917 142.901C154.899 142.906 154.882 142.914 154.867 142.925C154.852 142.936 154.84 142.949 154.83 142.965L154.29 143.525C154.277 143.542 154.259 143.555 154.24 143.564C154.22 143.574 154.199 143.579 154.178 143.579C154.156 143.579 154.135 143.574 154.115 143.564C154.096 143.555 154.079 143.542 154.065 143.525L153.62 142.965C153.525 142.845 153.32 142.965 153.36 143.11L153.535 143.82C153.54 143.841 153.54 143.862 153.536 143.883C153.532 143.904 153.524 143.923 153.512 143.941C153.501 143.959 153.486 143.974 153.468 143.986C153.451 143.998 153.431 144.006 153.41 144.01L152.665 144.16C152.505 144.19 152.485 144.415 152.64 144.445L153.355 144.595C153.375 144.599 153.394 144.608 153.41 144.62C153.427 144.633 153.44 144.649 153.449 144.667C153.458 144.685 153.463 144.705 153.463 144.726C153.463 144.746 153.459 144.767 153.45 144.785L153.15 145.495C153.131 145.527 153.125 145.565 153.134 145.601C153.143 145.637 153.166 145.668 153.198 145.688C153.229 145.707 153.268 145.713 153.304 145.704C153.34 145.695 153.371 145.672 153.39 145.64L153.93 145.08C153.944 145.065 153.961 145.053 153.98 145.045C153.999 145.036 154.02 145.032 154.04 145.032C154.061 145.032 154.081 145.036 154.1 145.045C154.119 145.053 154.136 145.065 154.15 145.08L154.595 145.64C154.618 145.666 154.65 145.684 154.685 145.69C154.719 145.696 154.755 145.69 154.785 145.673C154.816 145.656 154.84 145.629 154.854 145.597C154.867 145.565 154.87 145.529 154.86 145.495L154.685 144.785C154.678 144.743 154.686 144.7 154.71 144.665C154.733 144.63 154.769 144.605 154.81 144.595L155.555 144.445C155.715 144.415 155.735 144.19 155.58 144.16Z" fill="#263238"/>
<path d="M144.175 133.805H135.295C135.023 133.81 134.761 133.914 134.56 134.098C134.36 134.282 134.233 134.534 134.205 134.805C134.191 134.933 134.204 135.062 134.244 135.184C134.283 135.306 134.349 135.418 134.435 135.513C134.522 135.608 134.628 135.683 134.746 135.733C134.864 135.783 134.992 135.808 135.12 135.805H144C144.273 135.8 144.534 135.696 144.735 135.512C144.936 135.328 145.062 135.076 145.09 134.805C145.104 134.678 145.09 134.549 145.05 134.427C145.01 134.305 144.944 134.193 144.858 134.099C144.771 134.004 144.666 133.929 144.548 133.879C144.43 133.828 144.303 133.803 144.175 133.805Z" fill="#263238"/>
<path d="M153.195 133.805H148.04C147.768 133.81 147.507 133.914 147.307 134.099C147.107 134.283 146.982 134.534 146.955 134.805C146.941 134.932 146.954 135.061 146.993 135.183C147.033 135.304 147.098 135.416 147.184 135.511C147.27 135.605 147.375 135.681 147.493 135.731C147.61 135.782 147.737 135.807 147.865 135.805H153C153.272 135.8 153.533 135.696 153.733 135.511C153.933 135.327 154.058 135.076 154.085 134.805C154.099 134.68 154.087 134.553 154.048 134.432C154.01 134.312 153.947 134.201 153.863 134.107C153.779 134.012 153.676 133.937 153.561 133.885C153.446 133.833 153.321 133.806 153.195 133.805Z" fill="#263238"/>
<path d="M160 179.13C156.861 180.326 154.028 182.204 151.705 184.63C150.295 183.535 148.613 182.844 146.84 182.63L146.605 182.595L146.505 183.775L146.635 183.825C148.579 184.541 150.224 185.895 151.3 187.665L151.47 187.945L151.655 187.645C153.726 184.339 156.648 181.652 160.115 179.865L160.23 179.805L160.295 179.025L160 179.13Z" fill="#263238"/>
<path opacity="0.2" d="M115.32 80.685C114.683 81.7976 114.291 83.0335 114.17 84.31L106.725 169.42H129.765L134.395 151.675L132.87 133.925L137.5 116.18L136 98.435L140.63 80.685H115.32Z" fill="black"/>
<path d="M133.975 93.435L138.605 75.685H80.3399L75.7149 93.435L77.2349 111.18L72.6099 128.925L74.1299 146.675L69.5049 164.42H127.765L132.395 146.675L130.87 128.925L135.5 111.18L133.975 93.435Z" fill="#4628F1"/>
<path opacity="0.7" d="M133.975 93.435L138.605 75.685H80.3399L75.7149 93.435L77.2349 111.18L72.6099 128.925L74.1299 146.675L69.5049 164.42H127.765L132.395 146.675L130.87 128.925L135.5 111.18L133.975 93.435Z" fill="white"/>
<path opacity="0.5" d="M133.975 93.435H75.7151L80.3401 75.685H138.605L133.975 93.435Z" fill="white"/>
<path opacity="0.5" d="M130.87 128.925H72.6101L77.2351 111.18H135.5L130.87 128.925Z" fill="white"/>
<path opacity="0.5" d="M127.765 164.42H69.5L74.13 146.675H132.395L127.765 164.42Z" fill="white"/>
<path opacity="0.2" d="M126.18 100.85C125.582 101.023 124.962 101.107 124.34 101.1C123.496 101.137 122.656 100.966 121.895 100.6C121.757 100.518 121.6 100.475 121.44 100.475C121.293 100.477 121.149 100.515 121.02 100.585H120.99C120.767 100.71 120.528 100.806 120.28 100.87C119.721 101.018 119.144 101.09 118.565 101.085C118.39 101.085 118.22 101.085 118.065 101.085C117.616 101.056 117.172 100.977 116.74 100.85C116.677 100.831 116.611 100.819 116.545 100.815C116.435 100.806 116.324 100.82 116.22 100.856C116.116 100.892 116.02 100.949 115.939 101.023C115.857 101.098 115.793 101.189 115.748 101.29C115.704 101.391 115.68 101.5 115.68 101.61V102.15H93.0001C92.5834 102.15 92.1708 102.232 91.7858 102.392C91.4009 102.551 91.0512 102.785 90.7568 103.08C90.4624 103.375 90.229 103.725 90.07 104.11C89.9109 104.496 89.8294 104.908 89.8301 105.325V108.52C89.8288 108.937 89.9098 109.35 90.0685 109.736C90.2272 110.122 90.4605 110.473 90.755 110.768C91.0495 111.063 91.3994 111.298 91.7847 111.458C92.1699 111.618 92.583 111.7 93.0001 111.7H118.765H118.935C119.21 111.93 119.5 112.16 119.81 112.395C120.12 112.63 120.56 112.955 120.965 113.245C121.103 113.345 121.27 113.399 121.44 113.399C121.611 113.399 121.777 113.345 121.915 113.245C125.155 110.895 127.235 109.275 127.235 104.825V101.625C127.237 101.497 127.208 101.371 127.151 101.256C127.093 101.141 127.01 101.042 126.907 100.966C126.804 100.891 126.684 100.841 126.557 100.82C126.431 100.8 126.302 100.81 126.18 100.85Z" fill="black"/>
<path d="M118.27 100.395H92.51C90.7565 100.395 89.335 101.816 89.335 103.57V106.765C89.335 108.518 90.7565 109.94 92.51 109.94H118.27C120.023 109.94 121.445 108.518 121.445 106.765V103.57C121.445 101.816 120.023 100.395 118.27 100.395Z" fill="#4628F1"/>
<path d="M123.845 99.34C123.001 99.3761 122.162 99.2044 121.4 98.84C121.265 98.7568 121.109 98.7128 120.95 98.7128C120.791 98.7128 120.635 98.7568 120.5 98.84C119.737 99.205 118.895 99.3767 118.05 99.34C117.428 99.3466 116.808 99.2624 116.21 99.09C116.09 99.0494 115.961 99.0382 115.836 99.0572C115.71 99.0762 115.591 99.1248 115.487 99.1991C115.384 99.2734 115.3 99.3712 115.243 99.4844C115.185 99.5975 115.155 99.7229 115.155 99.85V103.05C115.155 107.505 117.235 109.125 120.475 111.475C120.613 111.575 120.779 111.629 120.95 111.629C121.121 111.629 121.287 111.575 121.425 111.475C124.665 109.125 126.745 107.505 126.745 103.05V99.85C126.744 99.7227 126.714 99.5973 126.655 99.4842C126.597 99.3711 126.513 99.2735 126.409 99.1993C126.306 99.1251 126.186 99.0765 126.06 99.0575C125.934 99.0385 125.806 99.0496 125.685 99.09C125.087 99.2627 124.467 99.3469 123.845 99.34Z" fill="#4628F1"/>
<path opacity="0.3" d="M123.845 99.34C123.001 99.3761 122.162 99.2044 121.4 98.84C121.265 98.7568 121.109 98.7128 120.95 98.7128C120.791 98.7128 120.635 98.7568 120.5 98.84C119.737 99.205 118.895 99.3767 118.05 99.34C117.428 99.3466 116.808 99.2624 116.21 99.09C116.09 99.0494 115.961 99.0382 115.836 99.0572C115.71 99.0762 115.591 99.1248 115.487 99.1991C115.384 99.2734 115.3 99.3712 115.243 99.4844C115.185 99.5975 115.155 99.7229 115.155 99.85V103.05C115.155 107.505 117.235 109.125 120.475 111.475C120.613 111.575 120.779 111.629 120.95 111.629C121.121 111.629 121.287 111.575 121.425 111.475C124.665 109.125 126.745 107.505 126.745 103.05V99.85C126.744 99.7227 126.714 99.5973 126.655 99.4842C126.597 99.3711 126.513 99.2735 126.409 99.1993C126.306 99.1251 126.186 99.0765 126.06 99.0575C125.934 99.0385 125.806 99.0496 125.685 99.09C125.087 99.2627 124.467 99.3469 123.845 99.34Z" fill="white"/>
<path opacity="0.2" d="M120.5 98.83C119.737 99.195 118.895 99.3667 118.05 99.33C117.428 99.3363 116.808 99.2521 116.21 99.08C116.09 99.0395 115.961 99.0283 115.836 99.0473C115.71 99.0662 115.591 99.1149 115.487 99.1892C115.384 99.2634 115.3 99.3612 115.243 99.4744C115.185 99.5876 115.155 99.7129 115.155 99.84V103.04C115.155 107.495 117.235 109.115 120.475 111.465C120.62 111.57 120.796 111.625 120.975 111.62V98.7C120.807 98.6967 120.643 98.7418 120.5 98.83Z" fill="white"/>
<path d="M125.595 102.18C123.646 102.944 121.91 104.167 120.535 105.745C119.576 105.038 118.452 104.589 117.27 104.44H117.115V105.205L117.2 105.235C118.515 105.709 119.648 106.584 120.44 107.735L120.565 107.915L120.67 107.72C121.819 105.584 123.57 103.832 125.705 102.68L125.78 102.645V102.145L125.595 102.18Z" fill="#263238"/>
<path d="M137.575 80.68H135.365C135.081 80.6853 134.799 80.6299 134.537 80.5175C134.276 80.4051 134.042 80.2383 133.85 80.0282C133.659 79.8181 133.514 79.5695 133.426 79.2991C133.338 79.0287 133.309 78.7426 133.34 78.46L133.535 76.25C133.595 75.6489 133.874 75.0908 134.318 74.6816C134.762 74.2724 135.341 74.0405 135.945 74.03H138.155C138.44 74.024 138.723 74.0789 138.984 74.1909C139.246 74.303 139.481 74.4697 139.673 74.6799C139.865 74.8901 140.01 75.1389 140.099 75.4096C140.187 75.6804 140.216 75.9669 140.185 76.25L139.99 78.46C139.923 79.059 139.641 79.6135 139.198 80.0215C138.754 80.4294 138.178 80.6633 137.575 80.68Z" fill="#4628F1"/>
<path d="M138.495 76.245L138.015 75.715L136.805 76.825L135.795 75.715L135.22 76.245L136.235 77.355L135.03 78.465L135.51 78.99L136.715 77.88L137.73 78.99L138.3 78.465L137.285 77.355L138.495 76.245Z" fill="white"/>
<path d="M88.185 99.745C89.465 101.14 90.685 102.585 91.9 104.04C93.115 105.495 94.29 106.98 95.46 108.47C95.51 108.535 95.49 108.51 95.5 108.53C95.51 108.55 95.5 108.555 95.5 108.56C95.5087 108.579 95.5206 108.595 95.535 108.61C95.5776 108.671 95.6318 108.722 95.6945 108.762C95.7571 108.801 95.827 108.828 95.9 108.84C95.9564 108.848 96.0136 108.848 96.07 108.84C96.1 108.842 96.1301 108.842 96.16 108.84H96.205C96.23 108.84 96.205 108.84 96.285 108.81L97.535 108.13C99.215 107.24 100.91 106.37 102.66 105.59L104.125 107.405C102.715 108.7 101.245 110.325 99.76 111.515L98.64 112.395C98.5704 112.452 98.4969 112.504 98.42 112.55C98.3351 112.61 98.2466 112.665 98.155 112.715C97.974 112.819 97.787 112.913 97.595 112.995C97.2076 113.158 96.801 113.27 96.385 113.33C95.5438 113.453 94.6851 113.368 93.885 113.08C93.478 112.935 93.0915 112.739 92.735 112.495C92.555 112.375 92.385 112.235 92.235 112.1C92.15 112.03 92.08 111.95 92 111.875L91.8 111.675C90.475 110.315 89.17 108.945 87.89 107.55C86.61 106.155 85.345 104.75 84.135 103.29L88.185 99.745Z" fill="#B55B52"/>
<path d="M102 106.69L103.165 102.945L106.235 104.475C106.235 104.475 105.785 107.205 103.555 107.68L102 106.69Z" fill="#B55B52"/>
<path d="M104.39 101.91L107.16 102.67L106.23 104.475L103.16 102.945L104.39 101.91Z" fill="#B55B52"/>
<path d="M72.045 100.765C71.715 102.355 71.305 103.93 70.88 105.5C70.455 107.07 69.99 108.625 69.505 110.18L69.325 110.765L69.235 111.055C69.2229 111.097 69.2061 111.137 69.185 111.175C69.1279 111.336 69.0959 111.504 69.09 111.675C69.0794 112.038 69.1806 112.396 69.38 112.7C69.4783 112.833 69.587 112.959 69.705 113.075L70.12 113.53L70.94 114.445C71.475 115.065 72.015 115.685 72.525 116.335L70.78 118.335C70.06 117.925 69.37 117.48 68.68 117.04L67.655 116.36L67.155 116.015C66.985 115.895 66.845 115.815 66.57 115.59C65.5917 114.756 64.9166 113.622 64.65 112.365C64.5158 111.724 64.4837 111.066 64.555 110.415C64.555 110.255 64.605 110.075 64.63 109.915L64.685 109.615L64.79 109.015C65.07 107.41 65.37 105.81 65.705 104.22C66.04 102.63 66.4 101.045 66.825 99.48L72.045 100.765Z" fill="#B55B52"/>
<path d="M70.8149 116.175L72.8749 115.12L73.7849 118.62C73.7849 118.62 72.1299 119.255 70.8499 118.44L70.8149 116.175Z" fill="#B55B52"/>
<path d="M75.7248 113.995L75.8198 117.215L73.5148 118.72L72.7148 115.185L75.7248 113.995Z" fill="#B55B52"/>
<path d="M82.4699 84.235C82.5199 84.48 82.6949 84.655 82.8549 84.625C83.0149 84.595 83.1099 84.365 83.0599 84.125C83.0099 83.885 82.8349 83.705 82.6749 83.735C82.5149 83.765 82.4199 84 82.4699 84.235Z" fill="#263238"/>
<path d="M82.6699 84.66C83.12 85.3573 83.6634 85.9898 84.2849 86.54C84.1402 86.6958 83.9632 86.8182 83.7663 86.8985C83.5694 86.9788 83.3573 87.0152 83.1449 87.005L82.6699 84.66Z" fill="#A02724"/>
<path d="M81.2849 83.045C81.2561 83.0446 81.228 83.036 81.204 83.0201C81.18 83.0042 81.161 82.9818 81.1494 82.9554C81.1378 82.929 81.1341 82.8999 81.1386 82.8714C81.1431 82.843 81.1557 82.8164 81.1749 82.795C81.3315 82.6179 81.5277 82.4802 81.7475 82.3934C81.9673 82.3065 82.2046 82.2727 82.4399 82.295C82.4593 82.2986 82.4778 82.306 82.4943 82.3167C82.5108 82.3275 82.525 82.3414 82.5362 82.3576C82.5473 82.3739 82.5552 82.3922 82.5592 82.4114C82.5633 82.4307 82.5635 82.4506 82.5599 82.47C82.5569 82.4891 82.5501 82.5075 82.5398 82.524C82.5296 82.5405 82.5161 82.5547 82.5003 82.5659C82.4844 82.5771 82.4665 82.585 82.4475 82.5891C82.4286 82.5933 82.409 82.5936 82.3899 82.59C82.2034 82.5721 82.0153 82.5991 81.8414 82.6687C81.6674 82.7382 81.5126 82.8484 81.3899 82.99C81.3633 83.0211 81.3257 83.0408 81.2849 83.045Z" fill="#263238"/>
<path d="M75.26 87.72C75.81 90.015 76.365 94.22 74.395 95.745C74.395 95.745 75.165 98.075 80.395 98.075C86.145 98.075 83.145 96.575 83.145 96.575C80.005 95.965 80.085 93.24 80.645 91.455L75.26 87.72Z" fill="#B55B52"/>
<path d="M73.78 96.17C73.44 95.535 73.06 94.805 73.84 94.575C74.7 94.325 80.215 93.86 81.84 94.33C81.34 95.215 82.185 96.33 82.185 96.33L73.78 96.17Z" fill="#263238"/>
<path d="M78.3499 203.46H81.9549L82.3149 196.2H78.7049L78.3499 203.46Z" fill="#B55B52"/>
<path d="M55.4548 202.46L59.1098 202.655L61.3298 195.5L57.6748 195.305L55.4548 202.46Z" fill="#B55B52"/>
<path d="M58.9999 202.365L55.5549 201.62C55.4946 201.606 55.4314 201.614 55.3759 201.641C55.3203 201.668 55.2759 201.714 55.2499 201.77L54.0549 204.365C54.0255 204.428 54.0109 204.497 54.0123 204.566C54.0137 204.636 54.0309 204.704 54.0628 204.766C54.0947 204.828 54.1403 204.881 54.1961 204.923C54.252 204.964 54.3165 204.992 54.3849 205.005C55.5899 205.245 56.1899 205.3 57.7049 205.63C58.6349 205.83 60.7399 206.345 62.0249 206.63C63.3099 206.915 63.7549 205.675 63.2549 205.445C61.0049 204.42 60.0649 203.515 59.4549 202.67C59.3455 202.516 59.1837 202.408 58.9999 202.365Z" fill="#263238"/>
<path d="M81.7649 203.095H78.3399C78.278 203.096 78.2181 203.117 78.17 203.156C78.1219 203.195 78.0884 203.25 78.0749 203.31L77.4549 206.095C77.4389 206.162 77.4385 206.233 77.4538 206.3C77.469 206.368 77.4995 206.431 77.543 206.485C77.5864 206.539 77.6415 206.582 77.7043 206.612C77.767 206.641 77.8356 206.656 77.9049 206.655C79.1399 206.655 80.9049 206.56 82.4799 206.56C84.2949 206.56 85.8599 206.66 87.9799 206.66C89.2649 206.66 89.6249 205.36 89.0849 205.24C86.6299 204.705 84.6299 204.645 82.5099 203.34C82.2884 203.192 82.0309 203.108 81.7649 203.095Z" fill="#263238"/>
<path d="M67.8599 96.805C65.1399 98.1 64.3999 105.95 64.3999 105.95L71.1349 109.06C72.2733 107.14 72.8936 104.957 72.9349 102.725C73.0699 98.67 70.6449 95.5 67.8599 96.805Z" fill="#263238"/>
<path opacity="0.4" d="M71.5 101.645C70.285 103.535 70.4 106.455 70.82 108.92L71.12 109.06C72.2574 107.139 72.8775 104.957 72.92 102.725C72.92 102.485 72.92 102.225 72.92 102.01L71.5 101.645Z" fill="black"/>
<path d="M86.655 96.615C86.655 96.615 89.995 100.385 86.84 123.715H70.075C69.96 121.14 71.575 108.585 69.075 96.455C70.9278 96.0986 72.8017 95.8614 74.685 95.745C77.0597 95.6099 79.4402 95.6099 81.815 95.745C83.4482 95.9104 85.0663 96.2013 86.655 96.615Z" fill="#4628F1"/>
<path opacity="0.6" d="M86.655 96.615C86.655 96.615 89.995 100.385 86.84 123.715H70.075C69.96 121.14 71.575 108.585 69.075 96.455C70.9278 96.0986 72.8017 95.8614 74.685 95.745C77.0597 95.6099 79.4402 95.6099 81.815 95.745C83.4482 95.9104 85.0663 96.2013 86.655 96.615Z" fill="#FAFAFA"/>
<path opacity="0.2" d="M88.1199 103.745L88.0598 103.69L84.7248 101.91C84.3848 107.045 86.6798 110.265 88.0448 111.67C88.2159 109.032 88.241 106.386 88.1199 103.745Z" fill="black"/>
<path opacity="0.2" d="M82.315 196.2L82.13 199.945H78.52L78.705 196.2H82.315Z" fill="black"/>
<path opacity="0.2" d="M57.675 195.31L61.33 195.5L60.185 199.19L56.53 198.995L57.675 195.31Z" fill="black"/>
<path d="M74.0999 85.39C74.9049 88.39 75.2249 90.195 77.0999 91.445C79.8899 93.325 83.3599 91.165 83.4699 87.98C83.5649 85.115 82.2349 80.68 79.0099 80.075C78.2979 79.9341 77.5616 79.9782 76.8715 80.2029C76.1813 80.4277 75.5603 80.8256 75.0678 81.3587C74.5753 81.8919 74.2277 82.5424 74.0582 83.2482C73.8888 83.9539 73.9031 84.6914 74.0999 85.39Z" fill="#B55B52"/>
<path d="M80.8949 123.715C80.8949 123.715 77.3349 147.67 75.3949 156.65C73.2449 166.5 61.7749 199 61.7749 199L56.1599 197.785C56.1599 197.785 63.3549 171.285 65.1599 157.545C65.8599 152.18 66.7049 143.545 67.7749 136.33C68.8099 129.33 70.0849 123.72 70.0849 123.72L80.8949 123.715Z" fill="#263238"/>
<path d="M63.12 197.125L62.07 199.155L55.76 197.785L56.29 195.89L63.12 197.125Z" fill="#4628F1"/>
<path opacity="0.6" d="M63.12 197.125L62.07 199.155L55.76 197.785L56.29 195.89L63.12 197.125Z" fill="white"/>
<path opacity="0.6" d="M78.645 132.25C74.53 133.055 74.965 148.4 75.46 156.29C76.65 150.71 78.385 139.98 79.57 132.36C79.2833 132.219 78.9569 132.18 78.645 132.25Z" fill="black"/>
<path d="M86.8398 123.715C86.8398 123.715 88.5148 147.155 88.1748 156.715C87.8198 166.66 83.1048 199.215 83.1048 199.215H77.7948C77.7948 199.215 77.5998 167.215 77.3648 157.47C77.1048 146.82 75.8198 123.71 75.8198 123.71L86.8398 123.715Z" fill="#263238"/>
<path d="M84.1249 197.105C84.1499 197.105 83.8249 199.31 83.8249 199.31H77.3649L77.1899 197.34L84.1249 197.105Z" fill="#4628F1"/>
<path opacity="0.6" d="M84.1249 197.105C84.1499 197.105 83.8249 199.31 83.8249 199.31H77.3649L77.1899 197.34L84.1249 197.105Z" fill="white"/>
<path d="M84.7 101C84.7 107.29 88.045 109.88 88.045 109.88L93.5 104.57C92.2088 102.412 90.7386 100.367 89.105 98.455C85.95 94.84 84.7 96.96 84.7 101Z" fill="#263238"/>
<path opacity="0.2" d="M83.2599 89.12C83.1487 89.4352 82.962 89.7185 82.7163 89.945C82.4705 90.1716 82.1731 90.3347 81.8499 90.42C81.4944 90.4925 81.1716 90.6775 80.9294 90.9477C80.6872 91.2178 80.5384 91.5587 80.5049 91.92C81.1523 91.7035 81.7394 91.337 82.2182 90.8504C82.697 90.3638 83.0539 89.7708 83.2599 89.12Z" fill="black"/>
<path d="M81.8499 79.415C82.9699 78 81.2449 77.915 81.2449 77.915C81.6949 76.23 79.6749 77.135 79.6749 77.135C78.4649 75.465 77.7799 77.5 77.7799 77.5C76.5249 76.085 76.2799 78.395 76.2799 78.395C75.0199 76.6 74.3799 79.19 74.3799 79.19C73.2199 77.325 72.5099 79.75 72.5099 79.75C70.1149 78.895 71.2499 81.385 71.2499 81.385C69.2099 81.44 70.8499 83.025 70.8499 83.025C68.3999 83.025 70.5599 84.43 70.5599 84.43C68.6149 85.705 71.0599 86.05 71.0599 86.05C69.4749 88.55 72.1999 87.61 72.1999 87.61C71.0949 90.07 73.5399 88.985 73.5399 88.985C73.3849 91.355 74.7499 90.71 75.4099 90.27C75.5349 90.77 75.7749 91.27 76.2149 91.31C77.0699 91.425 77.2149 89.81 77.2149 89.81C77.2149 89.81 78.0049 90.43 78.6699 90.095C79.3349 89.76 79.0849 88.915 79.0849 88.915C79.2293 89.0229 79.4047 89.0812 79.5849 89.0812C79.7652 89.0812 79.9406 89.0229 80.0849 88.915C80.3699 88.695 80.3699 87.105 80.0099 86.545L81.3099 86.045C81.3099 86.045 82.2749 85.91 81.8449 84.635C81.5855 83.9022 81.5627 83.1064 81.7799 82.36C83.2499 81.67 82.0399 80.86 82.0399 80.86C83.7449 79.765 81.8499 79.415 81.8499 79.415Z" fill="#263238"/>
<path d="M79.2148 85.5C79.4183 86.246 79.8632 86.9035 80.4798 87.37C81.2948 87.98 81.9048 87.37 81.8448 86.455C81.7948 85.625 81.3048 84.31 80.4048 84.06C79.5048 83.81 78.9998 84.615 79.2148 85.5Z" fill="#B55B52"/>
</svg>
