<svg width="36" height="36" viewBox="0 0 36 36" fill="none" xmlns="http://www.w3.org/2000/svg">
<rect width="36" height="36" rx="18" fill="#FF0000" fill-opacity="0.1"/>
<path d="M22.375 14.5V10.125C22.375 9.42881 22.0984 8.76113 21.6062 8.26884C21.1139 7.77656 20.4462 7.5 19.75 7.5H12.75C12.0538 7.5 11.3861 7.77656 10.8938 8.26884C10.4016 8.76113 10.125 9.42881 10.125 10.125V25.875C10.125 26.5712 10.4016 27.2389 10.8938 27.7312C11.3861 28.2234 12.0538 28.5 12.75 28.5H19.75C20.4462 28.5 21.1139 28.2234 21.6062 27.7312C22.0984 27.2389 22.375 26.5712 22.375 25.875V21.5M18 14.5L14.5 18M14.5 18L18 21.5M14.5 18H29.375" stroke="#F54848" stroke-width="2" stroke-linecap="round" stroke-linejoin="round"/>
</svg>
