<svg width="68" height="68" viewBox="0 0 68 68" fill="none" xmlns="http://www.w3.org/2000/svg">
<rect width="68" height="68" rx="34" fill="url(#paint0_linear_6_710)"/>
<path d="M25.2 37.0483C24.8 37.0983 24.4 37.1517 24 37.2083M25.2 37.0483C31.0438 36.3152 36.9562 36.3152 42.8 37.0483M25.2 37.0483L24.5667 44M42.8 37.0483C43.2 37.0983 43.6 37.1517 44 37.2083M42.8 37.0483L43.4333 44L43.815 48.205C43.8386 48.4644 43.8079 48.7259 43.7249 48.9729C43.6418 49.2198 43.5082 49.4467 43.3326 49.6391C43.1569 49.8315 42.9431 49.9852 42.7048 50.0904C42.4665 50.1955 42.2088 50.2499 41.9483 50.25H26.0517C24.9483 50.25 24.085 49.3033 24.185 48.205L24.5667 44M24.5667 44H22.75C21.7554 44 20.8016 43.6049 20.0983 42.9016C19.3951 42.1984 19 41.2446 19 40.25V29.76C19 27.9583 20.28 26.4017 22.0617 26.135C23.1216 25.9765 24.1846 25.8392 25.25 25.7233M43.43 44H45.2483C45.7409 44.0002 46.2287 43.9034 46.6839 43.715C47.1391 43.5267 47.5527 43.2505 47.9011 42.9022C48.2495 42.554 48.5258 42.1405 48.7144 41.6854C48.9029 41.2304 49 40.7426 49 40.25V29.76C49 27.9583 47.72 26.4017 45.9383 26.135C44.8784 25.9765 43.8154 25.8392 42.75 25.7233M42.75 25.7233C36.9338 25.0905 31.0662 25.0905 25.25 25.7233M42.75 25.7233V19.625C42.75 18.59 41.91 17.75 40.875 17.75H27.125C26.09 17.75 25.25 18.59 25.25 19.625V25.7233M44 31.5H44.0133V31.5133H44V31.5ZM39 31.5H39.0133V31.5133H39V31.5Z" stroke="white" stroke-width="3" stroke-linecap="round" stroke-linejoin="round"/>
<defs>
<linearGradient id="paint0_linear_6_710" x1="58.5" y1="8.5" x2="11" y2="60.5" gradientUnits="userSpaceOnUse">
<stop stop-color="#F97316"/>
<stop offset="1" stop-color="#F97316" stop-opacity="0.6"/>
</linearGradient>
</defs>
</svg>
