<svg width="250" height="250" viewBox="0 0 250 250" fill="none" xmlns="http://www.w3.org/2000/svg">
<path d="M224.95 199.245H208.39V199.37H224.95V199.245Z" fill="#EBEBEB"/>
<path d="M165.61 200.605H161.265V200.73H165.61V200.605Z" fill="#EBEBEB"/>
<path d="M207.89 194.605H198.295V194.73H207.89V194.605Z" fill="#EBEBEB"/>
<path d="M47.825 195.445H26.23V195.57H47.825V195.445Z" fill="#EBEBEB"/>
<path d="M55.4448 195.445H52.2798V195.57H55.4448V195.445Z" fill="#EBEBEB"/>
<path d="M112.575 197.555H65.7349V197.68H112.575V197.555Z" fill="#EBEBEB"/>
<path d="M118.5 168.9H21.96C21.2028 168.9 20.4766 168.599 19.9412 168.064C19.4058 167.528 19.105 166.802 19.105 166.045V30.33C19.1116 29.5771 19.4153 28.8574 19.95 28.3274C20.4847 27.7973 21.2071 27.5 21.96 27.5H118.5C119.257 27.5 119.983 27.8008 120.519 28.3362C121.054 28.8716 121.355 29.5978 121.355 30.355V166.045C121.355 166.802 121.054 167.528 120.519 168.064C119.983 168.599 119.257 168.9 118.5 168.9ZM21.96 27.6C21.2363 27.6013 20.5427 27.8894 20.031 28.4011C19.5194 28.9127 19.2313 29.6064 19.23 30.33V166.045C19.2313 166.769 19.5194 167.462 20.031 167.974C20.5427 168.486 21.2363 168.774 21.96 168.775H118.5C119.224 168.774 119.917 168.486 120.429 167.974C120.941 167.462 121.229 166.769 121.23 166.045V30.33C121.229 29.6064 120.941 28.9127 120.429 28.4011C119.917 27.8894 119.224 27.6013 118.5 27.6H21.96Z" fill="#EBEBEB"/>
<path d="M226.655 168.9H130.105C129.348 168.899 128.623 168.597 128.088 168.062C127.553 167.527 127.251 166.802 127.25 166.045V30.33C127.258 29.5776 127.562 28.8585 128.096 28.3288C128.631 27.7991 129.353 27.5013 130.105 27.5H226.655C227.406 27.5026 228.126 27.8011 228.659 28.3309C229.191 28.8606 229.493 29.5789 229.5 30.33V166.045C229.5 166.8 229.201 167.525 228.667 168.06C228.134 168.595 227.41 168.897 226.655 168.9ZM130.105 27.6C129.381 27.6013 128.688 27.8894 128.176 28.4011C127.664 28.9127 127.376 29.6064 127.375 30.33V166.045C127.376 166.769 127.664 167.462 128.176 167.974C128.688 168.486 129.381 168.774 130.105 168.775H226.655C227.379 168.774 228.072 168.486 228.584 167.974C229.096 167.462 229.384 166.769 229.385 166.045V30.33C229.384 29.6064 229.096 28.9127 228.584 28.4011C228.072 27.8894 227.379 27.6013 226.655 27.6H130.105Z" fill="#EBEBEB"/>
<path d="M250 191.2H0V191.325H250V191.2Z" fill="#EBEBEB"/>
<path d="M126.485 145.665H83.2798V185.92H126.485V145.665Z" fill="#E6E6E6"/>
<path d="M90.1551 187.185H84.6401V190.705H90.1551V187.185Z" fill="#E0E0E0"/>
<path d="M214.215 145.665H126.485V185.53H214.215V145.665Z" fill="#E6E6E6"/>
<path d="M220.91 142.7H215.395V190.705H220.91V142.7Z" fill="#E6E6E6"/>
<path d="M168.79 148.84H130.76V183.67H168.79V148.84Z" fill="#F5F5F5"/>
<path d="M137.18 183.67H147.335L150.995 148.84H140.845L137.18 183.67Z" fill="#FAFAFA"/>
<path d="M149.935 183.67H151.955L155.615 148.84H153.595L149.935 183.67Z" fill="#FAFAFA"/>
<path d="M125.425 148.84H87.395V183.67H125.425V148.84Z" fill="#F5F5F5"/>
<path d="M212.57 148.84H174.54V183.67H212.57V148.84Z" fill="#F5F5F5"/>
<path d="M214 142.7H81.71V190.7H84.65V188H212.5V190.69H215.445V142.69L214 142.7ZM84.65 147.045H125.065V163.72H84.65V147.045ZM84.65 183.67V166.2H125.065V183.67H84.65ZM168.79 183.67H128V147.045H168.785L168.79 183.67ZM212.52 183.67H171.735V166.2H212.5L212.52 183.67ZM212.52 163.72H171.735V147.045H212.5L212.52 163.72Z" fill="#F0F0F0"/>
<path d="M107.035 152.97C107.035 153.32 106.931 153.663 106.736 153.954C106.542 154.245 106.265 154.472 105.941 154.606C105.618 154.74 105.261 154.774 104.918 154.706C104.574 154.637 104.259 154.468 104.012 154.22C103.764 153.972 103.596 153.656 103.529 153.312C103.461 152.969 103.497 152.613 103.631 152.289C103.766 151.966 103.994 151.69 104.285 151.496C104.577 151.302 104.92 151.199 105.27 151.2C105.502 151.2 105.732 151.246 105.947 151.335C106.161 151.424 106.356 151.554 106.52 151.719C106.684 151.883 106.814 152.078 106.902 152.293C106.991 152.508 107.036 152.738 107.035 152.97Z" fill="#EBEBEB"/>
<path d="M105.27 154.735C104.932 154.734 104.601 154.637 104.317 154.455C104.032 154.272 103.806 154.012 103.665 153.705C103.555 153.945 103.501 154.206 103.505 154.47C103.51 154.733 103.573 154.993 103.691 155.228C103.809 155.464 103.978 155.671 104.186 155.833C104.394 155.994 104.636 156.108 104.894 156.164C105.151 156.22 105.418 156.218 105.675 156.157C105.932 156.097 106.171 155.979 106.377 155.814C106.582 155.649 106.748 155.44 106.862 155.202C106.976 154.964 107.035 154.704 107.035 154.44C107.035 154.186 106.979 153.935 106.87 153.705C106.729 154.012 106.504 154.272 106.221 154.454C105.937 154.637 105.607 154.734 105.27 154.735Z" fill="#E0E0E0"/>
<path d="M105.27 175.265C106.245 175.265 107.035 174.475 107.035 173.5C107.035 172.525 106.245 171.735 105.27 171.735C104.295 171.735 103.505 172.525 103.505 173.5C103.505 174.475 104.295 175.265 105.27 175.265Z" fill="#EBEBEB"/>
<path d="M105.27 175.265C104.932 175.264 104.601 175.167 104.317 174.985C104.032 174.802 103.806 174.542 103.665 174.235C103.555 174.475 103.501 174.736 103.505 175C103.51 175.263 103.573 175.523 103.691 175.758C103.809 175.994 103.978 176.201 104.186 176.363C104.394 176.524 104.636 176.638 104.894 176.694C105.151 176.75 105.418 176.748 105.675 176.687C105.932 176.627 106.171 176.509 106.377 176.344C106.582 176.179 106.748 175.97 106.862 175.732C106.976 175.494 107.035 175.234 107.035 174.97C107.035 174.716 106.979 174.465 106.87 174.235C106.729 174.542 106.504 174.802 106.221 174.984C105.937 175.167 105.607 175.264 105.27 175.265Z" fill="#E0E0E0"/>
<path d="M196.185 152.97C196.185 153.32 196.081 153.662 195.887 153.953C195.692 154.244 195.416 154.471 195.092 154.605C194.769 154.739 194.413 154.774 194.07 154.706C193.726 154.638 193.411 154.469 193.163 154.222C192.916 153.974 192.747 153.659 192.679 153.315C192.611 152.972 192.646 152.616 192.78 152.293C192.914 151.969 193.141 151.693 193.432 151.498C193.723 151.304 194.065 151.2 194.415 151.2C194.648 151.199 194.878 151.245 195.093 151.333C195.308 151.422 195.504 151.552 195.668 151.717C195.833 151.881 195.963 152.077 196.052 152.292C196.14 152.507 196.186 152.737 196.185 152.97Z" fill="#EBEBEB"/>
<path d="M194.415 154.735C194.078 154.734 193.748 154.637 193.464 154.454C193.181 154.272 192.955 154.012 192.815 153.705C192.706 153.935 192.65 154.186 192.65 154.44C192.647 154.706 192.704 154.97 192.816 155.211C192.929 155.452 193.095 155.665 193.301 155.833C193.508 156.002 193.749 156.121 194.008 156.183C194.267 156.245 194.537 156.248 194.797 156.191C195.057 156.134 195.301 156.02 195.511 155.855C195.721 155.691 195.891 155.482 196.008 155.243C196.126 155.004 196.188 154.742 196.19 154.475C196.192 154.209 196.134 153.946 196.02 153.705C195.879 154.012 195.653 154.272 195.368 154.455C195.084 154.637 194.753 154.734 194.415 154.735Z" fill="#E0E0E0"/>
<path d="M165.2 167.27C165.2 167.619 165.096 167.96 164.902 168.251C164.709 168.541 164.433 168.767 164.11 168.901C163.788 169.034 163.433 169.069 163.091 169.001C162.748 168.933 162.434 168.765 162.187 168.518C161.94 168.271 161.772 167.957 161.704 167.614C161.636 167.272 161.671 166.917 161.804 166.595C161.938 166.272 162.164 165.996 162.454 165.802C162.745 165.609 163.086 165.505 163.435 165.505C163.903 165.505 164.352 165.691 164.683 166.022C165.014 166.353 165.2 166.802 165.2 167.27Z" fill="#EBEBEB"/>
<path d="M163.435 169.04C163.098 169.039 162.768 168.942 162.484 168.759C162.201 168.577 161.975 168.317 161.835 168.01C161.726 168.24 161.669 168.491 161.67 168.745C161.67 169.009 161.729 169.269 161.843 169.507C161.957 169.745 162.123 169.954 162.328 170.119C162.533 170.284 162.773 170.402 163.03 170.462C163.287 170.523 163.553 170.525 163.811 170.469C164.069 170.413 164.31 170.299 164.518 170.138C164.727 169.976 164.896 169.769 165.014 169.533C165.132 169.298 165.195 169.038 165.2 168.775C165.204 168.511 165.15 168.25 165.04 168.01C164.899 168.317 164.672 168.577 164.388 168.76C164.104 168.942 163.773 169.039 163.435 169.04Z" fill="#E0E0E0"/>
<path d="M194.415 175.265C195.39 175.265 196.18 174.475 196.18 173.5C196.18 172.525 195.39 171.735 194.415 171.735C193.44 171.735 192.65 172.525 192.65 173.5C192.65 174.475 193.44 175.265 194.415 175.265Z" fill="#EBEBEB"/>
<path d="M194.415 175.265C194.078 175.264 193.748 175.167 193.464 174.984C193.181 174.802 192.955 174.542 192.815 174.235C192.706 174.465 192.65 174.716 192.65 174.97C192.647 175.236 192.704 175.5 192.816 175.741C192.929 175.982 193.095 176.195 193.301 176.363C193.508 176.532 193.749 176.651 194.008 176.713C194.267 176.775 194.537 176.778 194.797 176.721C195.057 176.664 195.301 176.549 195.511 176.385C195.721 176.221 195.891 176.012 196.008 175.773C196.126 175.534 196.188 175.272 196.19 175.005C196.192 174.739 196.134 174.476 196.02 174.235C195.879 174.542 195.653 174.802 195.368 174.985C195.084 175.167 194.753 175.264 194.415 175.265Z" fill="#E0E0E0"/>
<path opacity="0.1" d="M67.03 38.71H33.25V89.055H67.03V38.71Z" fill="black"/>
<path d="M65.6599 37.34H31.8799V87.685H65.6599V37.34Z" fill="#EBEBEB"/>
<path d="M64.015 41.595H34.895V84.995H64.015V41.595Z" fill="#F5F5F5"/>
<path d="M56.71 58.14C56.71 59.296 56.3672 60.4261 55.725 61.3873C55.0827 62.3485 54.1698 63.0977 53.1018 63.5401C52.0338 63.9825 50.8585 64.0982 49.7247 63.8727C48.5909 63.6471 47.5494 63.0905 46.732 62.273C45.9145 61.4556 45.3579 60.4141 45.1323 59.2803C44.9068 58.1465 45.0226 56.9712 45.4649 55.9032C45.9073 54.8352 46.6565 53.9223 47.6177 53.28C48.5789 52.6378 49.709 52.295 50.865 52.295C51.6328 52.2943 52.3931 52.4451 53.1026 52.7386C53.812 53.0321 54.4566 53.4626 54.9995 54.0055C55.5424 54.5484 55.9729 55.193 56.2664 55.9024C56.5599 56.6119 56.7107 57.3722 56.71 58.14Z" fill="#E0E0E0"/>
<path d="M44.2051 73.595L49.0751 67.77L50.8651 73.595H44.2051Z" fill="#EBEBEB"/>
<path d="M40.0899 48.025C36.0049 54.68 38.9599 62.945 43.5899 68.375C44.3049 69.21 45.5049 68 44.7949 67.17C40.6449 62.32 37.8799 54.85 41.5449 48.88C42.1249 47.945 40.6499 47.09 40.0749 48.025H40.0899Z" fill="#EBEBEB"/>
<path d="M60.2699 47.62L57.1499 50.815L60.2699 53.485L63.1099 50.555L60.2699 47.62Z" fill="#EBEBEB"/>
<path d="M65.6599 37.34L67.0299 38.71V89.055H33.2499L31.8799 87.685H65.6599V37.34Z" fill="#E0E0E0"/>
<path d="M27.04 141.73C27.04 137.475 32.04 133.87 38.965 132.64L32.13 124.47H56.285L49.445 132.64C56.365 133.87 61.375 137.475 61.375 141.73C61.375 146.42 55.3 180.7 47.29 188.23L49.79 191.23H38.6L41.1 188.23C33.115 180.7 27.04 146.42 27.04 141.73Z" fill="#F0F0F0"/>
<path d="M53.4602 176.88C50.5802 174.79 48.5952 170.455 48.5952 165.43C48.5952 158.37 52.5152 152.64 57.3452 152.64C58.1585 152.652 58.9616 152.822 59.7102 153.14C58.3252 160.335 56.1502 169.5 53.4602 176.88Z" fill="#E0E0E0"/>
<path d="M32.2798 134.87C35.4948 136.76 37.7798 141.37 37.7798 146.73C37.7798 153.3 34.3898 158.73 30.0298 159.43C28.1548 151.07 27.0298 143.725 27.0298 141.73C27.0398 139.035 29.0498 136.605 32.2798 134.87Z" fill="#E6E6E6"/>
<path d="M206.71 94.95C206.581 95.25 206.394 95.5218 206.16 95.75C206.036 95.8795 205.896 95.9936 205.745 96.09C205.353 96.3509 204.891 96.4853 204.42 96.475C204.089 96.4275 203.782 96.2751 203.545 96.0402C203.307 95.8052 203.151 95.5002 203.1 95.17C203.05 94.8589 203.092 94.5398 203.222 94.2526C203.352 93.9654 203.563 93.7228 203.83 93.555L204.09 93.98C203.909 94.0955 203.766 94.2608 203.677 94.456C203.588 94.6512 203.558 94.8679 203.59 95.08C203.665 95.495 204.04 95.965 204.43 95.98C204.819 95.974 205.199 95.8544 205.521 95.6359C205.843 95.4174 206.095 95.1095 206.245 94.75C206.387 94.4241 206.421 94.0618 206.344 93.715C206.267 93.3682 206.081 93.0549 205.815 92.82C205.595 92.5845 205.322 92.4047 205.018 92.2951C204.715 92.1856 204.39 92.1496 204.07 92.19C203.53 92.3071 203.022 92.5381 202.579 92.8675C202.136 93.1969 201.768 93.6171 201.5 94.1C200.255 96.145 200.34 98.54 200.625 100.19C200.825 101.269 201.142 102.324 201.57 103.335C201.655 103.545 201.745 103.755 201.84 103.96C202.19 104.755 202.58 105.525 202.96 106.285C203.995 108.35 205.06 110.475 205.375 112.915C205.405 113.135 205.43 113.365 205.445 113.595C205.46 113.825 205.47 114.03 205.475 114.25C205.475 114.395 205.475 114.545 205.475 114.69C205.5 120.07 202.91 124.965 198.65 127.6L198.545 127.07C202.46 124.57 204.925 119.87 204.97 114.865C204.97 114.81 204.97 114.75 204.97 114.69C204.97 114.525 204.97 114.355 204.97 114.19C204.97 114.025 204.97 113.815 204.94 113.63C204.94 113.52 204.94 113.41 204.91 113.3C204.869 112.873 204.802 112.449 204.71 112.03C204.3 110.08 203.425 108.335 202.51 106.53C201.98 105.47 201.44 104.395 201.01 103.265C200.81 102.765 200.63 102.265 200.475 101.72C200.339 101.251 200.229 100.776 200.145 100.295C199.71 97.795 200.035 95.585 201.08 93.86C201.39 93.3123 201.813 92.8374 202.322 92.4674C202.831 92.0974 203.413 91.8408 204.03 91.715C204.622 91.6336 205.223 91.7724 205.72 92.105C205.87 92.1987 206.01 92.3094 206.135 92.435C206.154 92.4485 206.173 92.4635 206.19 92.48C206.521 92.7877 206.748 93.1903 206.842 93.6325C206.935 94.0747 206.889 94.5349 206.71 94.95Z" fill="#E6E6E6"/>
<path d="M204.895 113.305C204.03 111.595 202.34 109.995 201.135 109.73L201.24 109.23C202.6 109.525 204.4 111.23 205.34 113.07L204.895 113.305Z" fill="#E6E6E6"/>
<path d="M205.425 114.85H204.925C204.911 114.268 205.02 113.689 205.246 113.152C205.472 112.615 205.809 112.132 206.235 111.735L206.575 112.105C206.2 112.455 205.903 112.88 205.704 113.354C205.506 113.827 205.411 114.337 205.425 114.85Z" fill="#E6E6E6"/>
<path d="M201 103.255C200.04 101.887 198.971 100.598 197.805 99.4L198.17 99.055C199.349 100.278 200.434 101.589 201.415 102.975L201 103.255Z" fill="#E6E6E6"/>
<path d="M202.017 102.242L201.345 103.793L201.804 103.992L202.476 102.441L202.017 102.242Z" fill="#E6E6E6"/>
<path d="M207.585 96.7C206.836 96.6194 206.118 96.3549 205.495 95.93L205.775 95.515C206.33 95.8957 206.971 96.1328 207.64 96.205L207.585 96.7Z" fill="#E6E6E6"/>
<path d="M206.135 90.7356L205.536 92.5599L206.011 92.7158L206.61 90.8915L206.135 90.7356Z" fill="#E6E6E6"/>
<path d="M204.31 98.46C204.498 98.3609 204.713 98.3244 204.924 98.3559C205.134 98.3874 205.329 98.4851 205.48 98.635C205.8 99.01 205.67 99.585 205.48 100.045C205.025 101.185 203.535 104.42 201.98 103.045C200.5 101.795 203.125 99 204.31 98.46Z" fill="#E6E6E6"/>
<path d="M199.075 98.91C199.2 99.0813 199.267 99.2879 199.267 99.5C199.267 99.7121 199.2 99.9187 199.075 100.09C198.745 100.46 198.16 100.415 197.68 100.3C196.485 100.015 193.065 99.01 194.18 97.3C195.225 95.63 198.37 97.81 199.075 98.91Z" fill="#E6E6E6"/>
<path d="M202.645 107.955C201.23 105.86 198.095 104.59 195.29 104.955C193.975 105.135 193.79 107.12 194.195 108.18C194.6 109.24 195.655 110.11 196.87 110.64C198.138 111.231 199.576 111.343 200.92 110.955C202.175 110.525 203.335 108.97 202.645 107.955Z" fill="#E6E6E6"/>
<path d="M211.795 107.855C210.295 107.65 208.715 107.56 207.345 108.185C205.975 108.81 204.915 110.365 205.345 111.815C205.501 112.333 205.835 112.779 206.288 113.076C206.74 113.372 207.283 113.499 207.82 113.435C208.935 113.32 209.89 112.6 210.7 111.825C211.269 111.347 211.701 110.725 211.95 110.025C212.145 109.31 212.53 107.955 211.795 107.855Z" fill="#E6E6E6"/>
<path d="M206.08 91.89C205.805 91.3464 205.688 90.7369 205.74 90.13C205.772 89.8279 205.884 89.5398 206.065 89.2961C206.246 89.0524 206.49 88.862 206.77 88.745C207.056 88.6445 207.37 88.6599 207.645 88.7879C207.92 88.916 208.133 89.1464 208.24 89.43C208.32 89.7697 208.316 90.1236 208.229 90.4615C208.142 90.7993 207.974 91.1111 207.74 91.37C207.541 91.6051 207.28 91.7788 206.986 91.8708C206.692 91.9629 206.378 91.9695 206.08 91.89Z" fill="#E6E6E6"/>
<path d="M211.855 98.04C211.425 98.4234 210.897 98.681 210.33 98.7846C209.763 98.8881 209.179 98.8337 208.641 98.6271C208.103 98.4206 207.632 98.0699 207.28 97.6136C206.928 97.1573 206.708 96.6129 206.645 96.04C207.079 95.6999 207.591 95.4755 208.135 95.3881C208.679 95.3006 209.237 95.3529 209.755 95.54C210.284 95.7517 210.752 96.0906 211.118 96.5267C211.485 96.9629 211.738 97.4827 211.855 98.04Z" fill="#E6E6E6"/>
<path d="M206 141.75L207.07 143.03H202.31L203.385 141.75C201.16 139.655 199.29 132.71 198.265 127.6L198.16 127.07C197.799 125.403 197.548 123.715 197.41 122.015C197.41 120.205 199.535 118.675 202.47 118.155L199.57 114.69H209.8L206.9 118.155C209.835 118.655 211.96 120.205 211.96 122.015C211.96 124 209.385 138.545 206 141.75Z" fill="#F0F0F0"/>
<path d="M122.59 211.855C176.131 211.855 219.535 209.321 219.535 206.195C219.535 203.069 176.131 200.535 122.59 200.535C69.0488 200.535 25.645 203.069 25.645 206.195C25.645 209.321 69.0488 211.855 122.59 211.855Z" fill="#F5F5F5"/>
<path d="M171.425 169.915H123.28C122.018 169.933 120.765 169.686 119.604 169.19C118.443 168.694 117.399 167.96 116.539 167.036C115.679 166.112 115.023 165.017 114.612 163.823C114.202 162.629 114.046 161.363 114.155 160.105L122.205 45.03C122.421 42.3822 123.617 39.9101 125.559 38.0969C127.5 36.2837 130.048 35.2597 132.705 35.225H180.85C182.112 35.2063 183.364 35.4525 184.525 35.9478C185.686 36.4432 186.73 37.1765 187.59 38.1006C188.45 39.0246 189.107 40.1188 189.518 41.3124C189.928 42.506 190.084 43.7724 189.975 45.03L181.925 160.105C181.709 162.753 180.513 165.226 178.571 167.04C176.63 168.854 174.082 169.879 171.425 169.915Z" fill="#4628F1"/>
<path d="M168.925 169.915H120.78C119.518 169.933 118.265 169.686 117.104 169.19C115.943 168.694 114.899 167.96 114.039 167.036C113.179 166.112 112.523 165.017 112.112 163.823C111.702 162.629 111.546 161.363 111.655 160.105L119.705 45.03C119.921 42.3822 121.117 39.9101 123.059 38.0969C125 36.2837 127.548 35.2597 130.205 35.225H178.35C179.612 35.2063 180.864 35.4525 182.025 35.9478C183.186 36.4432 184.23 37.1765 185.09 38.1006C185.95 39.0246 186.607 40.1188 187.018 41.3124C187.428 42.506 187.584 43.7724 187.475 45.03L179.425 160.105C179.209 162.753 178.013 165.226 176.071 167.04C174.13 168.854 171.582 169.879 168.925 169.915Z" fill="#263238"/>
<path d="M178.185 37.5H165.685C165.28 37.5064 164.89 37.6506 164.578 37.9087C164.266 38.1669 164.051 38.5236 163.97 38.92L163.895 39.315C163.696 40.2844 163.173 41.1569 162.411 41.788C161.649 42.4191 160.694 42.7709 159.705 42.785H147.795C146.848 42.8004 145.932 42.447 145.24 41.7995C144.549 41.152 144.136 40.2611 144.09 39.315V38.92C144.069 38.5362 143.902 38.1749 143.623 37.9107C143.344 37.6465 142.974 37.4994 142.59 37.5H130.09C128.044 37.5292 126.083 38.3191 124.588 39.7159C123.093 41.1127 122.172 43.0161 122.005 45.055L113.955 160.13C113.871 161.099 113.991 162.075 114.307 162.995C114.624 163.915 115.129 164.758 115.792 165.47C116.454 166.183 117.259 166.748 118.153 167.13C119.047 167.513 120.012 167.703 120.985 167.69H169.13C171.176 167.661 173.138 166.87 174.633 165.472C176.128 164.074 177.048 162.17 177.215 160.13L185.265 45.055C185.349 44.0819 185.228 43.1019 184.908 42.1788C184.589 41.2557 184.079 40.4103 183.411 39.6975C182.743 38.9848 181.932 38.4208 181.032 38.0421C180.131 37.6635 179.161 37.4788 178.185 37.5Z" fill="#4628F1"/>
<path opacity="0.8" d="M185.215 45.035L177.17 160.11C177.001 162.149 176.079 164.053 174.583 165.449C173.088 166.846 171.126 167.636 169.08 167.665H120.935C119.962 167.68 118.998 167.491 118.103 167.109C117.208 166.727 116.404 166.162 115.742 165.45C115.08 164.738 114.574 163.894 114.259 162.975C113.943 162.055 113.824 161.079 113.91 160.11L121.955 45.035C122.127 42.9997 123.05 41.1011 124.544 39.7085C126.039 38.3159 127.997 37.5287 130.04 37.5H142.54C142.925 37.4995 143.295 37.6472 143.575 37.9125C143.854 38.1778 144.02 38.5403 144.04 38.925V39.315C144.081 40.2655 144.491 41.1625 145.183 41.8159C145.875 42.4692 146.793 42.8276 147.745 42.815H159.64C160.633 42.8001 161.591 42.4442 162.353 41.807C163.115 41.1697 163.634 40.2899 163.825 39.315L163.905 38.925C163.987 38.5184 164.21 38.1535 164.533 37.8933C164.856 37.6331 165.26 37.494 165.675 37.5H178.175C179.146 37.4855 180.109 37.6744 181.003 38.0546C181.897 38.4348 182.701 38.9979 183.364 39.7076C184.027 40.4173 184.535 41.258 184.853 42.1755C185.172 43.093 185.295 44.067 185.215 45.035Z" fill="white"/>
<path d="M178.135 146.28L177.17 160.11C177.001 162.149 176.079 164.053 174.583 165.449C173.088 166.846 171.126 167.636 169.08 167.665H120.935C119.962 167.68 118.998 167.491 118.103 167.109C117.208 166.727 116.404 166.162 115.742 165.45C115.08 164.738 114.574 163.894 114.259 162.975C113.943 162.055 113.824 161.079 113.91 160.11L114.875 146.28H178.135Z" fill="#263238"/>
<path opacity="0.5" d="M178.135 146.28L177.17 160.11C177.001 162.149 176.079 164.053 174.583 165.449C173.088 166.846 171.126 167.636 169.08 167.665H120.935C119.962 167.68 118.998 167.491 118.103 167.109C117.208 166.727 116.404 166.162 115.742 165.45C115.08 164.738 114.574 163.894 114.259 162.975C113.943 162.055 113.824 161.079 113.91 160.11L114.875 146.28H178.135Z" fill="white"/>
<g opacity="0.7">
<path d="M151.11 38.75C151.09 39.0045 150.977 39.2427 150.793 39.419C150.608 39.5953 150.365 39.6971 150.11 39.705C149.987 39.7076 149.864 39.6842 149.751 39.6363C149.637 39.5883 149.535 39.5169 149.451 39.4268C149.367 39.3366 149.303 39.2297 149.263 39.1131C149.223 38.9965 149.209 38.8727 149.22 38.75C149.24 38.4955 149.353 38.2573 149.537 38.081C149.722 37.9047 149.965 37.8029 150.22 37.795C150.343 37.7924 150.466 37.8158 150.579 37.8637C150.693 37.9117 150.795 37.9831 150.879 38.0733C150.963 38.1634 151.027 38.2703 151.067 38.3869C151.107 38.5036 151.121 38.6273 151.11 38.75Z" fill="black"/>
<path d="M157.96 37.795H154.68C154.421 37.7979 154.172 37.8974 153.983 38.074C153.793 38.2507 153.676 38.4917 153.655 38.75C153.645 38.8725 153.66 38.9959 153.7 39.1122C153.74 39.2285 153.804 39.3351 153.888 39.425C153.972 39.515 154.074 39.5864 154.187 39.6347C154.3 39.6829 154.422 39.7068 154.545 39.705H157.825C158.08 39.6971 158.323 39.5953 158.508 39.419C158.693 39.2427 158.805 39.0045 158.825 38.75C158.836 38.6294 158.822 38.5078 158.784 38.3929C158.745 38.278 158.684 38.1723 158.602 38.0826C158.521 37.9928 158.422 37.9209 158.311 37.8714C158.201 37.8219 158.081 37.7959 157.96 37.795Z" fill="black"/>
</g>
<path d="M127.355 42.745H128.365L128.435 41.73H127.425L127.355 42.745Z" fill="#4628F1"/>
<path d="M129.45 41.73L129.38 42.745H130.39L130.465 41.73L130.535 40.72H129.52L129.45 41.73Z" fill="#4628F1"/>
<path d="M131.615 39.705L131.545 40.72L131.475 41.73L131.405 42.745H132.415L132.49 41.73L132.56 40.72L132.63 39.705H131.615Z" fill="#4628F1"/>
<path d="M175.15 39.775L175.1 40.5H174.6L174.5 42H175L174.95 42.745H179.405L179.61 39.775H175.15ZM177 42H175.5L175.605 40.5H177.105L177 42Z" fill="#4628F1"/>
<path d="M130.225 97.16H129.885C129.831 97.1609 129.777 97.1504 129.727 97.1292C129.678 97.108 129.633 97.0766 129.596 97.037C129.559 96.9974 129.531 96.9504 129.514 96.8993C129.496 96.8481 129.49 96.7938 129.495 96.74L129.995 89.575C130.053 88.8903 130.364 88.2518 130.866 87.7833C131.369 87.3148 132.028 87.0499 132.715 87.04H139.875C139.929 87.039 139.982 87.0495 140.032 87.0707C140.082 87.0919 140.127 87.1233 140.163 87.1629C140.2 87.2026 140.228 87.2495 140.246 87.3007C140.263 87.3518 140.27 87.4061 140.265 87.46V87.795C140.257 87.909 140.206 88.0159 140.123 88.094C140.039 88.172 139.929 88.2152 139.815 88.215H132.63C132.263 88.2244 131.912 88.368 131.644 88.6186C131.376 88.8693 131.209 89.2095 131.175 89.575L130.675 96.74C130.665 96.8532 130.613 96.9588 130.53 97.0363C130.447 97.1139 130.338 97.1579 130.225 97.16Z" fill="#4628F1"/>
<path d="M157.385 126.73L157.41 126.39C157.419 126.277 157.469 126.172 157.551 126.094C157.634 126.016 157.742 125.972 157.855 125.97H165C165.368 125.962 165.72 125.819 165.989 125.568C166.258 125.317 166.426 124.976 166.46 124.61L166.96 117.445C166.969 117.331 167.02 117.225 167.103 117.147C167.186 117.07 167.296 117.026 167.41 117.025H167.745C167.799 117.024 167.853 117.035 167.903 117.056C167.953 117.077 167.998 117.108 168.035 117.148C168.072 117.187 168.101 117.234 168.119 117.285C168.137 117.337 168.144 117.391 168.14 117.445L167.64 124.61C167.584 125.295 167.275 125.935 166.773 126.404C166.271 126.874 165.612 127.14 164.925 127.15H157.775C157.721 127.15 157.668 127.139 157.618 127.118C157.569 127.096 157.525 127.065 157.488 127.025C157.451 126.986 157.423 126.939 157.406 126.888C157.388 126.838 157.381 126.784 157.385 126.73Z" fill="#4628F1"/>
<path d="M169.155 97.16H168.815C168.761 97.1609 168.707 97.1504 168.658 97.1293C168.608 97.1081 168.563 97.0766 168.526 97.037C168.49 96.9974 168.461 96.9505 168.444 96.8993C168.427 96.8481 168.42 96.7938 168.425 96.74L168.925 89.63C168.952 89.3462 168.889 89.061 168.745 88.815C168.631 88.6302 168.472 88.4781 168.281 88.3738C168.091 88.2695 167.877 88.2165 167.66 88.22H160.5C160.446 88.2202 160.393 88.2092 160.344 88.1877C160.294 88.1663 160.25 88.1348 160.213 88.0954C160.176 88.0559 160.148 88.0093 160.131 87.9585C160.113 87.9076 160.106 87.8537 160.11 87.8L160.135 87.46C160.144 87.3463 160.195 87.2401 160.278 87.1623C160.362 87.0846 160.471 87.0409 160.585 87.04H167.65C168.263 87.0238 168.861 87.2338 169.33 87.63C169.603 87.8715 169.816 88.1737 169.952 88.5123C170.087 88.851 170.141 89.2166 170.11 89.58L169.61 96.74C169.6 96.8541 169.548 96.9603 169.464 97.038C169.38 97.1157 169.27 97.1592 169.155 97.16Z" fill="#4628F1"/>
<path d="M129.905 127.15C129.54 127.155 129.18 127.075 128.852 126.916C128.523 126.757 128.237 126.524 128.015 126.235C127.654 125.738 127.488 125.126 127.55 124.515L128.05 117.445C128.06 117.332 128.111 117.226 128.194 117.149C128.277 117.071 128.386 117.027 128.5 117.025H128.84C128.894 117.025 128.947 117.036 128.996 117.057C129.046 117.079 129.09 117.11 129.127 117.15C129.163 117.189 129.191 117.236 129.209 117.287C129.227 117.337 129.234 117.391 129.23 117.445L128.73 124.565C128.702 124.847 128.765 125.131 128.91 125.375C129.023 125.559 129.182 125.711 129.371 125.815C129.561 125.919 129.774 125.973 129.99 125.97H137.15C137.204 125.969 137.258 125.98 137.308 126.001C137.358 126.022 137.403 126.053 137.44 126.093C137.477 126.132 137.506 126.179 137.524 126.23C137.542 126.282 137.549 126.336 137.545 126.39V126.73C137.535 126.843 137.483 126.949 137.4 127.026C137.317 127.104 137.208 127.148 137.095 127.15H129.905Z" fill="#4628F1"/>
<path d="M136.7 137.255C136.552 137.417 136.371 137.546 136.169 137.632C135.967 137.718 135.749 137.76 135.53 137.755C134.905 137.755 134.485 137.53 133.885 136.845C133.623 136.825 133.369 136.753 133.136 136.633C132.902 136.514 132.695 136.348 132.527 136.148C132.358 135.947 132.232 135.715 132.154 135.464C132.076 135.214 132.049 134.951 132.075 134.69C132.123 134.083 132.405 133.518 132.861 133.113C133.316 132.709 133.911 132.496 134.52 132.52C134.809 132.498 135.1 132.539 135.372 132.641C135.644 132.742 135.891 132.902 136.095 133.108C136.299 133.315 136.456 133.563 136.554 133.836C136.652 134.109 136.69 134.401 136.665 134.69C136.633 135.159 136.46 135.607 136.166 135.974C135.873 136.342 135.475 136.61 135.025 136.745C135.09 136.835 135.176 136.908 135.275 136.958C135.374 137.009 135.484 137.035 135.595 137.035C135.727 137.034 135.858 137.006 135.979 136.953C136.101 136.9 136.21 136.822 136.3 136.725L136.7 137.255ZM134.275 136.05C134.639 136.054 134.99 135.916 135.253 135.664C135.517 135.413 135.672 135.069 135.685 134.705C135.708 134.534 135.694 134.359 135.643 134.194C135.592 134.029 135.505 133.877 135.388 133.749C135.272 133.622 135.129 133.521 134.969 133.455C134.81 133.388 134.637 133.358 134.465 133.365C134.101 133.361 133.751 133.498 133.488 133.749C133.224 133.999 133.069 134.342 133.055 134.705C133.03 134.877 133.044 135.052 133.095 135.217C133.146 135.383 133.232 135.536 133.349 135.664C133.465 135.792 133.609 135.893 133.769 135.96C133.929 136.027 134.101 136.058 134.275 136.05Z" fill="#263238"/>
<path d="M139.93 136.805L139.2 135.635H138.305L138.225 136.805H137.255L137.55 132.61H139.365C140.485 132.61 141.145 133.19 141.08 134.11C141.066 134.4 140.968 134.679 140.799 134.914C140.629 135.149 140.395 135.33 140.125 135.435L140.97 136.785L139.93 136.805ZM139.255 133.4H138.465L138.36 134.865H139.155C139.745 134.865 140.065 134.585 140.1 134.13C140.135 133.675 139.85 133.4 139.255 133.4Z" fill="#263238"/>
<path d="M143.245 134.705C143.29 134.099 143.568 133.534 144.022 133.129C144.475 132.724 145.068 132.511 145.675 132.535C145.994 132.517 146.312 132.575 146.603 132.704C146.894 132.834 147.151 133.031 147.35 133.28L146.685 133.855C146.569 133.699 146.418 133.573 146.244 133.486C146.071 133.4 145.879 133.355 145.685 133.355C145.318 133.344 144.961 133.479 144.692 133.73C144.423 133.981 144.264 134.328 144.25 134.695C144.226 134.869 144.241 135.046 144.294 135.214C144.347 135.382 144.436 135.535 144.556 135.664C144.676 135.793 144.822 135.893 144.986 135.958C145.149 136.023 145.325 136.051 145.5 136.04C145.707 136.04 145.911 135.995 146.099 135.908C146.288 135.822 146.455 135.696 146.59 135.54L147.17 136.115C146.944 136.361 146.668 136.556 146.36 136.685C146.052 136.815 145.719 136.876 145.385 136.865C145.097 136.886 144.808 136.845 144.537 136.743C144.266 136.642 144.021 136.483 143.818 136.278C143.614 136.073 143.458 135.826 143.359 135.554C143.26 135.283 143.221 134.993 143.245 134.705Z" fill="#263238"/>
<path d="M147.555 134.705C147.604 134.098 147.885 133.533 148.341 133.128C148.797 132.724 149.391 132.511 150 132.535C150.29 132.513 150.58 132.554 150.852 132.656C151.124 132.757 151.371 132.917 151.575 133.123C151.779 133.33 151.936 133.578 152.034 133.851C152.133 134.124 152.171 134.416 152.145 134.705C152.098 135.313 151.817 135.88 151.361 136.285C150.905 136.691 150.31 136.904 149.7 136.88C149.41 136.902 149.119 136.861 148.846 136.759C148.574 136.657 148.327 136.497 148.123 136.29C147.919 136.083 147.762 135.834 147.664 135.56C147.566 135.287 147.529 134.995 147.555 134.705ZM151.165 134.705C151.189 134.534 151.174 134.359 151.123 134.194C151.072 134.029 150.985 133.877 150.869 133.75C150.752 133.622 150.609 133.521 150.45 133.455C150.29 133.388 150.118 133.358 149.945 133.365C149.582 133.361 149.231 133.498 148.968 133.749C148.705 133.999 148.549 134.342 148.535 134.705C148.511 134.877 148.524 135.052 148.575 135.217C148.626 135.383 148.713 135.536 148.829 135.664C148.946 135.792 149.089 135.894 149.249 135.96C149.409 136.027 149.582 136.058 149.755 136.05C150.119 136.054 150.47 135.916 150.734 135.665C150.997 135.413 151.152 135.069 151.165 134.705Z" fill="#263238"/>
<path d="M153.025 132.61H154.935C156.305 132.61 157.19 133.435 157.1 134.705C157.01 135.975 156.015 136.805 154.64 136.805H152.735L153.025 132.61ZM154.65 136.01C154.833 136.024 155.017 136.001 155.191 135.943C155.365 135.885 155.525 135.792 155.662 135.67C155.799 135.548 155.911 135.4 155.989 135.234C156.068 135.068 156.112 134.888 156.12 134.705C156.142 134.53 156.125 134.352 156.068 134.184C156.011 134.017 155.917 133.865 155.793 133.739C155.668 133.614 155.517 133.519 155.35 133.461C155.183 133.403 155.005 133.384 154.83 133.405H153.945L153.76 136.01H154.65Z" fill="#263238"/>
<path d="M161 136.025L160.945 136.805H157.695L157.99 132.61H161.16L161.105 133.39H158.9L158.835 134.3H160.785L160.73 135.055H158.78L158.715 136.025H161Z" fill="#263238"/>
<path d="M183.46 70.115H120.03L121.525 48.73H184.955L183.46 70.115Z" fill="#4628F1"/>
<path opacity="0.2" d="M114.04 159.705C113.96 160.687 114.087 161.674 114.414 162.604C114.74 163.533 115.258 164.384 115.935 165.1L183.325 39.1C182.667 38.4467 181.887 37.9305 181.029 37.5811C180.17 37.2318 179.251 37.0564 178.325 37.065H130.175C128.129 37.0965 126.168 37.888 124.674 39.2853C123.179 40.6827 122.258 42.586 122.09 44.625L114.04 159.705Z" fill="white"/>
<path d="M137.139 52.5087L136.179 66.3154L136.678 66.3501L137.638 52.5434L137.139 52.5087Z" fill="#E0E0E0"/>
<path d="M152.957 52.5069L151.997 66.3135L152.495 66.3482L153.456 52.5416L152.957 52.5069Z" fill="#E0E0E0"/>
<path d="M168.75 52.4976L167.792 66.3044L168.291 66.339L169.249 52.5322L168.75 52.4976Z" fill="#E0E0E0"/>
<path d="M133.275 90.21L133.185 91.55H134.525L134.62 90.21H133.275Z" fill="#263238"/>
<path d="M134.62 90.21L134.525 91.55H135.87L135.96 90.21H134.62Z" fill="#263238"/>
<path d="M135.96 90.21L135.87 91.55H137.21L137.305 90.21H135.96Z" fill="#263238"/>
<path d="M137.305 90.21L137.21 91.55H138.555L138.645 90.21H137.305Z" fill="#263238"/>
<path d="M138.645 90.21L138.555 91.55H139.895L139.99 90.21H138.645Z" fill="#263238"/>
<path d="M139.99 90.21L139.895 91.55H141.24L141.335 90.21H139.99Z" fill="#263238"/>
<path d="M141.335 90.21L141.24 91.55H142.58L142.675 90.21H141.335Z" fill="#263238"/>
<path d="M146.705 90.21L146.61 91.55H147.95L148.045 90.21H146.705Z" fill="#263238"/>
<path d="M150.73 90.21L150.635 91.55H151.98L152.075 90.21H150.73Z" fill="#263238"/>
<path d="M152.075 90.21L151.98 91.55H153.32L153.415 90.21H152.075Z" fill="#263238"/>
<path d="M153.415 90.21L153.32 91.55H154.665L154.76 90.21H153.415Z" fill="#263238"/>
<path d="M154.76 90.21L154.665 91.55H156.005L156.1 90.21H154.76Z" fill="#263238"/>
<path d="M157.445 90.21L157.35 91.55H158.69L158.785 90.21H157.445Z" fill="#263238"/>
<path d="M158.785 90.21L158.69 91.55H160.035L160.13 90.21H158.785Z" fill="#263238"/>
<path d="M160.13 90.21L160.035 91.55H161.38L161.47 90.21H160.13Z" fill="#263238"/>
<path d="M161.47 90.21L161.38 91.55H162.72L162.815 90.21H161.47Z" fill="#263238"/>
<path d="M162.815 90.21L162.72 91.55H164.065L164.155 90.21H162.815Z" fill="#263238"/>
<path d="M164.155 90.21L164.065 91.55H165.405L165.5 90.21H164.155Z" fill="#263238"/>
<path d="M165.5 90.21L165.405 91.55H166.75L166.845 90.21H165.5Z" fill="#263238"/>
<path d="M133.185 91.55L133.09 92.895H134.43L134.525 91.55H133.185Z" fill="#263238"/>
<path d="M141.24 91.55L141.145 92.895H142.485L142.58 91.55H141.24Z" fill="#263238"/>
<path d="M145.265 91.55L145.175 92.895H146.515L146.61 91.55H145.265Z" fill="#263238"/>
<path d="M151.98 91.55L151.885 92.895H153.23L153.32 91.55H151.98Z" fill="#263238"/>
<path d="M153.32 91.55L153.23 92.895H154.57L154.665 91.55H153.32Z" fill="#263238"/>
<path d="M154.665 91.55L154.57 92.895H155.915L156.005 91.55H154.665Z" fill="#263238"/>
<path d="M157.35 91.55L157.255 92.895H158.6L158.69 91.55H157.35Z" fill="#263238"/>
<path d="M165.405 91.55L165.31 92.895H166.655L166.75 91.55H165.405Z" fill="#263238"/>
<path d="M133.09 92.895L132.995 94.235H134.34L134.43 92.895H133.09Z" fill="#263238"/>
<path d="M135.775 92.895L135.68 94.235H137.025L137.115 92.895H135.775Z" fill="#263238"/>
<path d="M137.115 92.895L137.025 94.235H138.365L138.46 92.895H137.115Z" fill="#263238"/>
<path d="M138.46 92.895L138.365 94.235H139.71L139.8 92.895H138.46Z" fill="#263238"/>
<path d="M141.145 92.895L141.05 94.235H142.395L142.485 92.895H141.145Z" fill="#263238"/>
<path d="M143.83 92.895L143.735 94.235H145.08L145.175 92.895H143.83Z" fill="#263238"/>
<path d="M147.86 92.895L147.765 94.235H149.105L149.2 92.895H147.86Z" fill="#263238"/>
<path d="M151.885 92.895L151.79 94.235H153.135L153.23 92.895H151.885Z" fill="#263238"/>
<path d="M157.255 92.895L157.16 94.235H158.505L158.6 92.895H157.255Z" fill="#263238"/>
<path d="M159.94 92.895L159.845 94.235H161.19L161.285 92.895H159.94Z" fill="#263238"/>
<path d="M161.285 92.895L161.19 94.235H162.535L162.625 92.895H161.285Z" fill="#263238"/>
<path d="M162.625 92.895L162.535 94.235H163.875L163.97 92.895H162.625Z" fill="#263238"/>
<path d="M165.31 92.895L165.22 94.235H166.56L166.655 92.895H165.31Z" fill="#263238"/>
<path d="M132.995 94.235L132.9 95.58H134.245L134.34 94.235H132.995Z" fill="#263238"/>
<path d="M135.68 94.235L135.585 95.58H136.93L137.025 94.235H135.68Z" fill="#263238"/>
<path d="M137.025 94.235L136.93 95.58H138.27L138.365 94.235H137.025Z" fill="#263238"/>
<path d="M138.365 94.235L138.27 95.58H139.615L139.71 94.235H138.365Z" fill="#263238"/>
<path d="M141.05 94.235L140.955 95.58H142.3L142.395 94.235H141.05Z" fill="#263238"/>
<path d="M145.08 94.235L144.985 95.58H146.325L146.42 94.235H145.08Z" fill="#263238"/>
<path d="M151.79 94.235L151.7 95.58H153.04L153.135 94.235H151.79Z" fill="#263238"/>
<path d="M153.135 94.235L153.04 95.58H154.385L154.475 94.235H153.135Z" fill="#263238"/>
<path d="M157.16 94.235L157.07 95.58H158.41L158.505 94.235H157.16Z" fill="#263238"/>
<path d="M159.845 94.235L159.755 95.58H161.095L161.19 94.235H159.845Z" fill="#263238"/>
<path d="M161.19 94.235L161.095 95.58H162.44L162.535 94.235H161.19Z" fill="#263238"/>
<path d="M162.535 94.235L162.44 95.58H163.78L163.875 94.235H162.535Z" fill="#263238"/>
<path d="M165.22 94.235L165.125 95.58H166.465L166.56 94.235H165.22Z" fill="#263238"/>
<path d="M132.9 95.58L132.805 96.92H134.15L134.245 95.58H132.9Z" fill="#263238"/>
<path d="M135.585 95.58L135.495 96.92H136.835L136.93 95.58H135.585Z" fill="#263238"/>
<path d="M136.93 95.58L136.835 96.92H138.18L138.27 95.58H136.93Z" fill="#263238"/>
<path d="M138.27 95.58L138.18 96.92H139.52L139.615 95.58H138.27Z" fill="#263238"/>
<path d="M140.955 95.58L140.865 96.92H142.205L142.3 95.58H140.955Z" fill="#263238"/>
<path d="M144.985 95.58L144.89 96.92H146.235L146.325 95.58H144.985Z" fill="#263238"/>
<path d="M149.01 95.58L148.92 96.92H150.26L150.355 95.58H149.01Z" fill="#263238"/>
<path d="M150.355 95.58L150.26 96.92H151.605L151.7 95.58H150.355Z" fill="#263238"/>
<path d="M151.7 95.58L151.605 96.92H152.945L153.04 95.58H151.7Z" fill="#263238"/>
<path d="M153.04 95.58L152.945 96.92H154.29L154.385 95.58H153.04Z" fill="#263238"/>
<path d="M157.07 95.58L156.975 96.92H158.315L158.41 95.58H157.07Z" fill="#263238"/>
<path d="M159.755 95.58L159.66 96.92H161L161.095 95.58H159.755Z" fill="#263238"/>
<path d="M161.095 95.58L161 96.92H162.345L162.44 95.58H161.095Z" fill="#263238"/>
<path d="M162.44 95.58L162.345 96.92H163.69L163.78 95.58H162.44Z" fill="#263238"/>
<path d="M165.125 95.58L165.03 96.92H166.375L166.465 95.58H165.125Z" fill="#263238"/>
<path d="M132.805 96.92L132.715 98.265H134.055L134.15 96.92H132.805Z" fill="#263238"/>
<path d="M140.865 96.92L140.77 98.265H142.11L142.205 96.92H140.865Z" fill="#263238"/>
<path d="M146.235 96.92L146.14 98.265H147.48L147.575 96.92H146.235Z" fill="#263238"/>
<path d="M147.575 96.92L147.48 98.265H148.825L148.92 96.92H147.575Z" fill="#263238"/>
<path d="M150.26 96.92L150.165 98.265H151.51L151.605 96.92H150.26Z" fill="#263238"/>
<path d="M151.605 96.92L151.51 98.265H152.85L152.945 96.92H151.605Z" fill="#263238"/>
<path d="M152.945 96.92L152.85 98.265H154.195L154.29 96.92H152.945Z" fill="#263238"/>
<path d="M154.29 96.92L154.195 98.265H155.54L155.63 96.92H154.29Z" fill="#263238"/>
<path d="M156.975 96.92L156.88 98.265H158.225L158.315 96.92H156.975Z" fill="#263238"/>
<path d="M165.03 96.92L164.935 98.265H166.28L166.375 96.92H165.03Z" fill="#263238"/>
<path d="M132.715 98.265L132.62 99.61H133.96L134.055 98.265H132.715Z" fill="#263238"/>
<path d="M134.055 98.265L133.96 99.61H135.305L135.4 98.265H134.055Z" fill="#263238"/>
<path d="M135.4 98.265L135.305 99.61H136.645L136.74 98.265H135.4Z" fill="#263238"/>
<path d="M136.74 98.265L136.645 99.61H137.99L138.085 98.265H136.74Z" fill="#263238"/>
<path d="M138.085 98.265L137.99 99.61H139.335L139.425 98.265H138.085Z" fill="#263238"/>
<path d="M139.425 98.265L139.335 99.61H140.675L140.77 98.265H139.425Z" fill="#263238"/>
<path d="M140.77 98.265L140.675 99.61H142.02L142.11 98.265H140.77Z" fill="#263238"/>
<path d="M143.455 98.265L143.36 99.61H144.705L144.795 98.265H143.455Z" fill="#263238"/>
<path d="M146.14 98.265L146.045 99.61H147.39L147.48 98.265H146.14Z" fill="#263238"/>
<path d="M148.825 98.265L148.73 99.61H150.075L150.165 98.265H148.825Z" fill="#263238"/>
<path d="M151.51 98.265L151.415 99.61H152.76L152.85 98.265H151.51Z" fill="#263238"/>
<path d="M154.195 98.265L154.1 99.61H155.445L155.54 98.265H154.195Z" fill="#263238"/>
<path d="M156.88 98.265L156.785 99.61H158.13L158.225 98.265H156.88Z" fill="#263238"/>
<path d="M158.225 98.265L158.13 99.61H159.47L159.565 98.265H158.225Z" fill="#263238"/>
<path d="M159.565 98.265L159.47 99.61H160.815L160.91 98.265H159.565Z" fill="#263238"/>
<path d="M160.91 98.265L160.815 99.61H162.155L162.25 98.265H160.91Z" fill="#263238"/>
<path d="M162.25 98.265L162.155 99.61H163.5L163.595 98.265H162.25Z" fill="#263238"/>
<path d="M163.595 98.265L163.5 99.61H164.845L164.935 98.265H163.595Z" fill="#263238"/>
<path d="M164.935 98.265L164.845 99.61H166.185L166.28 98.265H164.935Z" fill="#263238"/>
<path d="M143.36 99.61L143.265 100.95H144.61L144.705 99.61H143.36Z" fill="#263238"/>
<path d="M148.73 99.61L148.635 100.95H149.98L150.075 99.61H148.73Z" fill="#263238"/>
<path d="M150.075 99.61L149.98 100.95H151.32L151.415 99.61H150.075Z" fill="#263238"/>
<path d="M154.1 99.61L154.005 100.95H155.35L155.445 99.61H154.1Z" fill="#263238"/>
<path d="M132.525 100.95L132.43 102.295H133.775L133.87 100.95H132.525Z" fill="#263238"/>
<path d="M133.87 100.95L133.775 102.295H135.115L135.21 100.95H133.87Z" fill="#263238"/>
<path d="M135.21 100.95L135.115 102.295H136.46L136.555 100.95H135.21Z" fill="#263238"/>
<path d="M137.895 100.95L137.8 102.295H139.145L139.24 100.95H137.895Z" fill="#263238"/>
<path d="M139.24 100.95L139.145 102.295H140.49L140.58 100.95H139.24Z" fill="#263238"/>
<path d="M140.58 100.95L140.49 102.295H141.83L141.925 100.95H140.58Z" fill="#263238"/>
<path d="M141.925 100.95L141.83 102.295H143.175L143.265 100.95H141.925Z" fill="#263238"/>
<path d="M143.265 100.95L143.175 102.295H144.515L144.61 100.95H143.265Z" fill="#263238"/>
<path d="M147.295 100.95L147.2 102.295H148.545L148.635 100.95H147.295Z" fill="#263238"/>
<path d="M148.635 100.95L148.545 102.295H149.885L149.98 100.95H148.635Z" fill="#263238"/>
<path d="M149.98 100.95L149.885 102.295H151.23L151.32 100.95H149.98Z" fill="#263238"/>
<path d="M154.005 100.95L153.915 102.295H155.255L155.35 100.95H154.005Z" fill="#263238"/>
<path d="M155.35 100.95L155.255 102.295H156.6L156.695 100.95H155.35Z" fill="#263238"/>
<path d="M156.695 100.95L156.6 102.295H157.94L158.035 100.95H156.695Z" fill="#263238"/>
<path d="M162.065 100.95L161.97 102.295H163.31L163.405 100.95H162.065Z" fill="#263238"/>
<path d="M135.115 102.295L135.025 103.635H136.365L136.46 102.295H135.115Z" fill="#263238"/>
<path d="M136.46 102.295L136.365 103.635H137.71L137.8 102.295H136.46Z" fill="#263238"/>
<path d="M137.8 102.295L137.71 103.635H139.05L139.145 102.295H137.8Z" fill="#263238"/>
<path d="M141.83 102.295L141.735 103.635H143.08L143.175 102.295H141.83Z" fill="#263238"/>
<path d="M143.175 102.295L143.08 103.635H144.42L144.515 102.295H143.175Z" fill="#263238"/>
<path d="M144.515 102.295L144.42 103.635H145.765L145.86 102.295H144.515Z" fill="#263238"/>
<path d="M147.2 102.295L147.105 103.635H148.45L148.545 102.295H147.2Z" fill="#263238"/>
<path d="M148.545 102.295L148.45 103.635H149.79L149.885 102.295H148.545Z" fill="#263238"/>
<path d="M153.915 102.295L153.82 103.635H155.16L155.255 102.295H153.915Z" fill="#263238"/>
<path d="M156.6 102.295L156.505 103.635H157.845L157.94 102.295H156.6Z" fill="#263238"/>
<path d="M164.655 102.295L164.56 103.635H165.905L166 102.295H164.655Z" fill="#263238"/>
<path d="M135.025 103.635L134.93 104.98H136.27L136.365 103.635H135.025Z" fill="#263238"/>
<path d="M140.395 103.635L140.3 104.98H141.64L141.735 103.635H140.395Z" fill="#263238"/>
<path d="M141.735 103.635L141.64 104.98H142.985L143.08 103.635H141.735Z" fill="#263238"/>
<path d="M145.765 103.635L145.67 104.98H147.01L147.105 103.635H145.765Z" fill="#263238"/>
<path d="M148.45 103.635L148.355 104.98H149.7L149.79 103.635H148.45Z" fill="#263238"/>
<path d="M151.135 103.635L151.04 104.98H152.385L152.475 103.635H151.135Z" fill="#263238"/>
<path d="M156.505 103.635L156.41 104.98H157.755L157.845 103.635H156.505Z" fill="#263238"/>
<path d="M157.845 103.635L157.755 104.98H159.095L159.19 103.635H157.845Z" fill="#263238"/>
<path d="M159.19 103.635L159.095 104.98H160.44L160.535 103.635H159.19Z" fill="#263238"/>
<path d="M161.875 103.635L161.78 104.98H163.125L163.22 103.635H161.875Z" fill="#263238"/>
<path d="M163.22 103.635L163.125 104.98H164.465L164.56 103.635H163.22Z" fill="#263238"/>
<path d="M164.56 103.635L164.465 104.98H165.81L165.905 103.635H164.56Z" fill="#263238"/>
<path d="M132.245 104.98L132.15 106.32H133.495L133.585 104.98H132.245Z" fill="#263238"/>
<path d="M133.585 104.98L133.495 106.32H134.835L134.93 104.98H133.585Z" fill="#263238"/>
<path d="M134.93 104.98L134.835 106.32H136.18L136.27 104.98H134.93Z" fill="#263238"/>
<path d="M137.615 104.98L137.52 106.32H138.865L138.955 104.98H137.615Z" fill="#263238"/>
<path d="M144.325 104.98L144.235 106.32H145.575L145.67 104.98H144.325Z" fill="#263238"/>
<path d="M145.67 104.98L145.575 106.32H146.92L147.01 104.98H145.67Z" fill="#263238"/>
<path d="M148.355 104.98L148.26 106.32H149.605L149.7 104.98H148.355Z" fill="#263238"/>
<path d="M149.7 104.98L149.605 106.32H150.945L151.04 104.98H149.7Z" fill="#263238"/>
<path d="M151.04 104.98L150.945 106.32H152.29L152.385 104.98H151.04Z" fill="#263238"/>
<path d="M152.385 104.98L152.29 106.32H153.63L153.725 104.98H152.385Z" fill="#263238"/>
<path d="M155.07 104.98L154.975 106.32H156.315L156.41 104.98H155.07Z" fill="#263238"/>
<path d="M156.41 104.98L156.315 106.32H157.66L157.755 104.98H156.41Z" fill="#263238"/>
<path d="M157.755 104.98L157.66 106.32H159L159.095 104.98H157.755Z" fill="#263238"/>
<path d="M163.125 104.98L163.03 106.32H164.375L164.465 104.98H163.125Z" fill="#263238"/>
<path d="M134.835 106.32L134.74 107.665H136.085L136.18 106.32H134.835Z" fill="#263238"/>
<path d="M136.18 106.32L136.085 107.665H137.425L137.52 106.32H136.18Z" fill="#263238"/>
<path d="M140.205 106.32L140.11 107.665H141.455L141.55 106.32H140.205Z" fill="#263238"/>
<path d="M142.89 106.32L142.795 107.665H144.14L144.235 106.32H142.89Z" fill="#263238"/>
<path d="M145.575 106.32L145.48 107.665H146.825L146.92 106.32H145.575Z" fill="#263238"/>
<path d="M149.605 106.32L149.51 107.665H150.855L150.945 106.32H149.605Z" fill="#263238"/>
<path d="M153.63 106.32L153.54 107.665H154.88L154.975 106.32H153.63Z" fill="#263238"/>
<path d="M154.975 106.32L154.88 107.665H156.225L156.315 106.32H154.975Z" fill="#263238"/>
<path d="M156.315 106.32L156.225 107.665H157.565L157.66 106.32H156.315Z" fill="#263238"/>
<path d="M157.66 106.32L157.565 107.665H158.91L159 106.32H157.66Z" fill="#263238"/>
<path d="M160.345 106.32L160.25 107.665H161.595L161.69 106.32H160.345Z" fill="#263238"/>
<path d="M163.03 106.32L162.935 107.665H164.28L164.375 106.32H163.03Z" fill="#263238"/>
<path d="M164.375 106.32L164.28 107.665H165.62L165.715 106.32H164.375Z" fill="#263238"/>
<path d="M138.77 107.665L138.675 109.005H140.02L140.11 107.665H138.77Z" fill="#263238"/>
<path d="M141.455 107.665L141.36 109.005H142.705L142.795 107.665H141.455Z" fill="#263238"/>
<path d="M142.795 107.665L142.705 109.005H144.045L144.14 107.665H142.795Z" fill="#263238"/>
<path d="M145.48 107.665L145.39 109.005H146.73L146.825 107.665H145.48Z" fill="#263238"/>
<path d="M148.165 107.665L148.075 109.005H149.415L149.51 107.665H148.165Z" fill="#263238"/>
<path d="M153.54 107.665L153.445 109.005H154.785L154.88 107.665H153.54Z" fill="#263238"/>
<path d="M154.88 107.665L154.785 109.005H156.13L156.225 107.665H154.88Z" fill="#263238"/>
<path d="M156.225 107.665L156.13 109.005H157.47L157.565 107.665H156.225Z" fill="#263238"/>
<path d="M160.25 107.665L160.155 109.005H161.5L161.595 107.665H160.25Z" fill="#263238"/>
<path d="M164.28 107.665L164.185 109.005H165.53L165.62 107.665H164.28Z" fill="#263238"/>
<path d="M131.96 109.005L131.87 110.35H133.21L133.305 109.005H131.96Z" fill="#263238"/>
<path d="M135.99 109.005L135.895 110.35H137.24L137.335 109.005H135.99Z" fill="#263238"/>
<path d="M137.335 109.005L137.24 110.35H138.58L138.675 109.005H137.335Z" fill="#263238"/>
<path d="M138.675 109.005L138.58 110.35H139.925L140.02 109.005H138.675Z" fill="#263238"/>
<path d="M140.02 109.005L139.925 110.35H141.265L141.36 109.005H140.02Z" fill="#263238"/>
<path d="M141.36 109.005L141.265 110.35H142.61L142.705 109.005H141.36Z" fill="#263238"/>
<path d="M144.045 109.005L143.95 110.35H145.295L145.39 109.005H144.045Z" fill="#263238"/>
<path d="M145.39 109.005L145.295 110.35H146.635L146.73 109.005H145.39Z" fill="#263238"/>
<path d="M149.415 109.005L149.32 110.35H150.665L150.76 109.005H149.415Z" fill="#263238"/>
<path d="M153.445 109.005L153.35 110.35H154.695L154.785 109.005H153.445Z" fill="#263238"/>
<path d="M154.785 109.005L154.695 110.35H156.035L156.13 109.005H154.785Z" fill="#263238"/>
<path d="M156.13 109.005L156.035 110.35H157.38L157.47 109.005H156.13Z" fill="#263238"/>
<path d="M157.47 109.005L157.38 110.35H158.72L158.815 109.005H157.47Z" fill="#263238"/>
<path d="M161.5 109.005L161.405 110.35H162.75L162.845 109.005H161.5Z" fill="#263238"/>
<path d="M162.845 109.005L162.75 110.35H164.09L164.185 109.005H162.845Z" fill="#263238"/>
<path d="M164.185 109.005L164.09 110.35H165.435L165.53 109.005H164.185Z" fill="#263238"/>
<path d="M133.21 110.35L133.115 111.69H134.46L134.555 110.35H133.21Z" fill="#263238"/>
<path d="M134.555 110.35L134.46 111.69H135.805L135.895 110.35H134.555Z" fill="#263238"/>
<path d="M138.58 110.35L138.49 111.69H139.83L139.925 110.35H138.58Z" fill="#263238"/>
<path d="M141.265 110.35L141.175 111.69H142.515L142.61 110.35H141.265Z" fill="#263238"/>
<path d="M143.95 110.35L143.86 111.69H145.2L145.295 110.35H143.95Z" fill="#263238"/>
<path d="M145.295 110.35L145.2 111.69H146.545L146.635 110.35H145.295Z" fill="#263238"/>
<path d="M149.32 110.35L149.23 111.69H150.57L150.665 110.35H149.32Z" fill="#263238"/>
<path d="M152.01 110.35L151.915 111.69H153.255L153.35 110.35H152.01Z" fill="#263238"/>
<path d="M156.035 110.35L155.94 111.69H157.285L157.38 110.35H156.035Z" fill="#263238"/>
<path d="M158.72 110.35L158.625 111.69H159.97L160.065 110.35H158.72Z" fill="#263238"/>
<path d="M162.75 110.35L162.655 111.69H164L164.09 110.35H162.75Z" fill="#263238"/>
<path d="M131.775 111.69L131.68 113.035H133.025L133.115 111.69H131.775Z" fill="#263238"/>
<path d="M134.46 111.69L134.365 113.035H135.71L135.805 111.69H134.46Z" fill="#263238"/>
<path d="M138.49 111.69L138.395 113.035H139.735L139.83 111.69H138.49Z" fill="#263238"/>
<path d="M139.83 111.69L139.735 113.035H141.08L141.175 111.69H139.83Z" fill="#263238"/>
<path d="M141.175 111.69L141.08 113.035H142.42L142.515 111.69H141.175Z" fill="#263238"/>
<path d="M149.23 111.69L149.135 113.035H150.475L150.57 111.69H149.23Z" fill="#263238"/>
<path d="M153.255 111.69L153.16 113.035H154.505L154.6 111.69H153.255Z" fill="#263238"/>
<path d="M154.6 111.69L154.505 113.035H155.85L155.94 111.69H154.6Z" fill="#263238"/>
<path d="M155.94 111.69L155.85 113.035H157.19L157.285 111.69H155.94Z" fill="#263238"/>
<path d="M157.285 111.69L157.19 113.035H158.535L158.625 111.69H157.285Z" fill="#263238"/>
<path d="M158.625 111.69L158.535 113.035H159.875L159.97 111.69H158.625Z" fill="#263238"/>
<path d="M159.97 111.69L159.875 113.035H161.22L161.315 111.69H159.97Z" fill="#263238"/>
<path d="M142.42 113.035L142.325 114.375H143.67L143.765 113.035H142.42Z" fill="#263238"/>
<path d="M145.105 113.035L145.015 114.375H146.355L146.45 113.035H145.105Z" fill="#263238"/>
<path d="M147.79 113.035L147.7 114.375H149.04L149.135 113.035H147.79Z" fill="#263238"/>
<path d="M153.16 113.035L153.07 114.375H154.41L154.505 113.035H153.16Z" fill="#263238"/>
<path d="M158.535 113.035L158.44 114.375H159.78L159.875 113.035H158.535Z" fill="#263238"/>
<path d="M159.875 113.035L159.78 114.375H161.125L161.22 113.035H159.875Z" fill="#263238"/>
<path d="M162.56 113.035L162.465 114.375H163.81L163.905 113.035H162.56Z" fill="#263238"/>
<path d="M163.905 113.035L163.81 114.375H165.155L165.245 113.035H163.905Z" fill="#263238"/>
<path d="M131.585 114.375L131.495 115.72H132.835L132.93 114.375H131.585Z" fill="#263238"/>
<path d="M132.93 114.375L132.835 115.72H134.18L134.27 114.375H132.93Z" fill="#263238"/>
<path d="M134.27 114.375L134.18 115.72H135.52L135.615 114.375H134.27Z" fill="#263238"/>
<path d="M135.615 114.375L135.52 115.72H136.865L136.955 114.375H135.615Z" fill="#263238"/>
<path d="M136.955 114.375L136.865 115.72H138.205L138.3 114.375H136.955Z" fill="#263238"/>
<path d="M138.3 114.375L138.205 115.72H139.55L139.645 114.375H138.3Z" fill="#263238"/>
<path d="M139.645 114.375L139.55 115.72H140.89L140.985 114.375H139.645Z" fill="#263238"/>
<path d="M142.325 114.375L142.235 115.72H143.575L143.67 114.375H142.325Z" fill="#263238"/>
<path d="M143.67 114.375L143.575 115.72H144.92L145.015 114.375H143.67Z" fill="#263238"/>
<path d="M145.015 114.375L144.92 115.72H146.26L146.355 114.375H145.015Z" fill="#263238"/>
<path d="M149.04 114.375L148.945 115.72H150.29L150.385 114.375H149.04Z" fill="#263238"/>
<path d="M150.385 114.375L150.29 115.72H151.63L151.725 114.375H150.385Z" fill="#263238"/>
<path d="M151.725 114.375L151.63 115.72H152.975L153.07 114.375H151.725Z" fill="#263238"/>
<path d="M153.07 114.375L152.975 115.72H154.315L154.41 114.375H153.07Z" fill="#263238"/>
<path d="M155.755 114.375L155.66 115.72H157.005L157.095 114.375H155.755Z" fill="#263238"/>
<path d="M158.44 114.375L158.345 115.72H159.69L159.78 114.375H158.44Z" fill="#263238"/>
<path d="M159.78 114.375L159.69 115.72H161.03L161.125 114.375H159.78Z" fill="#263238"/>
<path d="M162.465 114.375L162.375 115.72H163.715L163.81 114.375H162.465Z" fill="#263238"/>
<path d="M163.81 114.375L163.715 115.72H165.06L165.155 114.375H163.81Z" fill="#263238"/>
<path d="M131.495 115.72L131.4 117.06H132.74L132.835 115.72H131.495Z" fill="#263238"/>
<path d="M139.55 115.72L139.455 117.06H140.8L140.89 115.72H139.55Z" fill="#263238"/>
<path d="M142.235 115.72L142.14 117.06H143.48L143.575 115.72H142.235Z" fill="#263238"/>
<path d="M147.605 115.72L147.51 117.06H148.855L148.945 115.72H147.605Z" fill="#263238"/>
<path d="M148.945 115.72L148.855 117.06H150.195L150.29 115.72H148.945Z" fill="#263238"/>
<path d="M150.29 115.72L150.195 117.06H151.54L151.63 115.72H150.29Z" fill="#263238"/>
<path d="M152.975 115.72L152.88 117.06H154.225L154.315 115.72H152.975Z" fill="#263238"/>
<path d="M158.345 115.72L158.25 117.06H159.595L159.69 115.72H158.345Z" fill="#263238"/>
<path d="M159.69 115.72L159.595 117.06H160.935L161.03 115.72H159.69Z" fill="#263238"/>
<path d="M162.375 115.72L162.28 117.06H163.62L163.715 115.72H162.375Z" fill="#263238"/>
<path d="M131.4 117.06L131.305 118.405H132.65L132.74 117.06H131.4Z" fill="#263238"/>
<path d="M134.085 117.06L133.99 118.405H135.335L135.425 117.06H134.085Z" fill="#263238"/>
<path d="M135.425 117.06L135.335 118.405H136.675L136.77 117.06H135.425Z" fill="#263238"/>
<path d="M136.77 117.06L136.675 118.405H138.02L138.11 117.06H136.77Z" fill="#263238"/>
<path d="M139.455 117.06L139.36 118.405H140.705L140.8 117.06H139.455Z" fill="#263238"/>
<path d="M142.14 117.06L142.045 118.405H143.39L143.48 117.06H142.14Z" fill="#263238"/>
<path d="M146.17 117.06L146.075 118.405H147.415L147.51 117.06H146.17Z" fill="#263238"/>
<path d="M147.51 117.06L147.415 118.405H148.76L148.855 117.06H147.51Z" fill="#263238"/>
<path d="M148.855 117.06L148.76 118.405H150.1L150.195 117.06H148.855Z" fill="#263238"/>
<path d="M150.195 117.06L150.1 118.405H151.445L151.54 117.06H150.195Z" fill="#263238"/>
<path d="M152.88 117.06L152.785 118.405H154.13L154.225 117.06H152.88Z" fill="#263238"/>
<path d="M154.225 117.06L154.13 118.405H155.47L155.565 117.06H154.225Z" fill="#263238"/>
<path d="M155.565 117.06L155.47 118.405H156.815L156.91 117.06H155.565Z" fill="#263238"/>
<path d="M156.91 117.06L156.815 118.405H158.155L158.25 117.06H156.91Z" fill="#263238"/>
<path d="M158.25 117.06L158.155 118.405H159.5L159.595 117.06H158.25Z" fill="#263238"/>
<path d="M159.595 117.06L159.5 118.405H160.845L160.935 117.06H159.595Z" fill="#263238"/>
<path d="M162.28 117.06L162.185 118.405H163.53L163.62 117.06H162.28Z" fill="#263238"/>
<path d="M131.305 118.405L131.21 119.745H132.555L132.65 118.405H131.305Z" fill="#263238"/>
<path d="M133.99 118.405L133.895 119.745H135.24L135.335 118.405H133.99Z" fill="#263238"/>
<path d="M135.335 118.405L135.24 119.745H136.58L136.675 118.405H135.335Z" fill="#263238"/>
<path d="M136.675 118.405L136.58 119.745H137.925L138.02 118.405H136.675Z" fill="#263238"/>
<path d="M139.36 118.405L139.265 119.745H140.61L140.705 118.405H139.36Z" fill="#263238"/>
<path d="M143.39 118.405L143.295 119.745H144.635L144.73 118.405H143.39Z" fill="#263238"/>
<path d="M144.73 118.405L144.635 119.745H145.98L146.075 118.405H144.73Z" fill="#263238"/>
<path d="M147.415 118.405L147.32 119.745H148.665L148.76 118.405H147.415Z" fill="#263238"/>
<path d="M151.445 118.405L151.35 119.745H152.695L152.785 118.405H151.445Z" fill="#263238"/>
<path d="M152.785 118.405L152.695 119.745H154.035L154.13 118.405H152.785Z" fill="#263238"/>
<path d="M156.815 118.405L156.72 119.745H158.065L158.155 118.405H156.815Z" fill="#263238"/>
<path d="M158.155 118.405L158.065 119.745H159.405L159.5 118.405H158.155Z" fill="#263238"/>
<path d="M159.5 118.405L159.405 119.745H160.75L160.845 118.405H159.5Z" fill="#263238"/>
<path d="M160.845 118.405L160.75 119.745H162.09L162.185 118.405H160.845Z" fill="#263238"/>
<path d="M131.21 119.745L131.115 121.09H132.46L132.555 119.745H131.21Z" fill="#263238"/>
<path d="M133.895 119.745L133.805 121.09H135.145L135.24 119.745H133.895Z" fill="#263238"/>
<path d="M135.24 119.745L135.145 121.09H136.49L136.58 119.745H135.24Z" fill="#263238"/>
<path d="M136.58 119.745L136.49 121.09H137.83L137.925 119.745H136.58Z" fill="#263238"/>
<path d="M139.265 119.745L139.175 121.09H140.515L140.61 119.745H139.265Z" fill="#263238"/>
<path d="M141.95 119.745L141.86 121.09H143.2L143.295 119.745H141.95Z" fill="#263238"/>
<path d="M148.665 119.745L148.57 121.09H149.915L150.01 119.745H148.665Z" fill="#263238"/>
<path d="M151.35 119.745L151.255 121.09H152.6L152.695 119.745H151.35Z" fill="#263238"/>
<path d="M158.065 119.745L157.97 121.09H159.315L159.405 119.745H158.065Z" fill="#263238"/>
<path d="M163.435 119.745L163.34 121.09H164.685L164.775 119.745H163.435Z" fill="#263238"/>
<path d="M131.115 121.09L131.025 122.43H132.365L132.46 121.09H131.115Z" fill="#263238"/>
<path d="M139.175 121.09L139.08 122.43H140.42L140.515 121.09H139.175Z" fill="#263238"/>
<path d="M141.86 121.09L141.765 122.43H143.105L143.2 121.09H141.86Z" fill="#263238"/>
<path d="M143.2 121.09L143.105 122.43H144.45L144.545 121.09H143.2Z" fill="#263238"/>
<path d="M145.885 121.09L145.79 122.43H147.135L147.23 121.09H145.885Z" fill="#263238"/>
<path d="M148.57 121.09L148.475 122.43H149.82L149.915 121.09H148.57Z" fill="#263238"/>
<path d="M149.915 121.09L149.82 122.43H151.165L151.255 121.09H149.915Z" fill="#263238"/>
<path d="M151.255 121.09L151.165 122.43H152.505L152.6 121.09H151.255Z" fill="#263238"/>
<path d="M152.6 121.09L152.505 122.43H153.85L153.94 121.09H152.6Z" fill="#263238"/>
<path d="M155.285 121.09L155.19 122.43H156.535L156.625 121.09H155.285Z" fill="#263238"/>
<path d="M157.97 121.09L157.875 122.43H159.22L159.315 121.09H157.97Z" fill="#263238"/>
<path d="M159.315 121.09L159.22 122.43H160.56L160.655 121.09H159.315Z" fill="#263238"/>
<path d="M162 121.09L161.905 122.43H163.245L163.34 121.09H162Z" fill="#263238"/>
<path d="M131.025 122.43L130.93 123.775H132.27L132.365 122.43H131.025Z" fill="#263238"/>
<path d="M132.365 122.43L132.27 123.775H133.615L133.71 122.43H132.365Z" fill="#263238"/>
<path d="M133.71 122.43L133.615 123.775H134.96L135.05 122.43H133.71Z" fill="#263238"/>
<path d="M135.05 122.43L134.96 123.775H136.3L136.395 122.43H135.05Z" fill="#263238"/>
<path d="M136.395 122.43L136.3 123.775H137.645L137.735 122.43H136.395Z" fill="#263238"/>
<path d="M137.735 122.43L137.645 123.775H138.985L139.08 122.43H137.735Z" fill="#263238"/>
<path d="M139.08 122.43L138.985 123.775H140.33L140.42 122.43H139.08Z" fill="#263238"/>
<path d="M141.765 122.43L141.67 123.775H143.015L143.105 122.43H141.765Z" fill="#263238"/>
<path d="M143.105 122.43L143.015 123.775H144.355L144.45 122.43H143.105Z" fill="#263238"/>
<path d="M144.45 122.43L144.355 123.775H145.7L145.79 122.43H144.45Z" fill="#263238"/>
<path d="M145.79 122.43L145.7 123.775H147.04L147.135 122.43H145.79Z" fill="#263238"/>
<path d="M147.135 122.43L147.04 123.775H148.385L148.475 122.43H147.135Z" fill="#263238"/>
<path d="M148.475 122.43L148.385 123.775H149.725L149.82 122.43H148.475Z" fill="#263238"/>
<path d="M152.505 122.43L152.41 123.775H153.755L153.85 122.43H152.505Z" fill="#263238"/>
<path d="M153.85 122.43L153.755 123.775H155.095L155.19 122.43H153.85Z" fill="#263238"/>
<path d="M156.535 122.43L156.44 123.775H157.78L157.875 122.43H156.535Z" fill="#263238"/>
<path d="M161.905 122.43L161.81 123.775H163.155L163.245 122.43H161.905Z" fill="#263238"/>
<path d="M163.245 122.43L163.155 123.775H164.495L164.59 122.43H163.245Z" fill="#263238"/>
<path d="M95.3054 205.205L99.2054 204.265L97.1904 195.205L93.2954 196.145L95.3054 205.205Z" fill="#FF887B"/>
<path d="M99.0554 203.325L94.7954 204.355C94.7192 204.372 94.6515 204.416 94.604 204.478C94.5566 204.54 94.5323 204.617 94.5354 204.695L94.6854 208.315C94.6893 208.394 94.7086 208.471 94.7424 208.542C94.7761 208.614 94.8236 208.678 94.8822 208.731C94.9407 208.784 95.0091 208.825 95.0834 208.851C95.1578 208.877 95.2366 208.889 95.3154 208.885C95.3536 208.89 95.3922 208.89 95.4304 208.885C96.9304 208.485 99.1504 207.86 101.085 207.385C103.335 206.84 103.55 206.92 106.195 206.28C107.795 205.895 107.805 204.18 107.1 204.2C103.875 204.27 103.13 204.375 100.07 203.39C99.7443 203.276 99.3934 203.254 99.0554 203.325Z" fill="#263238"/>
<path opacity="0.2" d="M97.1904 195.21L98.2304 199.88L94.3304 200.82L93.2954 196.15L97.1904 195.21Z" fill="black"/>
<path d="M99.5452 203.07C99.5301 203.071 99.5151 203.068 99.5012 203.062C99.4874 203.056 99.4751 203.046 99.4652 203.035C99.4565 203.027 99.4495 203.017 99.4447 203.005C99.44 202.994 99.4375 202.982 99.4375 202.97C99.4375 202.958 99.44 202.946 99.4447 202.935C99.4495 202.923 99.4565 202.913 99.4652 202.905C99.6152 202.77 100.965 201.62 101.49 201.77C101.539 201.784 101.584 201.81 101.621 201.846C101.658 201.882 101.685 201.926 101.7 201.975C101.737 202.055 101.751 202.144 101.743 202.232C101.734 202.32 101.702 202.403 101.65 202.475C101.418 202.726 101.108 202.89 100.77 202.94C100.366 203.018 99.9565 203.061 99.5452 203.07ZM99.7952 202.87C100.68 202.81 101.295 202.62 101.48 202.37C101.513 202.324 101.533 202.27 101.538 202.214C101.544 202.158 101.534 202.101 101.51 202.05C101.506 202.03 101.496 202.012 101.482 201.997C101.468 201.982 101.45 201.971 101.43 201.965C101.371 201.953 101.31 201.953 101.25 201.965C100.717 202.182 100.225 202.488 99.7952 202.87Z" fill="#4628F1"/>
<path d="M99.5004 203.075C99.4863 203.067 99.474 203.057 99.4645 203.044C99.455 203.031 99.4485 203.016 99.4454 203C99.4454 202.96 99.2804 201.9 99.6504 201.39C99.7026 201.314 99.7708 201.249 99.8502 201.202C99.9296 201.155 100.018 201.125 100.11 201.115C100.365 201.075 100.49 201.185 100.515 201.28C100.7 201.7 100.015 202.74 99.6004 203.065H99.5604C99.5415 203.073 99.5209 203.077 99.5004 203.075ZM99.8054 201.505C99.6117 201.907 99.5488 202.36 99.6254 202.8C100.02 202.405 100.47 201.605 100.36 201.36C100.36 201.335 100.32 201.26 100.155 201.3H100.1C100.038 201.311 99.9782 201.334 99.9249 201.368C99.8716 201.403 99.8259 201.447 99.7904 201.5L99.8054 201.505Z" fill="#4628F1"/>
<path d="M65.3101 204.425L69.2701 205.045L70.8751 195.905L66.9101 195.28L65.3101 204.425Z" fill="#FF887B"/>
<path d="M69.3051 204.58L64.9701 203.905C64.893 203.892 64.8138 203.906 64.7463 203.946C64.6787 203.985 64.627 204.047 64.6001 204.12L63.3551 207.52C63.3274 207.594 63.315 207.674 63.3184 207.753C63.3219 207.832 63.3412 207.91 63.3752 207.982C63.4092 208.054 63.4573 208.118 63.5165 208.171C63.5757 208.224 63.6449 208.264 63.7201 208.29C63.7553 208.305 63.7923 208.315 63.8301 208.32C65.3951 208.535 67.6601 208.795 69.6251 209.105C71.9151 209.465 72.0851 209.605 74.7701 210.04C76.3951 210.295 77.0601 208.715 76.4001 208.46C73.4001 207.295 72.6701 207.105 70.2151 205.025C69.957 204.798 69.6428 204.644 69.3051 204.58Z" fill="#263238"/>
<path opacity="0.2" d="M70.8755 195.905L69.9405 201.215L65.9805 200.595L66.9105 195.285L70.8755 195.905Z" fill="black"/>
<path d="M69.8503 204.53C69.8357 204.527 69.8223 204.519 69.8117 204.509C69.8011 204.498 69.7937 204.485 69.7903 204.47C69.7865 204.459 69.785 204.446 69.7859 204.434C69.7869 204.422 69.7903 204.41 69.7959 204.4C69.8015 204.389 69.8092 204.379 69.8185 204.372C69.8279 204.364 69.8387 204.358 69.8503 204.355C70.0403 204.29 71.7203 203.735 72.1503 204.08C72.1919 204.111 72.2248 204.152 72.2459 204.199C72.2669 204.247 72.2753 204.298 72.2703 204.35C72.271 204.435 72.2503 204.518 72.2101 204.592C72.1699 204.666 72.1115 204.729 72.0403 204.775C71.7272 204.919 71.3741 204.951 71.0403 204.865C70.6342 204.79 70.2359 204.678 69.8503 204.53ZM70.1553 204.445C71.0003 204.725 71.6553 204.79 71.9153 204.61C71.9622 204.58 72.0006 204.539 72.0269 204.49C72.0531 204.441 72.0664 204.386 72.0653 204.33C72.0673 204.31 72.0648 204.289 72.0579 204.27C72.0509 204.251 72.0398 204.234 72.0253 204.22C71.9725 204.19 71.915 204.17 71.8553 204.16C71.2767 204.159 70.702 204.255 70.1553 204.445Z" fill="#4628F1"/>
<path d="M69.7954 204.5C69.785 204.487 69.7775 204.471 69.7732 204.455C69.7689 204.439 69.7679 204.422 69.7704 204.405C69.7704 204.365 70.0354 203.325 70.5754 202.995C70.6532 202.945 70.7406 202.913 70.8319 202.899C70.9232 202.885 71.0164 202.89 71.1054 202.915C71.3604 202.98 71.4354 203.13 71.4204 203.225C71.4204 203.685 70.3954 204.385 69.8904 204.525H69.8504C69.8299 204.523 69.8107 204.514 69.7954 204.5ZM70.6754 203.16C70.3436 203.459 70.1129 203.854 70.0154 204.29C70.5154 204.075 71.2554 203.51 71.2454 203.24C71.2454 203.24 71.2454 203.13 71.0804 203.105H71.0204C70.9001 203.087 70.7774 203.114 70.6754 203.18V203.16Z" fill="#4628F1"/>
<path d="M84.8301 146.465C87.9551 146.635 90.8301 146.835 93.9651 146.73C94.2751 143.08 93.8001 137.915 92.5201 134.485C89.9351 133.105 86.9101 133.985 84.1401 134.96L84.8301 146.465Z" fill="#4628F1"/>
<path opacity="0.2" d="M84.8301 146.465C87.9551 146.635 90.8301 146.835 93.9651 146.73C94.2751 143.08 93.8001 137.915 92.5201 134.485C89.9351 133.105 86.9101 133.985 84.1401 134.96L84.8301 146.465Z" fill="black"/>
<path opacity="0.2" d="M84.1401 135.01L85.1901 135.465L86.6551 145.495L94.0201 145.94L93.9651 146.78L84.8301 146.515L84.1401 135.01Z" fill="black"/>
<path opacity="0.2" d="M92.5001 134.5L92.9451 135.865L90.3801 136.82L86.1701 136.16L84.1201 134.975C85.5117 134.332 87.0034 133.933 88.5301 133.795C91.1951 133.5 92.5001 134.5 92.5001 134.5Z" fill="white"/>
<path d="M89.4554 117.925L95.1754 166.16L99.4204 196.575C99.4871 196.943 99.4081 197.322 99.2 197.633C98.9919 197.944 98.6711 198.162 98.3054 198.24L93.5854 199.445C93.2356 199.47 92.8889 199.365 92.612 199.15C92.335 198.935 92.1474 198.625 92.0854 198.28C90.5854 191.995 86.5554 179.73 85.7954 167.685C85.7954 167.685 77.7954 136.96 76.1504 127.455L75.6504 118.865L89.4554 117.925Z" fill="#4628F1"/>
<path opacity="0.2" d="M82.365 129.575C82.365 129.575 83.82 143.25 82.365 154.365C82.365 154.365 79.29 141.61 77.895 136.575L82.365 129.575Z" fill="black"/>
<path d="M83.5001 115.58L78.6801 170L72.5601 199.05C72.5381 199.222 72.481 199.387 72.3922 199.536C72.3035 199.685 72.185 199.813 72.0443 199.914C71.9035 200.015 71.7435 200.086 71.5741 200.122C71.4048 200.158 71.2298 200.159 71.0601 200.125L65.8701 199.045C65.5276 198.943 65.2319 198.724 65.0345 198.426C64.8371 198.128 64.7506 197.77 64.7901 197.415C65.2901 191.14 64.9901 180.915 68.0501 169.825C68.0501 169.825 68.3951 132.325 69.7051 115.68L83.5001 115.58Z" fill="#4628F1"/>
<path d="M113.71 91.07L114.755 89.62L118.545 91.95C117.775 92.6047 116.937 93.1747 116.045 93.65C115.746 93.8022 115.41 93.8661 115.076 93.8342C114.743 93.8023 114.425 93.676 114.16 93.47L114.02 93.36C113.681 93.0934 113.459 92.7052 113.401 92.2778C113.343 91.8504 113.454 91.4172 113.71 91.07Z" fill="#FF8B7B"/>
<path d="M117.82 87.475L119.805 90.905L118.55 91.955L114.76 89.62L117.82 87.475Z" fill="#FF8B7B"/>
<path d="M87.6704 95.1699C91.6313 96.0885 95.6365 96.8044 99.6704 97.315C101.67 97.575 110.2 95.6149 113.875 94.9749C114 94.9815 114.125 94.9555 114.237 94.8997C114.349 94.8439 114.444 94.7601 114.514 94.6564C114.584 94.5528 114.626 94.4328 114.636 94.3081C114.646 94.1834 114.623 94.0583 114.57 93.9449L114.12 90.7399C114.112 90.4296 114.001 90.1307 113.805 89.8899C113.622 89.7618 113.411 89.6779 113.19 89.6449C112.969 89.6119 112.743 89.6308 112.53 89.6999C107.665 90.4999 100.715 90.9999 100.715 90.9999C97.2754 90.4999 93.5904 89.0749 90.4454 87.6549C81.0604 83.4349 85.5854 94.6299 87.6704 95.1699Z" fill="#263238"/>
<path opacity="0.1" d="M87.6704 95.1699C91.6313 96.0885 95.6365 96.8044 99.6704 97.315C101.67 97.575 110.2 95.6149 113.875 94.9749C114 94.9815 114.125 94.9555 114.237 94.8997C114.349 94.8439 114.444 94.7601 114.514 94.6564C114.584 94.5528 114.626 94.4328 114.636 94.3081C114.646 94.1834 114.623 94.0583 114.57 93.9449L114.12 90.7399C114.112 90.4296 114.001 90.1307 113.805 89.8899C113.622 89.7618 113.411 89.6779 113.19 89.6449C112.969 89.6119 112.743 89.6308 112.53 89.6999C107.665 90.4999 100.715 90.9999 100.715 90.9999C97.2754 90.4999 93.5904 89.0749 90.4454 87.6549C81.0604 83.4349 85.5854 94.6299 87.6704 95.1699Z" fill="black"/>
<path d="M121.095 93.875L116.785 93.02L119.425 83.97L123.73 84.825L121.095 93.875Z" fill="#4628F1"/>
<path d="M124.615 84.4999L121.665 94.6249C121.629 94.7435 121.55 94.8444 121.444 94.9081C121.338 94.9719 121.212 94.9939 121.09 94.9699L120.84 94.9199C120.961 94.9425 121.086 94.9199 121.191 94.8562C121.296 94.7926 121.374 94.6925 121.41 94.5749L124.36 84.4449C124.379 84.3789 124.384 84.3097 124.374 84.2418C124.365 84.1738 124.342 84.1084 124.306 84.0498C124.271 83.9912 124.223 83.9405 124.167 83.901C124.111 83.8614 124.048 83.8339 123.98 83.8199L124.23 83.8699C124.299 83.8832 124.363 83.9105 124.42 83.9501C124.477 83.9897 124.526 84.0408 124.562 84.1001C124.598 84.1593 124.621 84.2255 124.631 84.2944C124.64 84.3632 124.635 84.4332 124.615 84.4999Z" fill="#4628F1"/>
<path opacity="0.3" d="M124.615 84.4999L121.665 94.6249C121.629 94.7435 121.55 94.8444 121.444 94.9081C121.338 94.9719 121.212 94.9939 121.09 94.9699L120.84 94.9199C120.961 94.9425 121.086 94.9199 121.191 94.8562C121.296 94.7926 121.374 94.6925 121.41 94.5749L124.36 84.4449C124.379 84.3789 124.384 84.3097 124.374 84.2418C124.365 84.1738 124.342 84.1084 124.306 84.0498C124.271 83.9912 124.223 83.9405 124.167 83.901C124.111 83.8614 124.048 83.8339 123.98 83.8199L124.23 83.8699C124.299 83.8832 124.363 83.9105 124.42 83.9501C124.477 83.9897 124.526 84.0408 124.562 84.1001C124.598 84.1593 124.621 84.2255 124.631 84.2944C124.64 84.3632 124.635 84.4332 124.615 84.4999Z" fill="black"/>
<path d="M124 83.8L119.705 82.95C119.584 82.926 119.458 82.9481 119.351 83.0118C119.245 83.0755 119.166 83.1765 119.13 83.295L116.18 93.42C116.162 93.486 116.157 93.5552 116.166 93.6232C116.176 93.6912 116.199 93.7565 116.234 93.8151C116.27 93.8737 116.317 93.9244 116.373 93.964C116.43 94.0035 116.493 94.0311 116.56 94.045L120.86 94.9C120.981 94.9226 121.106 94.8999 121.211 94.8363C121.316 94.7726 121.394 94.6725 121.43 94.555L124.38 84.425C124.399 84.3589 124.404 84.2898 124.394 84.2218C124.385 84.1538 124.362 84.0885 124.326 84.0299C124.291 83.9712 124.243 83.9206 124.187 83.881C124.131 83.8415 124.067 83.8139 124 83.8ZM121.115 93.875L116.79 93L119.425 83.95L123.73 84.805L121.115 93.875Z" fill="#4628F1"/>
<path d="M123.73 84.825L121.095 93.875L116.785 93.02L119.425 83.97L123.73 84.825Z" fill="#4628F1"/>
<path opacity="0.7" d="M123.73 84.825L121.095 93.875L116.785 93.02L119.425 83.97L123.73 84.825Z" fill="white"/>
<path d="M116.65 88.295L117.62 87.27C117.641 87.2465 117.668 87.229 117.698 87.2192C117.728 87.2095 117.76 87.2078 117.791 87.2144C117.822 87.221 117.851 87.2356 117.874 87.2568C117.898 87.2779 117.915 87.3049 117.925 87.335L118.06 87.725C118.1 87.8465 118.113 87.9755 118.098 88.1026C118.082 88.2297 118.039 88.3518 117.97 88.46L116.5 90.775L114.765 89.62L116.65 88.295Z" fill="#FF8B7B"/>
<path d="M90.1802 100.76C90.2552 113.925 91.0402 118.87 89.0852 118.865C85.4502 118.865 72.1702 119.365 71.3952 119.235C65.6602 118.42 69.1802 105.365 69.1002 103.32C69.0502 102.06 68.9452 100.82 68.7802 99.565C68.6846 98.8157 68.5172 98.0773 68.2802 97.36C67.8602 96.155 67.1802 95.11 66.0102 94.725C64.9602 94.375 63.8102 94.68 62.7052 94.605C61.6002 94.53 60.3452 93.765 60.4802 92.67C60.5973 92.1561 60.8738 91.6923 61.2702 91.345C62.8802 89.63 64.6902 87.93 65.3252 85.67C65.5952 84.725 65.6502 83.67 66.1852 82.85C68.3952 79.455 73.6852 82.765 76.3002 83.735C77.9852 84.355 79.5102 85.28 81.1852 85.905C82.9402 86.565 86.0252 86.72 88.2752 86.81C90.3052 86.89 90.1802 100.76 90.1802 100.76Z" fill="#263238"/>
<path d="M75.2651 79.09C75.8201 81.31 75.6951 84.925 75.7101 87.425C75.7101 89.745 81.7101 91.675 81.7101 91.675C81.7101 91.675 84.1851 89.585 82.2701 88.025C80.6651 86.715 80.4401 85.19 80.7701 83.355L75.2651 79.09Z" fill="#FF8B7B"/>
<path opacity="0.2" d="M77.5304 80.84L80.8054 83.34C80.7021 83.8493 80.6386 84.3658 80.6154 84.885C79.4254 84.775 77.7304 83.56 77.5354 82.33C77.4437 81.8377 77.442 81.3329 77.5304 80.84Z" fill="black"/>
<path d="M74.72 74.925C75.145 78.68 75.22 80.895 77.22 82.735C80.22 85.495 84.795 83.53 85.5 79.735C86.135 76.31 85.33 70.735 81.565 69.435C80.7365 69.1427 79.847 69.0671 78.9811 69.2152C78.1151 69.3634 77.3014 69.7304 76.6171 70.2814C75.9329 70.8324 75.4008 71.5492 75.0714 72.3636C74.742 73.1781 74.6262 74.0632 74.735 74.935L74.72 74.925Z" fill="#FF8B7B"/>
<path d="M85.6803 78.605C85.8803 80.07 86.1253 82.66 86.5603 84.105C83.9953 84.105 81.5603 84.24 78.9803 84.23C78.6253 83.96 75.4803 81.23 75.7103 80.975C76.5803 80.08 77.6453 79.07 76.6353 78.06C76.3253 77.75 76.4903 77.195 76.4453 76.765C77.3753 78.165 80.9453 79.175 82.5753 78.875L85.6803 78.605Z" fill="#263238"/>
<path d="M81.6605 79.37C81.1155 79.565 81.9055 80.37 82.7705 80.415H84.3155C84.501 80.4223 84.6851 80.3797 84.8486 80.2918C85.0122 80.2039 85.1492 80.0738 85.2455 79.915C85.4055 79.62 85.4005 79.305 85.1555 79.215C84.7813 79.1036 84.3886 79.068 84.0005 79.11C83.2134 79.1122 82.4289 79.1994 81.6605 79.37Z" fill="#FF8B7B"/>
<path d="M84.5003 79.705C84.0772 79.8335 83.6294 79.8587 83.1944 79.7787C82.7595 79.6987 82.35 79.5157 82.0003 79.245C81.9914 79.2362 81.9843 79.2256 81.9795 79.2141C81.9747 79.2025 81.9722 79.19 81.9722 79.1775C81.9722 79.1649 81.9747 79.1525 81.9795 79.1409C81.9843 79.1293 81.9914 79.1188 82.0003 79.11C82.0166 79.0992 82.0358 79.0935 82.0553 79.0935C82.0749 79.0935 82.094 79.0992 82.1103 79.11C82.4411 79.3605 82.8262 79.5296 83.2345 79.6034C83.6428 79.6772 84.0628 79.6538 84.4603 79.535C84.4728 79.5312 84.4859 79.5301 84.4989 79.5316C84.5118 79.5332 84.5243 79.5373 84.5355 79.5439C84.5468 79.5505 84.5566 79.5593 84.5643 79.5698C84.572 79.5803 84.5774 79.5923 84.5803 79.605C84.5849 79.6288 84.5802 79.6534 84.5672 79.6739C84.5542 79.6943 84.5338 79.709 84.5103 79.715L84.5003 79.705Z" fill="#263238"/>
<path d="M83.84 77.57C83.0261 77.5406 82.2188 77.7268 81.5 78.11C80.7768 78.4886 79.955 78.6369 79.145 78.535C79.8301 79.0479 80.6396 79.3689 81.49 79.465C82.3637 79.5728 83.2496 79.4124 84.03 79.005C84.4846 79.283 84.9972 79.4525 85.5279 79.5002C86.0586 79.5479 86.5932 79.4725 87.09 79.28C86.135 79.51 85.755 78.21 84.77 77.755C84.4681 77.6579 84.1561 77.5959 83.84 77.57Z" fill="#263238"/>
<path opacity="0.1" d="M83.84 77.57C83.0261 77.5406 82.2188 77.7268 81.5 78.11C80.7768 78.4886 79.955 78.6369 79.145 78.535C79.8301 79.0479 80.6396 79.3689 81.49 79.465C82.3637 79.5728 83.2496 79.4124 84.03 79.005C84.4846 79.283 84.9972 79.4525 85.5279 79.5002C86.0586 79.5479 86.5932 79.4725 87.09 79.28C86.135 79.51 85.755 78.21 84.77 77.755C84.4681 77.6579 84.1561 77.5959 83.84 77.57Z" fill="black"/>
<path d="M77.9454 74.05C78.1903 74.4694 78.3116 74.9495 78.2953 75.435C77.8971 75.8263 77.5479 76.2645 77.2553 76.74C76.8303 77.44 76.6954 78.315 76.1504 78.93C76.1504 78.93 76.0304 79.005 76.0504 78.995C75.6108 78.1827 75.2136 77.3483 74.8604 76.495C75.7296 75.4972 76.7754 74.6684 77.9454 74.05Z" fill="#263238"/>
<path d="M73.32 78.59C73.7371 79.4458 74.4759 80.1019 75.375 80.415C76.565 80.82 77.235 79.77 76.955 78.595C76.71 77.555 75.79 76.095 74.565 76.18C74.2965 76.2061 74.0389 76.2991 73.8156 76.4504C73.5923 76.6017 73.4104 76.8065 73.2866 77.0462C73.1628 77.2858 73.101 77.5527 73.1068 77.8223C73.1127 78.092 73.1859 78.3559 73.32 78.59Z" fill="#FF8B7B"/>
<path d="M81.1153 75.69C81.1153 75.995 81.3053 76.235 81.5103 76.225C81.7153 76.215 81.8603 75.96 81.8403 75.655C81.8203 75.35 81.6503 75.105 81.4503 75.115C81.2503 75.125 81.1003 75.38 81.1153 75.69Z" fill="#263238"/>
<path d="M84.3204 75.5C84.3204 75.81 84.5104 76.05 84.7104 76.035C84.9104 76.02 85.0604 75.77 85.0454 75.46C85.0304 75.15 84.8554 74.92 84.6504 74.93C84.4454 74.94 84.3054 75.205 84.3204 75.5Z" fill="#263238"/>
<path d="M83.3101 75.3199C83.8851 76.1499 84.5501 76.5349 85.3101 77.1749C84.9001 77.7949 83.8901 77.7199 83.8901 77.7199L83.3101 75.3199Z" fill="#FF5652"/>
<path d="M80.0003 74.625C80.0334 74.6305 80.0675 74.6258 80.0978 74.6115C80.1282 74.5972 80.1535 74.574 80.1703 74.545C80.2939 74.3553 80.4598 74.1969 80.655 74.0824C80.8503 73.9678 81.0695 73.9002 81.2953 73.885C81.3427 73.885 81.3883 73.8669 81.4227 73.8344C81.4572 73.8018 81.4778 73.7573 81.4803 73.71C81.4817 73.6862 81.4782 73.6623 81.47 73.6399C81.4618 73.6175 81.4491 73.597 81.4328 73.5797C81.4164 73.5624 81.3966 73.5486 81.3747 73.5392C81.3528 73.5298 81.3292 73.5249 81.3053 73.525C81.0188 73.5375 80.7394 73.6184 80.4906 73.7611C80.2418 73.9038 80.0308 74.104 79.8753 74.345C79.8495 74.3845 79.8398 74.4324 79.8481 74.4789C79.8565 74.5254 79.8823 74.5669 79.9203 74.595C79.9448 74.6101 79.972 74.6203 80.0003 74.625Z" fill="#263238"/>
<path d="M85.3803 74.4499C85.4146 74.4601 85.451 74.4601 85.4853 74.4499C85.5069 74.4394 85.5262 74.4246 85.5418 74.4063C85.5574 74.388 85.5691 74.3668 85.5762 74.3438C85.5832 74.3208 85.5854 74.2966 85.5827 74.2727C85.58 74.2488 85.5723 74.2258 85.5603 74.2049C85.4266 73.948 85.2326 73.7273 84.9948 73.5618C84.7571 73.3963 84.4827 73.291 84.1953 73.2549C84.147 73.2522 84.0996 73.2684 84.0632 73.3002C84.0267 73.332 84.0042 73.3767 84.0003 73.4249C83.9975 73.4719 84.0133 73.5181 84.0441 73.5536C84.0749 73.5891 84.1184 73.6111 84.1653 73.6149C84.3889 73.6505 84.601 73.7384 84.7843 73.8713C84.9676 74.0042 85.117 74.1785 85.2203 74.3799C85.2402 74.4027 85.2648 74.4207 85.2925 74.4328C85.3201 74.4449 85.3501 74.4508 85.3803 74.4499Z" fill="#263238"/>
<path opacity="0.4" d="M71.8151 91.6949C71.8151 91.6949 72.0151 98.4549 70.6751 101.585C70.1451 102.835 69.6301 103.47 69.2001 103.775C69.0051 102.525 68.7451 101.275 68.4351 100.08C68.2539 99.3485 68.001 98.6367 67.6801 97.9549L67.5601 96.3899L71.8151 91.6949Z" fill="black"/>
<path opacity="0.2" d="M73.0005 119.965C72.9555 120.18 72.8255 121.295 72.6555 122.04C72.2543 123.469 71.3459 124.703 70.1005 125.51C69.1005 126.04 69.6805 121.385 69.6805 121.385L69.8705 119.78L73.0005 119.965Z" fill="black"/>
<path d="M68.8953 119.965L72.7403 121.715C72.4752 123.159 71.6504 124.441 70.4453 125.28L70.1153 125.51C70.1153 125.51 66.3803 121.95 66.8853 120.88L68.8953 119.965Z" fill="#FF8B7B"/>
<path d="M61.25 108.365C61.25 113.895 63.13 115.945 64.75 120.695C64.9096 121.166 65.2386 121.56 65.6731 121.801C66.1075 122.042 66.6162 122.113 67.1 122C68.935 121.59 70.735 120.24 69.6 117.86C69.6 117.86 68.49 114.77 67.745 108.67C67.5956 107.843 67.5956 106.997 67.745 106.17C68.3 103.81 70.525 99.125 71.04 95.985C71.475 93.3 72.04 89.945 70.765 88.83C64.84 83.6 61.25 97.77 61.25 108.365Z" fill="#263238"/>
<path opacity="0.4" d="M68.0702 86.285C68.1087 86.4669 68.1877 86.6378 68.3012 86.785C68.4148 86.9323 68.56 87.0521 68.7261 87.1357C68.8922 87.2192 69.075 87.2643 69.2609 87.2677C69.4469 87.271 69.6312 87.2325 69.8002 87.155C71.0102 86.565 74.3752 87.69 75.7052 87.405C75.7052 87.405 75.7052 85.6 75.7052 85.1C75.7052 84.6 71.2052 82.875 69.8802 82.765C67.6302 82.59 67.6602 84.5 68.0702 86.285Z" fill="black"/>
<path d="M84.8853 72.85C83.4603 72.05 81.7053 72.35 80.2953 73.07C79.0727 73.7949 77.9598 74.6906 76.9903 75.73C75.9303 76.76 74.9103 77.73 73.8653 78.73C73.7976 78.7965 73.7149 78.8459 73.6242 78.874C73.5335 78.9021 73.4374 78.9081 73.3439 78.8914C73.2504 78.8748 73.1623 78.836 73.0869 78.7784C73.0114 78.7207 72.9509 78.6458 72.9103 78.56C72.7903 78.305 72.6753 78.06 72.5303 77.795C72.4847 77.721 72.4554 77.6381 72.4442 77.5519C72.433 77.4658 72.4402 77.3782 72.4653 77.295C72.5853 76.915 72.7153 76.535 72.8253 76.16C72.3913 74.814 72.2906 73.3828 72.5318 71.9893C72.7731 70.5958 73.3491 69.2817 74.2103 68.16C75.3753 66.66 77.6203 66.66 79.4653 67.045C80.3886 67.2552 81.2604 67.6484 82.0291 68.2015C82.7977 68.7546 83.4476 69.4563 83.9403 70.265C84.1356 70.2151 84.3402 70.2146 84.5357 70.2635C84.7312 70.3123 84.9115 70.4091 85.0603 70.545C85.3844 70.7887 85.6268 71.1253 85.7553 71.51C85.8394 71.6882 85.8831 71.8829 85.8831 72.08C85.8831 72.2771 85.8394 72.4717 85.7553 72.65C85.6632 72.7881 85.5218 72.8858 85.3601 72.9229C85.1983 72.9601 85.0284 72.934 84.8853 72.85Z" fill="#4628F1"/>
<path d="M82.1902 69.655C82.4502 69.9449 82.6476 70.2853 82.7702 70.655C82.0485 70.6652 81.3362 70.8199 80.6752 71.11C80.5412 70.7456 80.345 70.4072 80.0952 70.11C80.8202 69.94 81.4702 69.82 82.1902 69.655Z" fill="white"/>
<path d="M73.3351 146.465C70.2101 146.635 67.3351 146.835 64.2001 146.73C63.8901 143.08 64.3651 137.915 65.6451 134.485C68.2301 133.105 71.2551 133.985 74.0251 134.96L73.3351 146.465Z" fill="#4628F1"/>
<path opacity="0.2" d="M74.025 135.01L72.975 135.465L71.51 145.495L64.145 145.94L64.2 146.78L73.335 146.515L74.025 135.01Z" fill="black"/>
<path opacity="0.2" d="M65.6452 134.5L65.2002 135.865L67.7652 136.82L71.9752 136.16L74.0252 134.975C72.6336 134.332 71.1419 133.933 69.6152 133.795C66.9702 133.5 65.6452 134.5 65.6452 134.5Z" fill="white"/>
</svg>
