<svg width="68" height="68" viewBox="0 0 68 68" fill="none" xmlns="http://www.w3.org/2000/svg">
<rect width="68" height="68" rx="34" fill="url(#paint0_linear_6_699)"/>
<path d="M40.25 31.5V24C40.25 22.3424 39.5915 20.7527 38.4194 19.5806C37.2473 18.4085 35.6576 17.75 34 17.75C32.3424 17.75 30.7527 18.4085 29.5806 19.5806C28.4085 20.7527 27.75 22.3424 27.75 24V31.5M46.6766 28.1783L48.7816 48.1783C48.8983 49.2867 48.0316 50.25 46.9166 50.25H21.0833C20.8203 50.2503 20.5602 50.1952 20.3199 50.0884C20.0796 49.9816 19.8644 49.8255 19.6883 49.6301C19.5123 49.4347 19.3793 49.2045 19.2981 48.9544C19.2168 48.7043 19.1891 48.4399 19.2166 48.1783L21.3233 28.1783C21.3719 27.7176 21.5894 27.2912 21.9337 26.9813C22.2781 26.6714 22.725 26.4999 23.1883 26.5H44.8116C45.7716 26.5 46.5766 27.225 46.6766 28.1783ZM28.375 31.5C28.375 31.6658 28.3091 31.8247 28.1919 31.9419C28.0747 32.0592 27.9157 32.125 27.75 32.125C27.5842 32.125 27.4252 32.0592 27.308 31.9419C27.1908 31.8247 27.125 31.6658 27.125 31.5C27.125 31.3342 27.1908 31.1753 27.308 31.0581C27.4252 30.9408 27.5842 30.875 27.75 30.875C27.9157 30.875 28.0747 30.9408 28.1919 31.0581C28.3091 31.1753 28.375 31.3342 28.375 31.5ZM40.875 31.5C40.875 31.6658 40.8091 31.8247 40.6919 31.9419C40.5747 32.0592 40.4157 32.125 40.25 32.125C40.0842 32.125 39.9252 32.0592 39.808 31.9419C39.6908 31.8247 39.625 31.6658 39.625 31.5C39.625 31.3342 39.6908 31.1753 39.808 31.0581C39.9252 30.9408 40.0842 30.875 40.25 30.875C40.4157 30.875 40.5747 30.9408 40.6919 31.0581C40.8091 31.1753 40.875 31.3342 40.875 31.5Z" stroke="white" stroke-width="3" stroke-linecap="round" stroke-linejoin="round"/>
<defs>
<linearGradient id="paint0_linear_6_699" x1="58.5" y1="8.5" x2="11" y2="60.5" gradientUnits="userSpaceOnUse">
<stop stop-color="#0EA5E9"/>
<stop offset="1" stop-color="#0EA5E9" stop-opacity="0.6"/>
</linearGradient>
</defs>
</svg>
