<svg width="48" height="48" viewBox="0 0 48 48" fill="none" xmlns="http://www.w3.org/2000/svg">
<rect width="48" height="48" rx="12" fill="#ECE9FD"/>
<path d="M33.9701 35.2083C32.8055 33.6664 31.2989 32.416 29.5687 31.5556C27.8386 30.6952 25.9324 30.2482 24.0001 30.25C22.0678 30.2482 20.1616 30.6952 18.4315 31.5556C16.7014 32.416 15.1947 33.6664 14.0301 35.2083M33.9701 35.2083C36.2426 33.187 37.8453 30.5226 38.5687 27.5685C39.2922 24.6144 39.1005 21.5101 38.0192 18.6675C36.9379 15.8248 35.018 13.378 32.5141 11.6515C30.0102 9.92503 27.0407 9.00049 23.9993 9.00049C20.9579 9.00049 17.9883 9.92503 15.4844 11.6515C12.9806 13.378 11.0607 15.8248 9.97933 18.6675C8.898 21.5101 8.70636 24.6144 9.4298 27.5685C10.1532 30.5226 11.7576 33.187 14.0301 35.2083M33.9701 35.2083C31.2268 37.6553 27.6761 39.0052 24.0001 39C20.3235 39.0056 16.7738 37.6557 14.0301 35.2083M29.0001 20.25C29.0001 21.5761 28.4733 22.8478 27.5356 23.7855C26.598 24.7232 25.3262 25.25 24.0001 25.25C22.674 25.25 21.4023 24.7232 20.4646 23.7855C19.5269 22.8478 19.0001 21.5761 19.0001 20.25C19.0001 18.9239 19.5269 17.6521 20.4646 16.7145C21.4023 15.7768 22.674 15.25 24.0001 15.25C25.3262 15.25 26.598 15.7768 27.5356 16.7145C28.4733 17.6521 29.0001 18.9239 29.0001 20.25Z" stroke="#4628F1" stroke-width="1.5" stroke-linecap="round" stroke-linejoin="round"/>
</svg>
