<svg width="32" height="32" viewBox="0 0 32 32" fill="none" xmlns="http://www.w3.org/2000/svg">
<rect width="32" height="32" rx="16" fill="url(#paint0_linear_24_817)"/>
<path d="M18.9917 17.975C19.1652 18.7092 19.1703 19.4732 19.0066 20.2097C18.843 20.9462 18.5148 21.6361 18.0466 22.2277C17.5784 22.8193 16.9824 23.2973 16.3033 23.6259C15.6241 23.9545 14.8795 24.1251 14.125 24.125V20.125M18.9917 17.975C20.5832 16.8157 21.878 15.2962 22.7701 13.5409C23.6623 11.7856 24.1266 9.84406 24.125 7.875C22.1561 7.87358 20.2148 8.33791 18.4596 9.23006C16.7044 10.1222 15.1851 11.4169 14.0258 13.0083M18.9917 17.975C17.5433 19.0344 15.8836 19.7678 14.125 20.125M14.125 20.125C14.0392 20.1425 13.9525 20.1592 13.8658 20.175C13.1098 19.5755 12.4253 18.891 11.8258 18.135C11.8416 18.0482 11.8574 17.9615 11.875 17.875M14.0258 13.0083C13.2915 12.8347 12.5275 12.8294 11.7909 12.993C11.0543 13.1566 10.3643 13.4848 9.77256 13.953C9.18084 14.4212 8.70275 15.0172 8.37412 15.6965C8.0455 16.3757 7.87486 17.1205 7.875 17.875H11.875M14.0258 13.0083C12.9666 14.4565 12.2323 16.1167 11.875 17.875M10.0092 19.8667C9.46098 20.2743 9.03477 20.8242 8.77669 21.4567C8.5186 22.0892 8.43848 22.7802 8.545 23.455C9.21986 23.5614 9.91097 23.4812 10.5435 23.2229C11.176 22.9647 11.7258 22.5383 12.1333 21.99M19.75 13.5C19.75 13.8315 19.6183 14.1495 19.3839 14.3839C19.1495 14.6183 18.8315 14.75 18.5 14.75C18.1685 14.75 17.8505 14.6183 17.6161 14.3839C17.3817 14.1495 17.25 13.8315 17.25 13.5C17.25 13.1685 17.3817 12.8505 17.6161 12.6161C17.8505 12.3817 18.1685 12.25 18.5 12.25C18.8315 12.25 19.1495 12.3817 19.3839 12.6161C19.6183 12.8505 19.75 13.1685 19.75 13.5Z" stroke="white" stroke-width="1.5" stroke-linecap="round" stroke-linejoin="round"/>
<defs>
<linearGradient id="paint0_linear_24_817" x1="27.5294" y1="4" x2="5.17647" y2="28.4706" gradientUnits="userSpaceOnUse">
<stop stop-color="#4628F1"/>
<stop offset="1" stop-color="#4628F1" stop-opacity="0.6"/>
</linearGradient>
</defs>
</svg>
