<svg width="68" height="68" viewBox="0 0 68 68" fill="none" xmlns="http://www.w3.org/2000/svg">
<rect width="68" height="68" rx="34" fill="url(#paint0_linear_6_704)"/>
<path d="M20.25 22.125C20.25 21.09 21.09 20.25 22.125 20.25H29.625C30.66 20.25 31.5 21.09 31.5 22.125V29.625C31.5 30.66 30.66 31.5 29.625 31.5H22.125C21.6277 31.5 21.1508 31.3025 20.7992 30.9508C20.4475 30.5992 20.25 30.1223 20.25 29.625V22.125ZM20.25 38.375C20.25 37.34 21.09 36.5 22.125 36.5H29.625C30.66 36.5 31.5 37.34 31.5 38.375V45.875C31.5 46.91 30.66 47.75 29.625 47.75H22.125C21.6277 47.75 21.1508 47.5525 20.7992 47.2008C20.4475 46.8492 20.25 46.3723 20.25 45.875V38.375ZM36.5 22.125C36.5 21.09 37.34 20.25 38.375 20.25H45.875C46.91 20.25 47.75 21.09 47.75 22.125V29.625C47.75 30.66 46.91 31.5 45.875 31.5H38.375C37.8777 31.5 37.4008 31.3025 37.0492 30.9508C36.6975 30.5992 36.5 30.1223 36.5 29.625V22.125Z" stroke="white" stroke-width="3" stroke-linecap="round" stroke-linejoin="round"/>
<path d="M24.9678 24.9677H26.2178V26.2177H24.9678V24.9677ZM24.9678 41.2177H26.2178V42.4677H24.9678V41.2177ZM41.2178 24.9677H42.4678V26.2177H41.2178V24.9677ZM36.2178 36.2177H37.4678V37.4677H36.2178V36.2177ZM36.2178 46.2177H37.4678V47.4677H36.2178V46.2177ZM46.2178 36.2177H47.4678V37.4677H46.2178V36.2177ZM46.2178 46.2177H47.4678V47.4677H46.2178V46.2177ZM41.2178 41.2177H42.4678V42.4677H41.2178V41.2177Z" stroke="white" stroke-width="3" stroke-linecap="round" stroke-linejoin="round"/>
<defs>
<linearGradient id="paint0_linear_6_704" x1="58.5" y1="8.5" x2="11" y2="60.5" gradientUnits="userSpaceOnUse">
<stop stop-color="#4628F1"/>
<stop offset="1" stop-color="#4628F1" stop-opacity="0.6"/>
</linearGradient>
</defs>
</svg>
